v 0.000000 0.000000 0.000000
v 1.142857 0.000000 0.000000
v 2.285714 0.000000 0.000000
v 3.428571 0.000000 0.000000
v 4.571429 0.000000 0.000000
v 5.714286 0.000000 0.000000
v 6.857143 0.000000 0.000000
v 8.000000 0.000000 0.000000
v 9.142857 0.000000 0.000000
v 10.285714 0.000000 0.000000
v 11.428571 0.000000 0.000000
v 12.571429 0.000000 0.000000
v 13.714286 0.000000 0.000000
v 14.857143 0.000000 0.000000
v 16.000000 0.000000 0.000000
v 17.142857 0.000000 0.000000
v 18.285714 0.000000 0.000000
v 19.428571 0.000000 0.000000
v 20.571429 0.000000 0.000000
v 21.714286 0.000000 0.000000
v 22.857143 0.000000 0.000000
v 24.000000 0.000000 0.000000
v 0.000000 1.411765 0.000000
v 1.217276 1.411765 0.000000
v 2.434552 1.411765 0.000000
v 3.651827 1.411765 0.000000
v 4.869103 1.411765 0.000000
v 6.044260 1.411765 0.317439
v 6.897417 1.411765 1.185703
v 7.883643 1.411765 1.899228
v 9.002109 1.411765 2.379639
v 10.184319 1.411765 2.669709
v 11.393590 1.411765 2.809075
v 12.610866 1.411765 2.809075
v 13.820137 1.411765 2.669709
v 15.002347 1.411765 2.379639
v 16.120813 1.411765 1.899228
v 17.107039 1.411765 1.185703
v 17.960197 1.411765 0.317439
v 19.135353 1.411765 -0.000000
v 20.352629 1.411765 -0.000000
v 21.569905 1.411765 -0.000000
v 22.787180 1.411765 0.000000
v 24.004456 1.411765 0.000000
v 0.000000 2.823529 0.000000
v 1.250313 2.823529 0.000000
v 2.500627 2.823529 0.000000
v 3.725670 2.823529 0.250103
v 4.635832 2.823529 1.107359
v 5.506301 2.823529 2.004893
v 6.547023 2.823529 2.697844
v 7.697871 2.823529 3.186551
v 8.901431 2.823529 3.525262
v 10.133005 2.823529 3.740924
v 11.378749 2.823529 3.847709
v 12.629063 2.823529 3.847709
v 13.874808 2.823529 3.740924
v 15.106381 2.823529 3.525262
v 16.309942 2.823529 3.186551
v 17.460789 2.823529 2.697844
v 18.501511 2.823529 2.004893
v 19.371980 2.823529 1.107359
v 20.282142 2.823529 0.250103
v 21.507185 2.823529 -0.000000
v 22.757499 2.823529 -0.000000
v 24.007812 2.823529 -0.000000
v 0.000000 4.235294 0.000000
v 1.282756 4.235294 0.000000
v 2.537822 4.235294 0.265091
v 3.283411 4.235294 1.308912
v 4.168828 4.235294 2.237083
v 5.201627 4.235294 2.997865
v 6.355278 4.235294 3.558714
v 7.569529 4.235294 3.972308
v 8.818149 4.235294 4.266267
v 10.086731 4.235294 4.456439
v 11.365939 4.235294 4.551774
v 12.648696 4.235294 4.551774
v 13.927905 4.235294 4.456439
v 15.196486 4.235294 4.266267
v 16.445106 4.235294 3.972308
v 17.659357 4.235294 3.558714
v 18.813009 4.235294 2.997865
v 19.845807 4.235294 2.237083
v 20.731225 4.235294 1.308912
v 21.476813 4.235294 0.265091
v 22.731879 4.235294 -0.000000
v 24.014635 4.235294 -0.000000
v 0.000000 5.647059 0.000000
v 1.294634 5.647059 0.138833
v 2.076277 5.647059 1.180171
v 2.931082 5.647059 2.162341
v 3.908610 5.647059 3.022451
v 5.038260 5.647059 3.669941
v 6.242948 5.647059 4.163981
v 7.490879 5.647059 4.535493
v 8.765196 5.647059 4.802825
v 10.055527 5.647059 4.977170
v 11.354611 5.647059 5.065094
v 12.656668 5.647059 5.065094
v 13.955752 5.647059 4.977170
v 15.246083 5.647059 4.802825
v 16.520400 5.647059 4.535493
v 17.768330 5.647059 4.163981
v 18.973019 5.647059 3.669941
v 20.102668 5.647059 3.022451
v 21.080197 5.647059 2.162341
v 21.935002 5.647059 1.180171
v 22.716645 5.647059 0.138833
v 24.011279 5.647059 0.000000
v 0.000000 7.058824 0.000000
v 1.143128 7.058824 0.655756
v 1.833708 7.058824 1.778190
v 2.660119 7.058824 2.804738
v 3.735244 7.058824 3.566884
v 4.913356 7.058824 4.157485
v 6.149169 7.058824 4.615223
v 7.420340 7.058824 4.962905
v 8.713910 7.058824 5.214766
v 10.021401 7.058824 5.379768
v 11.336614 7.058824 5.463280
v 12.654475 7.058824 5.463280
v 13.969687 7.058824 5.379768
v 15.277178 7.058824 5.214766
v 16.570749 7.058824 4.962905
v 17.841919 7.058824 4.615223
v 19.077733 7.058824 4.157485
v 20.255845 7.058824 3.566884
v 21.330969 7.058824 2.804738
v 22.157381 7.058824 1.778190
v 22.847960 7.058824 0.655756
v 23.991089 7.058824 0.000000
v 0.000000 8.470588 0.000000
v 0.704240 8.470588 1.138977
v 1.495545 8.470588 2.219283
v 2.449091 8.470588 3.159482
v 3.574917 8.470588 3.884561
v 4.787370 8.470588 4.453049
v 6.050785 8.470588 4.896905
v 7.346324 8.470588 5.235728
v 8.662589 8.470588 5.482041
v 9.991889 8.470588 5.643858
v 11.328478 8.470588 5.726035
v 12.667591 8.470588 5.726035
v 14.004181 8.470588 5.643858
v 15.333481 8.470588 5.482041
v 16.649746 8.470588 5.235728
v 17.945285 8.470588 4.896905
v 19.208700 8.470588 4.453049
v 20.421153 8.470588 3.884561
v 21.546979 8.470588 3.159482
v 22.500525 8.470588 2.219283
v 23.291829 8.470588 1.138977
v 23.996070 8.470588 -0.000000
v 0.000000 9.882353 0.000000
v 0.600980 9.882353 1.223058
v 1.247054 9.882353 2.422907
v 2.257670 9.882353 3.337075
v 3.414106 9.882353 4.057980
v 4.653388 9.882353 4.624751
v 5.942310 9.882353 5.067166
v 7.262326 9.882353 5.405699
v 8.602572 9.882353 5.652255
v 9.955613 9.882353 5.814514
v 11.315841 9.882353 5.897156
v 12.678577 9.882353 5.897156
v 14.038804 9.882353 5.814514
v 15.391846 9.882353 5.652255
v 16.732091 9.882353 5.405699
v 18.052108 9.882353 5.067166
v 19.341029 9.882353 4.624751
v 20.580311 9.882353 4.057980
v 21.736747 9.882353 3.337075
v 22.747364 9.882353 2.422907
v 23.393437 9.882353 1.223058
v 23.994417 9.882353 -0.000000
v 0.000000 11.294118 0.000000
v 0.565787 11.294118 1.253014
v 1.131573 11.294118 2.506027
v 2.170804 11.294118 3.406115
v 3.339251 11.294118 4.130607
v 4.588468 11.294118 4.704727
v 5.890328 11.294118 5.146675
v 7.222820 11.294118 5.485237
v 8.575318 11.294118 5.732030
v 9.940505 11.294118 5.894579
v 11.312833 11.294118 5.977485
v 12.687663 11.294118 5.977485
v 14.059991 11.294118 5.894579
v 15.425178 11.294118 5.732030
v 16.777676 11.294118 5.485237
v 18.110167 11.294118 5.146675
v 19.412027 11.294118 4.704727
v 20.661244 11.294118 4.130607
v 21.829692 11.294118 3.406115
v 22.868922 11.294118 2.506027
v 23.434709 11.294118 1.253014
v 24.000495 11.294118 -0.000000
v 0.000000 12.705882 0.000000
v 0.565787 12.705882 1.253014
v 1.131573 12.705882 2.506027
v 2.170804 12.705882 3.406115
v 3.339251 12.705882 4.130607
v 4.588468 12.705882 4.704727
v 5.890328 12.705882 5.146675
v 7.222820 12.705882 5.485237
v 8.575318 12.705882 5.732030
v 9.940505 12.705882 5.894579
v 11.312833 12.705882 5.977485
v 12.687663 12.705882 5.977485
v 14.059991 12.705882 5.894579
v 15.425178 12.705882 5.732030
v 16.777676 12.705882 5.485237
v 18.110167 12.705882 5.146675
v 19.412027 12.705882 4.704727
v 20.661244 12.705882 4.130607
v 21.829692 12.705882 3.406115
v 22.868922 12.705882 2.506027
v 23.434709 12.705882 1.253014
v 24.000495 12.705882 -0.000000
v 0.000000 14.117647 0.000000
v 0.600980 14.117647 1.223058
v 1.247054 14.117647 2.422907
v 2.257670 14.117647 3.337075
v 3.414106 14.117647 4.057980
v 4.653388 14.117647 4.624751
v 5.942310 14.117647 5.067166
v 7.262326 14.117647 5.405699
v 8.602572 14.117647 5.652255
v 9.955613 14.117647 5.814514
v 11.315841 14.117647 5.897156
v 12.678577 14.117647 5.897156
v 14.038804 14.117647 5.814514
v 15.391846 14.117647 5.652255
v 16.732091 14.117647 5.405699
v 18.052108 14.117647 5.067166
v 19.341029 14.117647 4.624751
v 20.580311 14.117647 4.057980
v 21.736747 14.117647 3.337075
v 22.747364 14.117647 2.422907
v 23.393437 14.117647 1.223058
v 23.994417 14.117647 -0.000000
v 0.000000 15.529412 0.000000
v 0.704240 15.529412 1.138977
v 1.495545 15.529412 2.219283
v 2.449091 15.529412 3.159482
v 3.574917 15.529412 3.884561
v 4.787370 15.529412 4.453049
v 6.050785 15.529412 4.896905
v 7.346324 15.529412 5.235728
v 8.662589 15.529412 5.482041
v 9.991889 15.529412 5.643858
v 11.328478 15.529412 5.726035
v 12.667591 15.529412 5.726035
v 14.004181 15.529412 5.643858
v 15.333481 15.529412 5.482041
v 16.649746 15.529412 5.235728
v 17.945285 15.529412 4.896905
v 19.208700 15.529412 4.453049
v 20.421153 15.529412 3.884561
v 21.546979 15.529412 3.159482
v 22.500525 15.529412 2.219283
v 23.291829 15.529412 1.138977
v 23.996070 15.529412 -0.000000
v 0.000000 16.941176 0.000000
v 1.143128 16.941176 0.655756
v 1.833708 16.941176 1.778190
v 2.660119 16.941176 2.804738
v 3.735244 16.941176 3.566884
v 4.913356 16.941176 4.157485
v 6.149169 16.941176 4.615223
v 7.420340 16.941176 4.962905
v 8.713910 16.941176 5.214766
v 10.021401 16.941176 5.379768
v 11.336614 16.941176 5.463280
v 12.654475 16.941176 5.463280
v 13.969687 16.941176 5.379768
v 15.277178 16.941176 5.214766
v 16.570749 16.941176 4.962905
v 17.841919 16.941176 4.615223
v 19.077733 16.941176 4.157485
v 20.255845 16.941176 3.566884
v 21.330969 16.941176 2.804738
v 22.157381 16.941176 1.778190
v 22.847960 16.941176 0.655756
v 23.991089 16.941176 0.000000
v 0.000000 18.352941 0.000000
v 1.294634 18.352941 0.138833
v 2.076277 18.352941 1.180171
v 2.931082 18.352941 2.162341
v 3.908610 18.352941 3.022451
v 5.038260 18.352941 3.669941
v 6.242948 18.352941 4.163981
v 7.490879 18.352941 4.535493
v 8.765196 18.352941 4.802825
v 10.055527 18.352941 4.977170
v 11.354611 18.352941 5.065094
v 12.656668 18.352941 5.065094
v 13.955752 18.352941 4.977170
v 15.246083 18.352941 4.802825
v 16.520400 18.352941 4.535493
v 17.768330 18.352941 4.163981
v 18.973019 18.352941 3.669941
v 20.102668 18.352941 3.022451
v 21.080197 18.352941 2.162341
v 21.935002 18.352941 1.180171
v 22.716645 18.352941 0.138833
v 24.011279 18.352941 -0.000000
v 0.000000 19.764706 0.000000
v 1.282756 19.764706 0.000000
v 2.537822 19.764706 0.265091
v 3.283411 19.764706 1.308912
v 4.168828 19.764706 2.237083
v 5.201627 19.764706 2.997865
v 6.355278 19.764706 3.558714
v 7.569529 19.764706 3.972308
v 8.818149 19.764706 4.266267
v 10.086731 19.764706 4.456439
v 11.365939 19.764706 4.551774
v 12.648696 19.764706 4.551774
v 13.927905 19.764706 4.456439
v 15.196486 19.764706 4.266267
v 16.445106 19.764706 3.972308
v 17.659357 19.764706 3.558714
v 18.813009 19.764706 2.997865
v 19.845807 19.764706 2.237083
v 20.731225 19.764706 1.308912
v 21.476813 19.764706 0.265091
v 22.731879 19.764706 0.000000
v 24.014635 19.764706 0.000000
v 0.000000 21.176471 0.000000
v 1.250313 21.176471 0.000000
v 2.500627 21.176471 0.000000
v 3.725670 21.176471 0.250103
v 4.635832 21.176471 1.107359
v 5.506301 21.176471 2.004893
v 6.547023 21.176471 2.697844
v 7.697871 21.176471 3.186551
v 8.901431 21.176471 3.525262
v 10.133005 21.176471 3.740924
v 11.378749 21.176471 3.847709
v 12.629063 21.176471 3.847709
v 13.874808 21.176471 3.740924
v 15.106381 21.176471 3.525262
v 16.309942 21.176471 3.186551
v 17.460789 21.176471 2.697844
v 18.501511 21.176471 2.004893
v 19.371980 21.176471 1.107359
v 20.282142 21.176471 0.250103
v 21.507185 21.176471 -0.000000
v 22.757499 21.176471 -0.000000
v 24.007812 21.176471 -0.000000
v 0.000000 22.588235 0.000000
v 1.217276 22.588235 0.000000
v 2.434552 22.588235 0.000000
v 3.651827 22.588235 0.000000
v 4.869103 22.588235 0.000000
v 6.044260 22.588235 0.317439
v 6.897417 22.588235 1.185703
v 7.883643 22.588235 1.899228
v 9.002109 22.588235 2.379639
v 10.184319 22.588235 2.669709
v 11.393590 22.588235 2.809075
v 12.610866 22.588235 2.809075
v 13.820137 22.588235 2.669709
v 15.002347 22.588235 2.379639
v 16.120813 22.588235 1.899228
v 17.107039 22.588235 1.185703
v 17.960197 22.588235 0.317439
v 19.135353 22.588235 -0.000000
v 20.352629 22.588235 -0.000000
v 21.569905 22.588235 -0.000000
v 22.787180 22.588235 0.000000
v 24.004456 22.588235 0.000000
v 0.000000 24.000000 0.000000
v 1.142857 24.000000 0.000000
v 2.285714 24.000000 0.000000
v 3.428571 24.000000 0.000000
v 4.571429 24.000000 0.000000
v 5.714286 24.000000 0.000000
v 6.857143 24.000000 0.000000
v 8.000000 24.000000 0.000000
v 9.142857 24.000000 0.000000
v 10.285714 24.000000 0.000000
v 11.428571 24.000000 0.000000
v 12.571429 24.000000 0.000000
v 13.714286 24.000000 0.000000
v 14.857143 24.000000 0.000000
v 16.000000 24.000000 0.000000
v 17.142857 24.000000 0.000000
v 18.285714 24.000000 0.000000
v 19.428571 24.000000 0.000000
v 20.571429 24.000000 0.000000
v 21.714286 24.000000 0.000000
v 22.857143 24.000000 0.000000
v 24.000000 24.000000 0.000000
f 1 2 24
f 1 24 23
f 2 3 25
f 2 25 24
f 3 4 26
f 3 26 25
f 4 5 27
f 4 27 26
f 5 6 28
f 5 28 27
f 6 7 29
f 6 29 28
f 7 8 30
f 7 30 29
f 8 9 31
f 8 31 30
f 9 10 32
f 9 32 31
f 10 11 33
f 10 33 32
f 11 12 34
f 11 34 33
f 12 13 35
f 12 35 34
f 13 14 36
f 13 36 35
f 14 15 37
f 14 37 36
f 15 16 38
f 15 38 37
f 16 17 39
f 16 39 38
f 17 18 40
f 17 40 39
f 18 19 41
f 18 41 40
f 19 20 42
f 19 42 41
f 20 21 43
f 20 43 42
f 21 22 44
f 21 44 43
f 23 24 46
f 23 46 45
f 24 25 47
f 24 47 46
f 25 26 48
f 25 48 47
f 26 27 49
f 26 49 48
f 27 28 50
f 27 50 49
f 28 29 51
f 28 51 50
f 29 30 52
f 29 52 51
f 30 31 53
f 30 53 52
f 31 32 54
f 31 54 53
f 32 33 55
f 32 55 54
f 33 34 56
f 33 56 55
f 34 35 57
f 34 57 56
f 35 36 58
f 35 58 57
f 36 37 59
f 36 59 58
f 37 38 60
f 37 60 59
f 38 39 61
f 38 61 60
f 39 40 62
f 39 62 61
f 40 41 63
f 40 63 62
f 41 42 64
f 41 64 63
f 42 43 65
f 42 65 64
f 43 44 66
f 43 66 65
f 45 46 68
f 45 68 67
f 46 47 69
f 46 69 68
f 47 48 70
f 47 70 69
f 48 49 71
f 48 71 70
f 49 50 72
f 49 72 71
f 50 51 73
f 50 73 72
f 51 52 74
f 51 74 73
f 52 53 75
f 52 75 74
f 53 54 76
f 53 76 75
f 54 55 77
f 54 77 76
f 55 56 78
f 55 78 77
f 56 57 79
f 56 79 78
f 57 58 80
f 57 80 79
f 58 59 81
f 58 81 80
f 59 60 82
f 59 82 81
f 60 61 83
f 60 83 82
f 61 62 84
f 61 84 83
f 62 63 85
f 62 85 84
f 63 64 86
f 63 86 85
f 64 65 87
f 64 87 86
f 65 66 88
f 65 88 87
f 67 68 90
f 67 90 89
f 68 69 91
f 68 91 90
f 69 70 92
f 69 92 91
f 70 71 93
f 70 93 92
f 71 72 94
f 71 94 93
f 72 73 95
f 72 95 94
f 73 74 96
f 73 96 95
f 74 75 97
f 74 97 96
f 75 76 98
f 75 98 97
f 76 77 99
f 76 99 98
f 77 78 100
f 77 100 99
f 78 79 101
f 78 101 100
f 79 80 102
f 79 102 101
f 80 81 103
f 80 103 102
f 81 82 104
f 81 104 103
f 82 83 105
f 82 105 104
f 83 84 106
f 83 106 105
f 84 85 107
f 84 107 106
f 85 86 108
f 85 108 107
f 86 87 109
f 86 109 108
f 87 88 110
f 87 110 109
f 89 90 112
f 89 112 111
f 90 91 113
f 90 113 112
f 91 92 114
f 91 114 113
f 92 93 115
f 92 115 114
f 93 94 116
f 93 116 115
f 94 95 117
f 94 117 116
f 95 96 118
f 95 118 117
f 96 97 119
f 96 119 118
f 97 98 120
f 97 120 119
f 98 99 121
f 98 121 120
f 99 100 122
f 99 122 121
f 100 101 123
f 100 123 122
f 101 102 124
f 101 124 123
f 102 103 125
f 102 125 124
f 103 104 126
f 103 126 125
f 104 105 127
f 104 127 126
f 105 106 128
f 105 128 127
f 106 107 129
f 106 129 128
f 107 108 130
f 107 130 129
f 108 109 131
f 108 131 130
f 109 110 132
f 109 132 131
f 111 112 134
f 111 134 133
f 112 113 135
f 112 135 134
f 113 114 136
f 113 136 135
f 114 115 137
f 114 137 136
f 115 116 138
f 115 138 137
f 116 117 139
f 116 139 138
f 117 118 140
f 117 140 139
f 118 119 141
f 118 141 140
f 119 120 142
f 119 142 141
f 120 121 143
f 120 143 142
f 121 122 144
f 121 144 143
f 122 123 145
f 122 145 144
f 123 124 146
f 123 146 145
f 124 125 147
f 124 147 146
f 125 126 148
f 125 148 147
f 126 127 149
f 126 149 148
f 127 128 150
f 127 150 149
f 128 129 151
f 128 151 150
f 129 130 152
f 129 152 151
f 130 131 153
f 130 153 152
f 131 132 154
f 131 154 153
f 133 134 156
f 133 156 155
f 134 135 157
f 134 157 156
f 135 136 158
f 135 158 157
f 136 137 159
f 136 159 158
f 137 138 160
f 137 160 159
f 138 139 161
f 138 161 160
f 139 140 162
f 139 162 161
f 140 141 163
f 140 163 162
f 141 142 164
f 141 164 163
f 142 143 165
f 142 165 164
f 143 144 166
f 143 166 165
f 144 145 167
f 144 167 166
f 145 146 168
f 145 168 167
f 146 147 169
f 146 169 168
f 147 148 170
f 147 170 169
f 148 149 171
f 148 171 170
f 149 150 172
f 149 172 171
f 150 151 173
f 150 173 172
f 151 152 174
f 151 174 173
f 152 153 175
f 152 175 174
f 153 154 176
f 153 176 175
f 155 156 178
f 155 178 177
f 156 157 179
f 156 179 178
f 157 158 180
f 157 180 179
f 158 159 181
f 158 181 180
f 159 160 182
f 159 182 181
f 160 161 183
f 160 183 182
f 161 162 184
f 161 184 183
f 162 163 185
f 162 185 184
f 163 164 186
f 163 186 185
f 164 165 187
f 164 187 186
f 165 166 188
f 165 188 187
f 166 167 189
f 166 189 188
f 167 168 190
f 167 190 189
f 168 169 191
f 168 191 190
f 169 170 192
f 169 192 191
f 170 171 193
f 170 193 192
f 171 172 194
f 171 194 193
f 172 173 195
f 172 195 194
f 173 174 196
f 173 196 195
f 174 175 197
f 174 197 196
f 175 176 198
f 175 198 197
f 177 178 200
f 177 200 199
f 178 179 201
f 178 201 200
f 179 180 202
f 179 202 201
f 180 181 203
f 180 203 202
f 181 182 204
f 181 204 203
f 182 183 205
f 182 205 204
f 183 184 206
f 183 206 205
f 184 185 207
f 184 207 206
f 185 186 208
f 185 208 207
f 186 187 209
f 186 209 208
f 187 188 210
f 187 210 209
f 188 189 211
f 188 211 210
f 189 190 212
f 189 212 211
f 190 191 213
f 190 213 212
f 191 192 214
f 191 214 213
f 192 193 215
f 192 215 214
f 193 194 216
f 193 216 215
f 194 195 217
f 194 217 216
f 195 196 218
f 195 218 217
f 196 197 219
f 196 219 218
f 197 198 220
f 197 220 219
f 199 200 222
f 199 222 221
f 200 201 223
f 200 223 222
f 201 202 224
f 201 224 223
f 202 203 225
f 202 225 224
f 203 204 226
f 203 226 225
f 204 205 227
f 204 227 226
f 205 206 228
f 205 228 227
f 206 207 229
f 206 229 228
f 207 208 230
f 207 230 229
f 208 209 231
f 208 231 230
f 209 210 232
f 209 232 231
f 210 211 233
f 210 233 232
f 211 212 234
f 211 234 233
f 212 213 235
f 212 235 234
f 213 214 236
f 213 236 235
f 214 215 237
f 214 237 236
f 215 216 238
f 215 238 237
f 216 217 239
f 216 239 238
f 217 218 240
f 217 240 239
f 218 219 241
f 218 241 240
f 219 220 242
f 219 242 241
f 221 222 244
f 221 244 243
f 222 223 245
f 222 245 244
f 223 224 246
f 223 246 245
f 224 225 247
f 224 247 246
f 225 226 248
f 225 248 247
f 226 227 249
f 226 249 248
f 227 228 250
f 227 250 249
f 228 229 251
f 228 251 250
f 229 230 252
f 229 252 251
f 230 231 253
f 230 253 252
f 231 232 254
f 231 254 253
f 232 233 255
f 232 255 254
f 233 234 256
f 233 256 255
f 234 235 257
f 234 257 256
f 235 236 258
f 235 258 257
f 236 237 259
f 236 259 258
f 237 238 260
f 237 260 259
f 238 239 261
f 238 261 260
f 239 240 262
f 239 262 261
f 240 241 263
f 240 263 262
f 241 242 264
f 241 264 263
f 243 244 266
f 243 266 265
f 244 245 267
f 244 267 266
f 245 246 268
f 245 268 267
f 246 247 269
f 246 269 268
f 247 248 270
f 247 270 269
f 248 249 271
f 248 271 270
f 249 250 272
f 249 272 271
f 250 251 273
f 250 273 272
f 251 252 274
f 251 274 273
f 252 253 275
f 252 275 274
f 253 254 276
f 253 276 275
f 254 255 277
f 254 277 276
f 255 256 278
f 255 278 277
f 256 257 279
f 256 279 278
f 257 258 280
f 257 280 279
f 258 259 281
f 258 281 280
f 259 260 282
f 259 282 281
f 260 261 283
f 260 283 282
f 261 262 284
f 261 284 283
f 262 263 285
f 262 285 284
f 263 264 286
f 263 286 285
f 265 266 288
f 265 288 287
f 266 267 289
f 266 289 288
f 267 268 290
f 267 290 289
f 268 269 291
f 268 291 290
f 269 270 292
f 269 292 291
f 270 271 293
f 270 293 292
f 271 272 294
f 271 294 293
f 272 273 295
f 272 295 294
f 273 274 296
f 273 296 295
f 274 275 297
f 274 297 296
f 275 276 298
f 275 298 297
f 276 277 299
f 276 299 298
f 277 278 300
f 277 300 299
f 278 279 301
f 278 301 300
f 279 280 302
f 279 302 301
f 280 281 303
f 280 303 302
f 281 282 304
f 281 304 303
f 282 283 305
f 282 305 304
f 283 284 306
f 283 306 305
f 284 285 307
f 284 307 306
f 285 286 308
f 285 308 307
f 287 288 310
f 287 310 309
f 288 289 311
f 288 311 310
f 289 290 312
f 289 312 311
f 290 291 313
f 290 313 312
f 291 292 314
f 291 314 313
f 292 293 315
f 292 315 314
f 293 294 316
f 293 316 315
f 294 295 317
f 294 317 316
f 295 296 318
f 295 318 317
f 296 297 319
f 296 319 318
f 297 298 320
f 297 320 319
f 298 299 321
f 298 321 320
f 299 300 322
f 299 322 321
f 300 301 323
f 300 323 322
f 301 302 324
f 301 324 323
f 302 303 325
f 302 325 324
f 303 304 326
f 303 326 325
f 304 305 327
f 304 327 326
f 305 306 328
f 305 328 327
f 306 307 329
f 306 329 328
f 307 308 330
f 307 330 329
f 309 310 332
f 309 332 331
f 310 311 333
f 310 333 332
f 311 312 334
f 311 334 333
f 312 313 335
f 312 335 334
f 313 314 336
f 313 336 335
f 314 315 337
f 314 337 336
f 315 316 338
f 315 338 337
f 316 317 339
f 316 339 338
f 317 318 340
f 317 340 339
f 318 319 341
f 318 341 340
f 319 320 342
f 319 342 341
f 320 321 343
f 320 343 342
f 321 322 344
f 321 344 343
f 322 323 345
f 322 345 344
f 323 324 346
f 323 346 345
f 324 325 347
f 324 347 346
f 325 326 348
f 325 348 347
f 326 327 349
f 326 349 348
f 327 328 350
f 327 350 349
f 328 329 351
f 328 351 350
f 329 330 352
f 329 352 351
f 331 332 354
f 331 354 353
f 332 333 355
f 332 355 354
f 333 334 356
f 333 356 355
f 334 335 357
f 334 357 356
f 335 336 358
f 335 358 357
f 336 337 359
f 336 359 358
f 337 338 360
f 337 360 359
f 338 339 361
f 338 361 360
f 339 340 362
f 339 362 361
f 340 341 363
f 340 363 362
f 341 342 364
f 341 364 363
f 342 343 365
f 342 365 364
f 343 344 366
f 343 366 365
f 344 345 367
f 344 367 366
f 345 346 368
f 345 368 367
f 346 347 369
f 346 369 368
f 347 348 370
f 347 370 369
f 348 349 371
f 348 371 370
f 349 350 372
f 349 372 371
f 350 351 373
f 350 373 372
f 351 352 374
f 351 374 373
f 353 354 376
f 353 376 375
f 354 355 377
f 354 377 376
f 355 356 378
f 355 378 377
f 356 357 379
f 356 379 378
f 357 358 380
f 357 380 379
f 358 359 381
f 358 381 380
f 359 360 382
f 359 382 381
f 360 361 383
f 360 383 382
f 361 362 384
f 361 384 383
f 362 363 385
f 362 385 384
f 363 364 386
f 363 386 385
f 364 365 387
f 364 387 386
f 365 366 388
f 365 388 387
f 366 367 389
f 366 389 388
f 367 368 390
f 367 390 389
f 368 369 391
f 368 391 390
f 369 370 392
f 369 392 391
f 370 371 393
f 370 393 392
f 371 372 394
f 371 394 393
f 372 373 395
f 372 395 394
f 373 374 396
f 373 396 395
