0
SECTION
2
ENTITIES
0
LINE
8
cut
10
10.0000
20
161.1811
30
0.0
11
41.4961
21
161.1811
31
0.0
0
LINE
8
cut
10
41.4961
20
161.1811
30
0.0
11
72.9921
21
161.1811
31
0.0
0
LINE
8
cut
10
72.9921
20
161.1811
30
0.0
11
104.4882
21
161.1811
31
0.0
0
LINE
8
cut
10
104.4882
20
161.1811
30
0.0
11
135.9843
21
161.1811
31
0.0
0
LINE
8
cut
10
135.9843
20
161.1811
30
0.0
11
167.4803
21
161.1811
31
0.0
0
LINE
8
cut
10
167.4803
20
161.1811
30
0.0
11
198.9764
21
161.1811
31
0.0
0
LINE
8
valley
10
21.0236
20
135.9843
30
0.0
11
52.5197
21
135.9843
31
0.0
0
LINE
8
valley
10
52.5197
20
135.9843
30
0.0
11
84.0157
21
135.9843
31
0.0
0
LINE
8
valley
10
84.0157
20
135.9843
30
0.0
11
115.5118
21
135.9843
31
0.0
0
LINE
8
valley
10
115.5118
20
135.9843
30
0.0
11
147.0079
21
135.9843
31
0.0
0
LINE
8
valley
10
147.0079
20
135.9843
30
0.0
11
178.5039
21
135.9843
31
0.0
0
LINE
8
valley
10
178.5039
20
135.9843
30
0.0
11
210.0000
21
135.9843
31
0.0
0
LINE
8
mountain
10
10.0000
20
110.7874
30
0.0
11
41.4961
21
110.7874
31
0.0
0
LINE
8
mountain
10
41.4961
20
110.7874
30
0.0
11
72.9921
21
110.7874
31
0.0
0
LINE
8
mountain
10
72.9921
20
110.7874
30
0.0
11
104.4882
21
110.7874
31
0.0
0
LINE
8
mountain
10
104.4882
20
110.7874
30
0.0
11
135.9843
21
110.7874
31
0.0
0
LINE
8
mountain
10
135.9843
20
110.7874
30
0.0
11
167.4803
21
110.7874
31
0.0
0
LINE
8
mountain
10
167.4803
20
110.7874
30
0.0
11
198.9764
21
110.7874
31
0.0
0
LINE
8
valley
10
21.0236
20
85.5906
30
0.0
11
52.5197
21
85.5906
31
0.0
0
LINE
8
valley
10
52.5197
20
85.5906
30
0.0
11
84.0157
21
85.5906
31
0.0
0
LINE
8
valley
10
84.0157
20
85.5906
30
0.0
11
115.5118
21
85.5906
31
0.0
0
LINE
8
valley
10
115.5118
20
85.5906
30
0.0
11
147.0079
21
85.5906
31
0.0
0
LINE
8
valley
10
147.0079
20
85.5906
30
0.0
11
178.5039
21
85.5906
31
0.0
0
LINE
8
valley
10
178.5039
20
85.5906
30
0.0
11
210.0000
21
85.5906
31
0.0
0
LINE
8
mountain
10
10.0000
20
60.3937
30
0.0
11
41.4961
21
60.3937
31
0.0
0
LINE
8
mountain
10
41.4961
20
60.3937
30
0.0
11
72.9921
21
60.3937
31
0.0
0
LINE
8
mountain
10
72.9921
20
60.3937
30
0.0
11
104.4882
21
60.3937
31
0.0
0
LINE
8
mountain
10
104.4882
20
60.3937
30
0.0
11
135.9843
21
60.3937
31
0.0
0
LINE
8
mountain
10
135.9843
20
60.3937
30
0.0
11
167.4803
21
60.3937
31
0.0
0
LINE
8
mountain
10
167.4803
20
60.3937
30
0.0
11
198.9764
21
60.3937
31
0.0
0
LINE
8
valley
10
21.0236
20
35.1969
30
0.0
11
52.5197
21
35.1969
31
0.0
0
LINE
8
valley
10
52.5197
20
35.1969
30
0.0
11
84.0157
21
35.1969
31
0.0
0
LINE
8
valley
10
84.0157
20
35.1969
30
0.0
11
115.5118
21
35.1969
31
0.0
0
LINE
8
valley
10
115.5118
20
35.1969
30
0.0
11
147.0079
21
35.1969
31
0.0
0
LINE
8
valley
10
147.0079
20
35.1969
30
0.0
11
178.5039
21
35.1969
31
0.0
0
LINE
8
valley
10
178.5039
20
35.1969
30
0.0
11
210.0000
21
35.1969
31
0.0
0
LINE
8
cut
10
10.0000
20
10.0000
30
0.0
11
41.4961
21
10.0000
31
0.0
0
LINE
8
cut
10
41.4961
20
10.0000
30
0.0
11
72.9921
21
10.0000
31
0.0
0
LINE
8
cut
10
72.9921
20
10.0000
30
0.0
11
104.4882
21
10.0000
31
0.0
0
LINE
8
cut
10
104.4882
20
10.0000
30
0.0
11
135.9843
21
10.0000
31
0.0
0
LINE
8
cut
10
135.9843
20
10.0000
30
0.0
11
167.4803
21
10.0000
31
0.0
0
LINE
8
cut
10
167.4803
20
10.0000
30
0.0
11
198.9764
21
10.0000
31
0.0
0
LINE
8
cut
10
10.0000
20
161.1811
30
0.0
11
21.0236
21
135.9843
31
0.0
0
LINE
8
valley
10
41.4961
20
161.1811
30
0.0
11
52.5197
21
135.9843
31
0.0
0
LINE
8
valley
10
72.9921
20
161.1811
30
0.0
11
84.0157
21
135.9843
31
0.0
0
LINE
8
valley
10
104.4882
20
161.1811
30
0.0
11
115.5118
21
135.9843
31
0.0
0
LINE
8
valley
10
135.9843
20
161.1811
30
0.0
11
147.0079
21
135.9843
31
0.0
0
LINE
8
valley
10
167.4803
20
161.1811
30
0.0
11
178.5039
21
135.9843
31
0.0
0
LINE
8
cut
10
198.9764
20
161.1811
30
0.0
11
210.0000
21
135.9843
31
0.0
0
LINE
8
cut
10
21.0236
20
135.9843
30
0.0
11
10.0000
21
110.7874
31
0.0
0
LINE
8
mountain
10
52.5197
20
135.9843
30
0.0
11
41.4961
21
110.7874
31
0.0
0
LINE
8
mountain
10
84.0157
20
135.9843
30
0.0
11
72.9921
21
110.7874
31
0.0
0
LINE
8
mountain
10
115.5118
20
135.9843
30
0.0
11
104.4882
21
110.7874
31
0.0
0
LINE
8
mountain
10
147.0079
20
135.9843
30
0.0
11
135.9843
21
110.7874
31
0.0
0
LINE
8
mountain
10
178.5039
20
135.9843
30
0.0
11
167.4803
21
110.7874
31
0.0
0
LINE
8
cut
10
210.0000
20
135.9843
30
0.0
11
198.9764
21
110.7874
31
0.0
0
LINE
8
cut
10
10.0000
20
110.7874
30
0.0
11
21.0236
21
85.5906
31
0.0
0
LINE
8
valley
10
41.4961
20
110.7874
30
0.0
11
52.5197
21
85.5906
31
0.0
0
LINE
8
valley
10
72.9921
20
110.7874
30
0.0
11
84.0157
21
85.5906
31
0.0
0
LINE
8
valley
10
104.4882
20
110.7874
30
0.0
11
115.5118
21
85.5906
31
0.0
0
LINE
8
valley
10
135.9843
20
110.7874
30
0.0
11
147.0079
21
85.5906
31
0.0
0
LINE
8
valley
10
167.4803
20
110.7874
30
0.0
11
178.5039
21
85.5906
31
0.0
0
LINE
8
cut
10
198.9764
20
110.7874
30
0.0
11
210.0000
21
85.5906
31
0.0
0
LINE
8
cut
10
21.0236
20
85.5906
30
0.0
11
10.0000
21
60.3937
31
0.0
0
LINE
8
mountain
10
52.5197
20
85.5906
30
0.0
11
41.4961
21
60.3937
31
0.0
0
LINE
8
mountain
10
84.0157
20
85.5906
30
0.0
11
72.9921
21
60.3937
31
0.0
0
LINE
8
mountain
10
115.5118
20
85.5906
30
0.0
11
104.4882
21
60.3937
31
0.0
0
LINE
8
mountain
10
147.0079
20
85.5906
30
0.0
11
135.9843
21
60.3937
31
0.0
0
LINE
8
mountain
10
178.5039
20
85.5906
30
0.0
11
167.4803
21
60.3937
31
0.0
0
LINE
8
cut
10
210.0000
20
85.5906
30
0.0
11
198.9764
21
60.3937
31
0.0
0
LINE
8
cut
10
10.0000
20
60.3937
30
0.0
11
21.0236
21
35.1969
31
0.0
0
LINE
8
valley
10
41.4961
20
60.3937
30
0.0
11
52.5197
21
35.1969
31
0.0
0
LINE
8
valley
10
72.9921
20
60.3937
30
0.0
11
84.0157
21
35.1969
31
0.0
0
LINE
8
valley
10
104.4882
20
60.3937
30
0.0
11
115.5118
21
35.1969
31
0.0
0
LINE
8
valley
10
135.9843
20
60.3937
30
0.0
11
147.0079
21
35.1969
31
0.0
0
LINE
8
valley
10
167.4803
20
60.3937
30
0.0
11
178.5039
21
35.1969
31
0.0
0
LINE
8
cut
10
198.9764
20
60.3937
30
0.0
11
210.0000
21
35.1969
31
0.0
0
LINE
8
cut
10
21.0236
20
35.1969
30
0.0
11
10.0000
21
10.0000
31
0.0
0
LINE
8
mountain
10
52.5197
20
35.1969
30
0.0
11
41.4961
21
10.0000
31
0.0
0
LINE
8
mountain
10
84.0157
20
35.1969
30
0.0
11
72.9921
21
10.0000
31
0.0
0
LINE
8
mountain
10
115.5118
20
35.1969
30
0.0
11
104.4882
21
10.0000
31
0.0
0
LINE
8
mountain
10
147.0079
20
35.1969
30
0.0
11
135.9843
21
10.0000
31
0.0
0
LINE
8
mountain
10
178.5039
20
35.1969
30
0.0
11
167.4803
21
10.0000
31
0.0
0
LINE
8
cut
10
210.0000
20
35.1969
30
0.0
11
198.9764
21
10.0000
31
0.0
0
ENDSEC
0
EOF
