solid foldforge
facet normal -0.064255 -0.570387 0.818859
outer loop
vertex 0.000000 0.000000 2.420813
vertex 1.949975 0.000000 2.573825
vertex 1.203252 1.792791 3.764021
endloop
endfacet
facet normal -0.838573 0.176719 0.515330
outer loop
vertex 0.000000 0.000000 2.420813
vertex 1.203252 1.792791 3.764021
vertex 0.000000 1.792791 1.806024
endloop
endfacet
facet normal 0.391053 -0.806180 0.444018
outer loop
vertex 1.949975 0.000000 2.573825
vertex 3.417828 0.000000 1.281067
vertex 3.343275 1.792791 4.601800
endloop
endfacet
facet normal -0.288833 -0.610110 0.737795
outer loop
vertex 1.949975 0.000000 2.573825
vertex 3.343275 1.792791 4.601800
vertex 1.203252 1.792791 3.764021
endloop
endfacet
facet normal 0.312021 -0.795223 0.519868
outer loop
vertex 3.417828 0.000000 1.281067
vertex 5.094914 0.000000 0.274491
vertex 5.038868 1.792791 3.050499
endloop
endfacet
facet normal 0.404000 -0.801120 0.441577
outer loop
vertex 3.417828 0.000000 1.281067
vertex 5.038868 1.792791 3.050499
vertex 3.343275 1.792791 4.601800
endloop
endfacet
facet normal 0.549770 -0.696602 0.460976
outer loop
vertex 5.094914 0.000000 0.274491
vertex 6.515471 1.792791 1.289473
vertex 5.038868 1.792791 3.050499
endloop
endfacet
facet normal -0.041277 -0.811073 0.583487
outer loop
vertex 16.812780 0.000000 0.006867
vertex 18.763873 0.000000 0.144891
vertex 19.051455 1.792791 2.657295
endloop
endfacet
facet normal -0.731485 -0.086490 0.676349
outer loop
vertex 16.812780 0.000000 0.006867
vertex 19.051455 1.792791 2.657295
vertex 17.491244 1.792791 0.969896
endloop
endfacet
facet normal -0.233376 -0.847463 0.476804
outer loop
vertex 18.763873 0.000000 0.144891
vertex 20.520690 0.000000 1.004780
vertex 20.686414 1.792791 4.272374
endloop
endfacet
facet normal -0.526468 -0.662419 0.532948
outer loop
vertex 18.763873 0.000000 0.144891
vertex 20.686414 1.792791 4.272374
vertex 19.051455 1.792791 2.657295
endloop
endfacet
facet normal -0.584999 -0.345125 0.733938
outer loop
vertex 20.520690 0.000000 1.004780
vertex 22.050230 0.000000 2.223928
vertex 22.928288 1.792791 3.766835
endloop
endfacet
facet normal 0.106905 -0.873965 0.474086
outer loop
vertex 20.520690 0.000000 1.004780
vertex 22.928288 1.792791 3.766835
vertex 20.686414 1.792791 4.272374
endloop
endfacet
facet normal 0.020687 0.196690 0.980247
outer loop
vertex 22.050230 0.000000 2.223928
vertex 24.005764 0.000000 2.182659
vertex 24.149356 1.792791 1.819898
endloop
endfacet
facet normal 0.638450 -0.657302 0.400419
outer loop
vertex 22.050230 0.000000 2.223928
vertex 24.149356 1.792791 1.819898
vertex 22.928288 1.792791 3.766835
endloop
endfacet
facet normal -0.810561 0.308014 0.498115
outer loop
vertex 0.000000 1.792791 1.806024
vertex 1.203252 1.792791 3.764021
vertex 1.180716 3.585582 2.618761
endloop
endfacet
facet normal -0.825965 0.340200 0.449495
outer loop
vertex 0.000000 1.792791 1.806024
vertex 1.180716 3.585582 2.618761
vertex 0.000000 3.585582 0.449149
endloop
endfacet
facet normal -0.363412 -0.078663 0.928301
outer loop
vertex 1.203252 1.792791 3.764021
vertex 3.343275 1.792791 4.601800
vertex 2.753967 3.585582 4.523015
endloop
endfacet
facet normal -0.716482 0.369134 0.591941
outer loop
vertex 1.203252 1.792791 3.764021
vertex 2.753967 3.585582 4.523015
vertex 1.180716 3.585582 2.618761
endloop
endfacet
facet normal 0.553523 -0.572344 0.605008
outer loop
vertex 3.343275 1.792791 4.601800
vertex 5.038868 1.792791 3.050499
vertex 5.223444 3.585582 4.577629
endloop
endfacet
facet normal -0.022095 0.036642 0.999084
outer loop
vertex 3.343275 1.792791 4.601800
vertex 5.223444 3.585582 4.577629
vertex 2.753967 3.585582 4.523015
endloop
endfacet
facet normal 0.633684 -0.562250 0.531337
outer loop
vertex 5.038868 1.792791 3.050499
vertex 6.515471 1.792791 1.289473
vertex 6.883070 3.585582 2.748162
endloop
endfacet
facet normal 0.621396 -0.544151 0.563708
outer loop
vertex 5.038868 1.792791 3.050499
vertex 6.883070 3.585582 2.748162
vertex 5.223444 3.585582 4.577629
endloop
endfacet
facet normal 0.622585 -0.566728 0.539637
outer loop
vertex 6.515471 1.792791 1.289473
vertex 8.500911 3.585582 0.881643
vertex 6.883070 3.585582 2.748162
endloop
endfacet
facet normal -0.303928 -0.623185 0.720603
outer loop
vertex 15.373716 1.792791 0.076788
vertex 17.491244 1.792791 0.969896
vertex 17.322801 3.585582 2.449276
endloop
endfacet
facet normal -0.726849 -0.107463 0.678338
outer loop
vertex 15.373716 1.792791 0.076788
vertex 17.322801 3.585582 2.449276
vertex 15.637491 3.585582 0.643443
endloop
endfacet
facet normal -0.605358 -0.565903 0.559729
outer loop
vertex 17.491244 1.792791 0.969896
vertex 19.051455 1.792791 2.657295
vertex 18.923004 3.585582 4.330939
endloop
endfacet
facet normal -0.651447 -0.518361 0.554003
outer loop
vertex 17.491244 1.792791 0.969896
vertex 18.923004 3.585582 4.330939
vertex 17.322801 3.585582 2.449276
endloop
endfacet
facet normal -0.692881 0.167156 0.701409
outer loop
vertex 19.051455 1.792791 2.657295
vertex 20.686414 1.792791 4.272374
vertex 21.384652 3.585582 4.534875
endloop
endfacet
facet normal -0.060269 -0.683463 0.727493
outer loop
vertex 19.051455 1.792791 2.657295
vertex 21.384652 3.585582 4.534875
vertex 18.923004 3.585582 4.330939
endloop
endfacet
facet normal 0.191278 0.493851 0.848248
outer loop
vertex 20.686414 1.792791 4.272374
vertex 22.928288 1.792791 3.766835
vertex 23.036755 3.585582 2.698612
endloop
endfacet
facet normal 0.693186 -0.361293 0.623667
outer loop
vertex 20.686414 1.792791 4.272374
vertex 23.036755 3.585582 2.698612
vertex 21.384652 3.585582 4.534875
endloop
endfacet
facet normal 0.800221 0.328277 0.501877
outer loop
vertex 22.928288 1.792791 3.766835
vertex 24.149356 1.792791 1.819898
vertex 24.221971 3.585582 0.531456
endloop
endfacet
facet normal 0.854508 0.226756 0.467330
outer loop
vertex 22.928288 1.792791 3.766835
vertex 24.221971 3.585582 0.531456
vertex 23.036755 3.585582 2.698612
endloop
endfacet
facet normal -0.832139 0.320105 0.452855
outer loop
vertex 0.000000 3.585582 0.449149
vertex 1.180716 3.585582 2.618761
vertex 1.595915 5.378372 2.114453
endloop
endfacet
facet normal -0.788929 0.148399 0.596296
outer loop
vertex 0.000000 3.585582 0.449149
vertex 1.595915 5.378372 2.114453
vertex 0.000000 5.378372 0.002981
endloop
endfacet
facet normal -0.755504 0.199033 0.624180
outer loop
vertex 1.180716 3.585582 2.618761
vertex 2.753967 3.585582 4.523015
vertex 3.058727 5.378372 4.320227
endloop
endfacet
facet normal -0.786976 0.329069 0.521902
outer loop
vertex 1.180716 3.585582 2.618761
vertex 3.058727 5.378372 4.320227
vertex 1.595915 5.378372 2.114453
endloop
endfacet
facet normal -0.018177 -0.569295 0.821932
outer loop
vertex 2.753967 3.585582 4.523015
vertex 5.223444 3.585582 4.577629
vertex 5.239725 5.378372 5.819729
endloop
endfacet
facet normal -0.556638 0.186203 0.809619
outer loop
vertex 2.753967 3.585582 4.523015
vertex 5.239725 5.378372 5.819729
vertex 3.058727 5.378372 4.320227
endloop
endfacet
facet normal 0.606630 -0.573721 0.550313
outer loop
vertex 5.223444 3.585582 4.577629
vertex 6.883070 3.585582 2.748162
vertex 7.299730 5.378372 4.157911
endloop
endfacet
facet normal 0.551325 -0.478506 0.683427
outer loop
vertex 5.223444 3.585582 4.577629
vertex 7.299730 5.378372 4.157911
vertex 5.239725 5.378372 5.819729
endloop
endfacet
facet normal 0.676375 -0.445887 0.586261
outer loop
vertex 6.883070 3.585582 2.748162
vertex 8.500911 3.585582 0.881643
vertex 8.757687 5.378372 1.948925
endloop
endfacet
facet normal 0.707067 -0.531294 0.466673
outer loop
vertex 6.883070 3.585582 2.748162
vertex 8.757687 5.378372 1.948925
vertex 7.299730 5.378372 4.157911
endloop
endfacet
facet normal 0.586041 -0.474816 0.656587
outer loop
vertex 8.500911 3.585582 0.881643
vertex 10.732289 5.378372 0.186482
vertex 8.757687 5.378372 1.948925
endloop
endfacet
facet normal -0.563413 -0.637251 0.525810
outer loop
vertex 15.637491 3.585582 0.643443
vertex 17.322801 3.585582 2.449276
vertex 16.846716 5.378372 4.111901
endloop
endfacet
facet normal -0.747105 -0.447313 0.491676
outer loop
vertex 15.637491 3.585582 0.643443
vertex 16.846716 5.378372 4.111901
vertex 15.391693 5.378372 1.900981
endloop
endfacet
facet normal -0.667587 -0.481676 0.567729
outer loop
vertex 17.322801 3.585582 2.449276
vertex 18.923004 3.585582 4.330939
vertex 18.882055 5.378372 5.803838
endloop
endfacet
facet normal -0.479200 -0.661861 0.576461
outer loop
vertex 17.322801 3.585582 2.449276
vertex 18.882055 5.378372 5.803838
vertex 16.846716 5.378372 4.111901
endloop
endfacet
facet normal -0.082359 0.070117 0.994133
outer loop
vertex 18.923004 3.585582 4.330939
vertex 21.384652 3.585582 4.534875
vertex 21.117173 5.378372 4.386268
endloop
endfacet
facet normal 0.442572 -0.563193 0.697814
outer loop
vertex 18.923004 3.585582 4.330939
vertex 21.117173 5.378372 4.386268
vertex 18.882055 5.378372 5.803838
endloop
endfacet
facet normal 0.697360 0.346455 0.627422
outer loop
vertex 21.384652 3.585582 4.534875
vertex 23.036755 3.585582 2.698612
vertex 22.600110 5.378372 2.193973
endloop
endfacet
facet normal 0.816580 0.167617 0.552360
outer loop
vertex 21.384652 3.585582 4.534875
vertex 22.600110 5.378372 2.193973
vertex 21.117173 5.378372 4.386268
endloop
endfacet
facet normal 0.861238 0.190838 0.471010
outer loop
vertex 23.036755 3.585582 2.698612
vertex 24.221971 3.585582 0.531456
vertex 24.105900 5.378372 0.017312
endloop
endfacet
facet normal 0.773670 0.339086 0.535216
outer loop
vertex 23.036755 3.585582 2.698612
vertex 24.105900 5.378372 0.017312
vertex 22.600110 5.378372 2.193973
endloop
endfacet
facet normal -0.753083 0.329959 0.569203
outer loop
vertex 0.000000 5.378372 0.002981
vertex 1.595915 5.378372 2.114453
vertex 1.996993 7.171163 1.605842
endloop
endfacet
facet normal -0.626655 0.001296 0.779296
outer loop
vertex 0.000000 5.378372 0.002981
vertex 1.996993 7.171163 1.605842
vertex 0.000000 7.171163 0.000000
endloop
endfacet
facet normal -0.803432 0.265718 0.532815
outer loop
vertex 1.595915 5.378372 2.114453
vertex 3.058727 5.378372 4.320227
vertex 3.310672 7.171163 3.806059
endloop
endfacet
facet normal -0.813514 0.319795 0.485723
outer loop
vertex 1.595915 5.378372 2.114453
vertex 3.310672 7.171163 3.806059
vertex 1.996993 7.171163 1.605842
endloop
endfacet
facet normal -0.555017 0.200706 0.807263
outer loop
vertex 3.058727 5.378372 4.320227
vertex 5.239725 5.378372 5.819729
vertex 5.303096 7.171163 5.417566
endloop
endfacet
facet normal -0.600434 0.297287 0.742361
outer loop
vertex 3.058727 5.378372 4.320227
vertex 5.303096 7.171163 5.417566
vertex 3.310672 7.171163 3.806059
endloop
endfacet
facet normal 0.551697 -0.477416 0.683889
outer loop
vertex 5.239725 5.378372 5.819729
vertex 7.299730 5.378372 4.157911
vertex 7.828516 7.171163 4.982867
endloop
endfacet
facet normal 0.165842 0.210267 0.963475
outer loop
vertex 5.239725 5.378372 5.819729
vertex 7.828516 7.171163 4.982867
vertex 5.303096 7.171163 5.417566
endloop
endfacet
facet normal 0.683869 -0.573232 0.451362
outer loop
vertex 7.299730 5.378372 4.157911
vertex 8.757687 5.378372 1.948925
vertex 9.525385 7.171163 3.062621
endloop
endfacet
facet normal 0.663273 -0.465335 0.586116
outer loop
vertex 7.299730 5.378372 4.157911
vertex 9.525385 7.171163 3.062621
vertex 7.828516 7.171163 4.982867
endloop
endfacet
facet normal 0.624949 -0.345238 0.700178
outer loop
vertex 8.757687 5.378372 1.948925
vertex 10.732289 5.378372 0.186482
vertex 10.913581 7.171163 0.908644
endloop
endfacet
facet normal 0.689756 -0.571511 0.444534
outer loop
vertex 8.757687 5.378372 1.948925
vertex 10.913581 7.171163 0.908644
vertex 9.525385 7.171163 3.062621
endloop
endfacet
facet normal -0.523493 -0.591788 0.612977
outer loop
vertex 13.379030 5.378372 0.182131
vertex 15.391693 5.378372 1.900981
vertex 14.887704 7.171163 3.201385
endloop
endfacet
facet normal -0.812238 -0.223735 0.538713
outer loop
vertex 13.379030 5.378372 0.182131
vertex 14.887704 7.171163 3.201385
vertex 13.471313 7.171163 1.065842
endloop
endfacet
facet normal -0.762560 -0.408230 0.501847
outer loop
vertex 15.391693 5.378372 1.900981
vertex 16.846716 5.378372 4.111901
vertex 16.563559 7.171163 5.139998
endloop
endfacet
facet normal -0.623535 -0.566268 0.539022
outer loop
vertex 15.391693 5.378372 1.900981
vertex 16.563559 7.171163 5.139998
vertex 14.887704 7.171163 3.201385
endloop
endfacet
facet normal -0.634363 0.123441 0.763116
outer loop
vertex 16.846716 5.378372 4.111901
vertex 18.882055 5.378372 5.803838
vertex 19.070590 7.171163 5.670564
endloop
endfacet
facet normal -0.178030 -0.510530 0.841228
outer loop
vertex 16.846716 5.378372 4.111901
vertex 19.070590 7.171163 5.670564
vertex 16.563559 7.171163 5.139998
endloop
endfacet
facet normal 0.517516 0.257595 0.815979
outer loop
vertex 18.882055 5.378372 5.803838
vertex 21.117173 5.378372 4.386268
vertex 20.948689 7.171163 3.927162
endloop
endfacet
facet normal 0.680238 -0.017061 0.732793
outer loop
vertex 18.882055 5.378372 5.803838
vertex 20.948689 7.171163 3.927162
vertex 19.070590 7.171163 5.670564
endloop
endfacet
facet normal 0.794460 0.282910 0.537397
outer loop
vertex 21.117173 5.378372 4.386268
vertex 22.600110 5.378372 2.193973
vertex 22.273203 7.171163 1.733450
endloop
endfacet
facet normal 0.837312 0.208153 0.505550
outer loop
vertex 21.117173 5.378372 4.386268
vertex 22.273203 7.171163 1.733450
vertex 20.948689 7.171163 3.927162
endloop
endfacet
facet normal 0.821405 -0.048983 0.568239
outer loop
vertex 22.600110 5.378372 2.193973
vertex 24.105900 5.378372 0.017312
vertex 24.196828 7.171163 0.040413
endloop
endfacet
facet normal 0.630464 0.298970 0.716332
outer loop
vertex 22.600110 5.378372 2.193973
vertex 24.196828 7.171163 0.040413
vertex 22.273203 7.171163 1.733450
endloop
endfacet
facet normal -0.551533 0.474750 0.685875
outer loop
vertex 0.000000 7.171163 0.000000
vertex 1.996993 7.171163 1.605842
vertex 2.201299 8.963954 0.529193
endloop
endfacet
facet normal -0.678609 0.612636 0.405176
outer loop
vertex 1.996993 7.171163 1.605842
vertex 3.310672 7.171163 3.806059
vertex 3.879805 8.963954 2.048528
endloop
endfacet
facet normal -0.594977 0.462546 0.657308
outer loop
vertex 1.996993 7.171163 1.605842
vertex 3.879805 8.963954 2.048528
vertex 2.201299 8.963954 0.529193
endloop
endfacet
facet normal -0.419161 0.745474 0.518240
outer loop
vertex 3.310672 7.171163 3.806059
vertex 5.303096 7.171163 5.417566
vertex 5.803049 8.963954 3.243055
endloop
endfacet
facet normal -0.373029 0.707203 0.600594
outer loop
vertex 3.310672 7.171163 3.806059
vertex 5.803049 8.963954 3.243055
vertex 3.879805 8.963954 2.048528
endloop
endfacet
facet normal 0.169620 -0.013321 0.985420
outer loop
vertex 5.303096 7.171163 5.417566
vertex 7.828516 7.171163 4.982867
vertex 7.032594 8.963954 5.144103
endloop
endfacet
facet normal -0.626343 0.666023 0.405102
outer loop
vertex 5.303096 7.171163 5.417566
vertex 7.032594 8.963954 5.144103
vertex 5.803049 8.963954 3.243055
endloop
endfacet
facet normal 0.646138 -0.506452 0.570975
outer loop
vertex 7.828516 7.171163 4.982867
vertex 9.525385 7.171163 3.062621
vertex 9.285871 8.963954 4.923862
endloop
endfacet
facet normal 0.097175 -0.046272 0.994191
outer loop
vertex 7.828516 7.171163 4.982867
vertex 9.285871 8.963954 4.923862
vertex 7.032594 8.963954 5.144103
endloop
endfacet
facet normal 0.650004 -0.634039 0.418914
outer loop
vertex 9.525385 7.171163 3.062621
vertex 10.913581 7.171163 0.908644
vertex 11.015848 8.963954 3.463403
endloop
endfacet
facet normal 0.526700 -0.577354 0.623899
outer loop
vertex 9.525385 7.171163 3.062621
vertex 11.015848 8.963954 3.463403
vertex 9.285871 8.963954 4.923862
endloop
endfacet
facet normal -0.036165 -0.807737 0.588432
outer loop
vertex 10.913581 7.171163 0.908644
vertex 13.471313 7.171163 1.065842
vertex 13.279275 8.963954 3.514993
endloop
endfacet
facet normal -0.013099 -0.818243 0.574723
outer loop
vertex 10.913581 7.171163 0.908644
vertex 13.279275 8.963954 3.514993
vertex 11.015848 8.963954 3.463403
endloop
endfacet
facet normal -0.767526 -0.389569 0.509058
outer loop
vertex 13.471313 7.171163 1.065842
vertex 14.887704 7.171163 3.201385
vertex 15.088478 8.963954 4.876075
endloop
endfacet
facet normal -0.393298 -0.756314 0.522787
outer loop
vertex 13.471313 7.171163 1.065842
vertex 15.088478 8.963954 4.876075
vertex 13.279275 8.963954 3.514993
endloop
endfacet
facet normal -0.753152 0.094175 0.651071
outer loop
vertex 14.887704 7.171163 3.201385
vertex 16.563559 7.171163 5.139998
vertex 17.219790 8.963954 5.639798
endloop
endfacet
facet normal -0.258093 -0.643907 0.720258
outer loop
vertex 14.887704 7.171163 3.201385
vertex 17.219790 8.963954 5.639798
vertex 15.088478 8.963954 4.876075
endloop
endfacet
facet normal -0.158475 0.643545 0.748823
outer loop
vertex 16.563559 7.171163 5.139998
vertex 19.070590 7.171163 5.670564
vertex 18.867177 8.963954 4.086776
endloop
endfacet
facet normal 0.624616 -0.413347 0.662570
outer loop
vertex 16.563559 7.171163 5.139998
vertex 18.867177 8.963954 4.086776
vertex 17.219790 8.963954 5.639798
endloop
endfacet
facet normal 0.550072 0.588456 0.592571
outer loop
vertex 19.070590 7.171163 5.670564
vertex 20.948689 7.171163 3.927162
vertex 20.522615 8.963954 2.542338
endloop
endfacet
facet normal 0.552722 0.586093 0.592447
outer loop
vertex 19.070590 7.171163 5.670564
vertex 20.522615 8.963954 2.542338
vertex 18.867177 8.963954 4.086776
endloop
endfacet
facet normal 0.794597 0.372083 0.479760
outer loop
vertex 20.948689 7.171163 3.927162
vertex 22.273203 7.171163 1.733450
vertex 21.987547 8.963954 0.816147
endloop
endfacet
facet normal 0.630191 0.562881 0.534812
outer loop
vertex 20.948689 7.171163 3.927162
vertex 21.987547 8.963954 0.816147
vertex 20.522615 8.963954 2.542338
endloop
endfacet
facet normal 0.660682 -0.000980 0.750665
outer loop
vertex 22.273203 7.171163 1.733450
vertex 24.196828 7.171163 0.040413
vertex 24.134511 8.963954 0.097600
endloop
endfacet
facet normal 0.279754 0.472265 0.835885
outer loop
vertex 22.273203 7.171163 1.733450
vertex 24.134511 8.963954 0.097600
vertex 21.987547 8.963954 0.816147
endloop
endfacet
facet normal -0.659647 0.183806 0.728753
outer loop
vertex 2.201299 8.963954 0.529193
vertex 3.879805 8.963954 2.048528
vertex 4.090813 10.756745 1.787350
endloop
endfacet
facet normal -0.505914 -0.283842 0.814546
outer loop
vertex 3.879805 8.963954 2.048528
vertex 5.803049 8.963954 3.243055
vertex 5.466710 10.756745 3.658883
endloop
endfacet
facet normal -0.792799 0.178221 0.582843
outer loop
vertex 3.879805 8.963954 2.048528
vertex 5.466710 10.756745 3.658883
vertex 4.090813 10.756745 1.787350
endloop
endfacet
facet normal -0.838880 0.043643 0.542564
outer loop
vertex 5.803049 8.963954 3.243055
vertex 7.032594 8.963954 5.144103
vertex 7.179861 10.756745 5.227589
endloop
endfacet
facet normal -0.647248 -0.285377 0.706846
outer loop
vertex 5.803049 8.963954 3.243055
vertex 7.179861 10.756745 5.227589
vertex 5.466710 10.756745 3.658883
endloop
endfacet
facet normal 0.093564 -0.273720 0.957248
outer loop
vertex 7.032594 8.963954 5.144103
vertex 9.285871 8.963954 4.923862
vertex 9.495073 10.756745 5.416053
endloop
endfacet
facet normal -0.081070 -0.039718 0.995917
outer loop
vertex 7.032594 8.963954 5.144103
vertex 9.495073 10.756745 5.416053
vertex 7.179861 10.756745 5.227589
endloop
endfacet
facet normal 0.623459 -0.256699 0.738515
outer loop
vertex 9.285871 8.963954 4.923862
vertex 11.015848 8.963954 3.463403
vertex 11.247322 10.756745 3.891143
endloop
endfacet
facet normal 0.631552 -0.272931 0.725707
outer loop
vertex 9.285871 8.963954 4.923862
vertex 11.247322 10.756745 3.891143
vertex 9.495073 10.756745 5.416053
endloop
endfacet
facet normal -0.022505 0.156599 0.987406
outer loop
vertex 11.015848 8.963954 3.463403
vertex 13.279275 8.963954 3.514993
vertex 13.475636 10.756745 3.235138
endloop
endfacet
facet normal 0.272966 -0.256465 0.927208
outer loop
vertex 11.015848 8.963954 3.463403
vertex 13.475636 10.756745 3.235138
vertex 11.247322 10.756745 3.891143
endloop
endfacet
facet normal -0.589931 -0.192551 0.784159
outer loop
vertex 13.279275 8.963954 3.514993
vertex 15.088478 8.963954 4.876075
vertex 14.830320 10.756745 5.122082
endloop
endfacet
facet normal -0.799483 0.177163 0.573969
outer loop
vertex 13.279275 8.963954 3.514993
vertex 14.830320 10.756745 5.122082
vertex 13.475636 10.756745 3.235138
endloop
endfacet
facet normal -0.335396 0.106958 0.935986
outer loop
vertex 15.088478 8.963954 4.876075
vertex 17.219790 8.963954 5.639798
vertex 17.135912 10.756745 5.404874
endloop
endfacet
facet normal -0.120329 -0.151945 0.981037
outer loop
vertex 15.088478 8.963954 4.876075
vertex 17.135912 10.756745 5.404874
vertex 14.830320 10.756745 5.122082
endloop
endfacet
facet normal 0.680610 0.124645 0.721965
outer loop
vertex 17.219790 8.963954 5.639798
vertex 18.867177 8.963954 4.086776
vertex 18.828358 10.756745 3.813851
endloop
endfacet
facet normal 0.679436 0.126495 0.722748
outer loop
vertex 17.219790 8.963954 5.639798
vertex 18.828358 10.756745 3.813851
vertex 17.135912 10.756745 5.404874
endloop
endfacet
facet normal 0.651680 0.295612 0.698517
outer loop
vertex 18.867177 8.963954 4.086776
vertex 20.522615 8.963954 2.542338
vertex 20.285494 10.756745 2.004852
endloop
endfacet
facet normal 0.773908 0.111657 0.623377
outer loop
vertex 18.867177 8.963954 4.086776
vertex 20.285494 10.756745 2.004852
vertex 18.828358 10.756745 3.813851
endloop
endfacet
facet normal 0.744683 0.214605 0.631975
outer loop
vertex 20.522615 8.963954 2.542338
vertex 21.987547 8.963954 0.816147
vertex 21.888647 10.756745 0.323892
endloop
endfacet
facet normal 0.692635 0.289653 0.660574
outer loop
vertex 20.522615 8.963954 2.542338
vertex 21.888647 10.756745 0.323892
vertex 20.285494 10.756745 2.004852
endloop
endfacet
facet normal -0.560810 -0.477729 0.676216
outer loop
vertex 2.302825 10.756745 0.304507
vertex 4.090813 10.756745 1.787350
vertex 3.707760 12.549535 2.736230
endloop
endfacet
facet normal -0.840037 -0.071213 0.537836
outer loop
vertex 2.302825 10.756745 0.304507
vertex 3.707760 12.549535 2.736230
vertex 2.377520 12.549535 0.658550
endloop
endfacet
facet normal -0.750106 -0.365015 0.551456
outer loop
vertex 4.090813 10.756745 1.787350
vertex 5.466710 10.756745 3.658883
vertex 5.300847 12.549535 4.619940
endloop
endfacet
facet normal -0.681594 -0.450724 0.576435
outer loop
vertex 4.090813 10.756745 1.787350
vertex 5.300847 12.549535 4.619940
vertex 3.707760 12.549535 2.736230
endloop
endfacet
facet normal -0.631850 0.353022 0.690030
outer loop
vertex 5.466710 10.756745 3.658883
vertex 7.179861 10.756745 5.227589
vertex 7.758067 12.549535 4.839845
endloop
endfacet
facet normal -0.078361 -0.476633 0.875603
outer loop
vertex 5.466710 10.756745 3.658883
vertex 7.758067 12.549535 4.839845
vertex 5.300847 12.549535 4.619940
endloop
endfacet
facet normal -0.054208 0.744042 0.665931
outer loop
vertex 7.179861 10.756745 5.227589
vertex 9.495073 10.756745 5.416053
vertex 9.787265 12.549535 3.436760
endloop
endfacet
facet normal 0.568723 -0.005531 0.822510
outer loop
vertex 7.179861 10.756745 5.227589
vertex 9.787265 12.549535 3.436760
vertex 7.758067 12.549535 4.839845
endloop
endfacet
facet normal 0.420260 0.768229 0.482914
outer loop
vertex 9.495073 10.756745 5.416053
vertex 11.247322 10.756745 3.891143
vertex 10.976178 12.549535 1.275099
endloop
endfacet
facet normal 0.816539 0.362735 0.449096
outer loop
vertex 9.495073 10.756745 5.416053
vertex 10.976178 12.549535 1.275099
vertex 9.787265 12.549535 3.436760
endloop
endfacet
facet normal 0.180160 0.770092 0.611965
outer loop
vertex 11.247322 10.756745 3.891143
vertex 13.475636 10.756745 3.235138
vertex 13.427083 12.549535 0.993400
endloop
endfacet
facet normal 0.064317 0.826274 0.559584
outer loop
vertex 11.247322 10.756745 3.891143
vertex 13.427083 12.549535 0.993400
vertex 10.976178 12.549535 1.275099
endloop
endfacet
facet normal -0.713594 0.477835 0.512307
outer loop
vertex 13.475636 10.756745 3.235138
vertex 14.830320 10.756745 5.122082
vertex 14.617885 12.549535 3.154021
endloop
endfacet
facet normal -0.757643 0.501613 0.417566
outer loop
vertex 13.475636 10.756745 3.235138
vertex 14.617885 12.549535 3.154021
vertex 13.427083 12.549535 0.993400
endloop
endfacet
facet normal -0.114070 0.349391 0.930007
outer loop
vertex 14.830320 10.756745 5.122082
vertex 17.135912 10.756745 5.404874
vertex 16.570406 12.549535 4.661984
endloop
endfacet
facet normal -0.478142 0.622971 0.619102
outer loop
vertex 14.830320 10.756745 5.122082
vertex 16.570406 12.549535 4.661984
vertex 14.617885 12.549535 3.154021
endloop
endfacet
facet normal 0.639447 -0.358360 0.680210
outer loop
vertex 17.135912 10.756745 5.404874
vertex 18.828358 10.756745 3.813851
vertex 19.035486 12.549535 4.563644
endloop
endfacet
facet normal 0.036664 0.392403 0.919062
outer loop
vertex 17.135912 10.756745 5.404874
vertex 19.035486 12.549535 4.563644
vertex 16.570406 12.549535 4.661984
endloop
endfacet
facet normal 0.690834 -0.461625 0.556462
outer loop
vertex 18.828358 10.756745 3.813851
vertex 20.285494 10.756745 2.004852
vertex 20.806121 12.549535 2.845755
endloop
endfacet
facet normal 0.650790 -0.355723 0.670771
outer loop
vertex 18.828358 10.756745 3.813851
vertex 20.806121 12.549535 2.845755
vertex 19.035486 12.549535 4.563644
endloop
endfacet
facet normal 0.716184 -0.143338 0.683033
outer loop
vertex 20.285494 10.756745 2.004852
vertex 21.888647 10.756745 0.323892
vertex 21.934597 12.549535 0.651938
endloop
endfacet
facet normal 0.803927 -0.427426 0.413532
outer loop
vertex 20.285494 10.756745 2.004852
vertex 21.934597 12.549535 0.651938
vertex 20.806121 12.549535 2.845755
endloop
endfacet
facet normal -0.813086 0.260554 0.520580
outer loop
vertex 2.377520 12.549535 0.658550
vertex 3.707760 12.549535 2.736230
vertex 4.109866 14.342326 2.466970
endloop
endfacet
facet normal -0.757943 0.079257 0.647488
outer loop
vertex 2.377520 12.549535 0.658550
vertex 4.109866 14.342326 2.466970
vertex 2.468112 14.342326 0.545146
endloop
endfacet
facet normal -0.762952 -0.039593 0.645242
outer loop
vertex 3.707760 12.549535 2.736230
vertex 5.300847 12.549535 4.619940
vertex 5.281235 14.342326 4.706759
endloop
endfacet
facet normal -0.855852 0.259184 0.447595
outer loop
vertex 3.707760 12.549535 2.736230
vertex 5.281235 14.342326 4.706759
vertex 4.109866 14.342326 2.466970
endloop
endfacet
facet normal -0.087731 0.176898 0.980311
outer loop
vertex 5.300847 12.549535 4.619940
vertex 7.758067 12.549535 4.839845
vertex 7.801945 14.342326 4.520261
endloop
endfacet
facet normal 0.073702 -0.047434 0.996152
outer loop
vertex 5.300847 12.549535 4.619940
vertex 7.801945 14.342326 4.520261
vertex 5.281235 14.342326 4.706759
endloop
endfacet
facet normal 0.504567 0.461426 0.729725
outer loop
vertex 7.758067 12.549535 4.839845
vertex 9.787265 12.549535 3.436760
vertex 9.405927 14.342326 2.566802
endloop
endfacet
facet normal 0.769445 0.093792 0.631790
outer loop
vertex 7.758067 12.549535 4.839845
vertex 9.405927 14.342326 2.566802
vertex 7.801945 14.342326 4.520261
endloop
endfacet
facet normal 0.842806 0.273506 0.463543
outer loop
vertex 9.787265 12.549535 3.436760
vertex 10.976178 12.549535 1.275099
vertex 10.831805 14.342326 0.479787
endloop
endfacet
facet normal 0.753142 0.409889 0.514557
outer loop
vertex 9.787265 12.549535 3.436760
vertex 10.831805 14.342326 0.479787
vertex 9.405927 14.342326 2.566802
endloop
endfacet
facet normal 0.110507 0.251755 0.961461
outer loop
vertex 10.976178 12.549535 1.275099
vertex 13.427083 12.549535 0.993400
vertex 13.358870 14.342326 0.531805
endloop
endfacet
facet normal -0.018824 0.404168 0.914491
outer loop
vertex 10.976178 12.549535 1.275099
vertex 13.358870 14.342326 0.531805
vertex 10.831805 14.342326 0.479787
endloop
endfacet
facet normal -0.774115 0.467676 0.426645
outer loop
vertex 13.427083 12.549535 0.993400
vertex 14.617885 12.549535 3.154021
vertex 15.206437 14.342326 2.256699
endloop
endfacet
facet normal -0.673616 0.160143 0.721523
outer loop
vertex 13.427083 12.549535 0.993400
vertex 15.206437 14.342326 2.256699
vertex 13.358870 14.342326 0.531805
endloop
endfacet
facet normal -0.603871 0.154851 0.781896
outer loop
vertex 14.617885 12.549535 3.154021
vertex 16.570406 12.549535 4.661984
vertex 16.624723 14.342326 4.348881
endloop
endfacet
facet normal -0.724482 0.483655 0.491125
outer loop
vertex 14.617885 12.549535 3.154021
vertex 16.624723 14.342326 4.348881
vertex 15.206437 14.342326 2.256699
endloop
endfacet
facet normal 0.038935 -0.214420 0.975965
outer loop
vertex 16.570406 12.549535 4.661984
vertex 19.035486 12.549535 4.563644
vertex 19.078373 14.342326 4.955810
endloop
endfacet
facet normal -0.236453 0.174111 0.955916
outer loop
vertex 16.570406 12.549535 4.661984
vertex 19.078373 14.342326 4.955810
vertex 16.624723 14.342326 4.348881
endloop
endfacet
facet normal 0.689561 0.139154 0.710733
outer loop
vertex 19.035486 12.549535 4.563644
vertex 20.806121 12.549535 2.845755
vertex 20.454643 14.342326 2.835753
endloop
endfacet
facet normal 0.830756 -0.137843 0.539299
outer loop
vertex 19.035486 12.549535 4.563644
vertex 20.454643 14.342326 2.835753
vertex 19.078373 14.342326 4.955810
endloop
endfacet
facet normal 0.889029 -0.022301 0.457307
outer loop
vertex 20.806121 12.549535 2.845755
vertex 21.934597 12.549535 0.651938
vertex 21.916790 14.342326 0.773984
endloop
endfacet
facet normal 0.805058 0.161018 0.570924
outer loop
vertex 20.806121 12.549535 2.845755
vertex 21.916790 14.342326 0.773984
vertex 20.454643 14.342326 2.835753
endloop
endfacet
facet normal -0.740002 0.229717 0.632161
outer loop
vertex 2.468112 14.342326 0.545146
vertex 4.109866 14.342326 2.466970
vertex 4.272857 16.135117 2.006293
endloop
endfacet
facet normal -0.875636 0.153464 0.457941
outer loop
vertex 4.109866 14.342326 2.466970
vertex 5.281235 14.342326 4.706759
vertex 5.359134 16.135117 4.254915
endloop
endfacet
facet normal -0.884016 0.190106 0.427055
outer loop
vertex 4.109866 14.342326 2.466970
vertex 5.359134 16.135117 4.254915
vertex 4.272857 16.135117 2.006293
endloop
endfacet
facet normal 0.071801 0.230313 0.970464
outer loop
vertex 5.281235 14.342326 4.706759
vertex 7.801945 14.342326 4.520261
vertex 7.851018 16.135117 4.091161
endloop
endfacet
facet normal 0.063636 0.241295 0.968363
outer loop
vertex 5.281235 14.342326 4.706759
vertex 7.851018 16.135117 4.091161
vertex 5.359134 16.135117 4.254915
endloop
endfacet
facet normal 0.726164 0.342299 0.596252
outer loop
vertex 7.801945 14.342326 4.520261
vertex 9.405927 14.342326 2.566802
vertex 9.089675 16.135117 1.922744
endloop
endfacet
facet normal 0.864431 0.094525 0.493786
outer loop
vertex 7.801945 14.342326 4.520261
vertex 9.089675 16.135117 1.922744
vertex 7.851018 16.135117 4.091161
endloop
endfacet
facet normal 0.825411 0.026008 0.563933
outer loop
vertex 9.405927 14.342326 2.566802
vertex 10.831805 14.342326 0.479787
vertex 10.937303 16.135117 0.242692
endloop
endfacet
facet normal 0.627947 0.358861 0.690581
outer loop
vertex 9.405927 14.342326 2.566802
vertex 10.937303 16.135117 0.242692
vertex 9.089675 16.135117 1.922744
endloop
endfacet
facet normal -0.640016 0.347019 0.685534
outer loop
vertex 13.358870 14.342326 0.531805
vertex 15.206437 14.342326 2.256699
vertex 15.482458 16.135117 1.606878
endloop
endfacet
facet normal -0.810825 0.201101 0.549656
outer loop
vertex 15.206437 14.342326 2.256699
vertex 16.624723 14.342326 4.348881
vertex 16.691737 16.135117 3.791814
endloop
endfacet
facet normal -0.835646 0.296296 0.462498
outer loop
vertex 15.206437 14.342326 2.256699
vertex 16.691737 16.135117 3.791814
vertex 15.482458 16.135117 1.606878
endloop
endfacet
facet normal -0.240076 0.019251 0.970563
outer loop
vertex 16.624723 14.342326 4.348881
vertex 19.078373 14.342326 4.955810
vertex 18.936886 16.135117 4.885252
endloop
endfacet
facet normal -0.419880 0.283583 0.862138
outer loop
vertex 16.624723 14.342326 4.348881
vertex 18.936886 16.135117 4.885252
vertex 16.691737 16.135117 3.791814
endloop
endfacet
facet normal 0.823040 0.192715 0.534290
outer loop
vertex 19.078373 14.342326 4.955810
vertex 20.454643 14.342326 2.835753
vertex 20.128921 16.135117 2.690860
endloop
endfacet
facet normal 0.875327 0.087795 0.475494
outer loop
vertex 19.078373 14.342326 4.955810
vertex 20.128921 16.135117 2.690860
vertex 18.936886 16.135117 4.885252
endloop
endfacet
facet normal 0.814774 0.047683 0.577814
outer loop
vertex 20.454643 14.342326 2.835753
vertex 21.916790 14.342326 0.773984
vertex 21.780711 16.135117 0.817923
endloop
endfacet
facet normal 0.736853 0.186395 0.649849
outer loop
vertex 20.454643 14.342326 2.835753
vertex 21.780711 16.135117 0.817923
vertex 20.128921 16.135117 2.690860
endloop
endfacet
facet normal -0.772477 0.513830 0.373173
outer loop
vertex 4.272857 16.135117 2.006293
vertex 5.359134 16.135117 4.254915
vertex 5.529281 17.927908 2.138590
endloop
endfacet
facet normal -0.528432 0.312073 0.789538
outer loop
vertex 4.272857 16.135117 2.006293
vertex 5.529281 17.927908 2.138590
vertex 3.842094 17.927908 1.009367
endloop
endfacet
facet normal 0.040924 0.781346 0.622755
outer loop
vertex 5.359134 16.135117 4.254915
vertex 7.851018 16.135117 4.091161
vertex 7.540589 17.927908 1.862215
endloop
endfacet
facet normal 0.089037 0.756449 0.647964
outer loop
vertex 5.359134 16.135117 4.254915
vertex 7.540589 17.927908 1.862215
vertex 5.529281 17.927908 2.138590
endloop
endfacet
facet normal 0.769361 0.463619 0.439479
outer loop
vertex 7.851018 16.135117 4.091161
vertex 9.089675 16.135117 1.922744
vertex 8.903469 17.927908 0.357455
endloop
endfacet
facet normal 0.533893 0.693639 0.483553
outer loop
vertex 7.851018 16.135117 4.091161
vertex 8.903469 17.927908 0.357455
vertex 7.540589 17.927908 1.862215
endloop
endfacet
facet normal 0.667604 0.123555 0.734193
outer loop
vertex 9.089675 16.135117 1.922744
vertex 10.937303 16.135117 0.242692
vertex 10.897709 17.927908 -0.023008
endloop
endfacet
facet normal 0.140887 0.659397 0.738475
outer loop
vertex 9.089675 16.135117 1.922744
vertex 10.897709 17.927908 -0.023008
vertex 8.903469 17.927908 0.357455
endloop
endfacet
facet normal -0.689479 0.615630 0.381600
outer loop
vertex 15.482458 16.135117 1.606878
vertex 16.691737 16.135117 3.791814
vertex 16.747670 17.927908 1.000595
endloop
endfacet
facet normal -0.276695 0.775023 0.568137
outer loop
vertex 16.691737 16.135117 3.791814
vertex 18.936886 16.135117 4.885252
vertex 18.401106 17.927908 2.178684
endloop
endfacet
facet normal -0.356194 0.789437 0.499915
outer loop
vertex 16.691737 16.135117 3.791814
vertex 18.401106 17.927908 2.178684
vertex 16.747670 17.927908 1.000595
endloop
endfacet
facet normal 0.817834 0.365756 0.444263
outer loop
vertex 18.936886 16.135117 4.885252
vertex 20.128921 16.135117 2.690860
vertex 20.158013 17.927908 1.161323
endloop
endfacet
facet normal 0.283672 0.824347 0.489881
outer loop
vertex 18.936886 16.135117 4.885252
vertex 20.158013 17.927908 1.161323
vertex 18.401106 17.927908 2.178684
endloop
endfacet
facet normal 0.748670 0.059467 0.660270
outer loop
vertex 20.128921 16.135117 2.690860
vertex 21.780711 16.135117 0.817923
vertex 22.029494 17.927908 0.374365
endloop
endfacet
facet normal 0.305618 0.615114 0.726796
outer loop
vertex 20.128921 16.135117 2.690860
vertex 22.029494 17.927908 0.374365
vertex 20.158013 17.927908 1.161323
endloop
endfacet
facet normal -0.407364 0.680884 0.608648
outer loop
vertex 3.842094 17.927908 1.009367
vertex 5.529281 17.927908 2.138590
vertex 5.365724 19.720698 0.023559
endloop
endfacet
facet normal 0.093962 0.723590 0.683805
outer loop
vertex 5.529281 17.927908 2.138590
vertex 7.540589 17.927908 1.862215
vertex 7.271761 19.720698 0.002057
endloop
endfacet
facet normal 0.007290 0.763084 0.646259
outer loop
vertex 5.529281 17.927908 2.138590
vertex 7.271761 19.720698 0.002057
vertex 5.365724 19.720698 0.023559
endloop
endfacet
facet normal 0.740933 0.026094 0.671072
outer loop
vertex 7.540589 17.927908 1.862215
vertex 8.903469 17.927908 0.357455
vertex 9.177840 19.720698 -0.015190
endloop
endfacet
facet normal 0.006275 0.720464 0.693464
outer loop
vertex 7.540589 17.927908 1.862215
vertex 9.177840 19.720698 -0.015190
vertex 7.271761 19.720698 0.002057
endloop
endfacet
facet normal -0.391066 0.738798 0.548858
outer loop
vertex 16.747670 17.927908 1.000595
vertex 18.401106 17.927908 2.178684
vertex 18.708627 19.720698 -0.015415
endloop
endfacet
facet normal 0.474009 0.324412 0.818579
outer loop
vertex 18.401106 17.927908 2.178684
vertex 20.158013 17.927908 1.161323
vertex 20.603364 19.720698 0.192933
endloop
endfacet
facet normal -0.068774 0.777237 0.625438
outer loop
vertex 18.401106 17.927908 2.178684
vertex 20.603364 19.720698 0.192933
vertex 18.708627 19.720698 -0.015415
endloop
endfacet
facet normal 0.362440 -0.354569 0.861927
outer loop
vertex 20.158013 17.927908 1.161323
vertex 22.029494 17.927908 0.374365
vertex 22.338582 19.720698 0.981891
endloop
endfacet
facet normal -0.355771 0.511038 0.782475
outer loop
vertex 20.158013 17.927908 1.161323
vertex 22.338582 19.720698 0.981891
vertex 20.603364 19.720698 0.192933
endloop
endfacet
facet normal 0.461859 -0.355057 0.812786
outer loop
vertex 22.029494 17.927908 0.374365
vertex 23.995860 19.720698 0.040156
vertex 22.338582 19.720698 0.981891
endloop
endfacet
facet normal -0.064255 -0.570387 -0.818859
outer loop
vertex 1.203252 1.792791 -3.764021
vertex 1.949975 0.000000 -2.573825
vertex 0.000000 0.000000 -2.420813
endloop
endfacet
facet normal -0.838573 0.176719 -0.515330
outer loop
vertex 0.000000 1.792791 -1.806024
vertex 1.203252 1.792791 -3.764021
vertex 0.000000 0.000000 -2.420813
endloop
endfacet
facet normal 0.391053 -0.806180 -0.444018
outer loop
vertex 3.343275 1.792791 -4.601800
vertex 3.417828 0.000000 -1.281067
vertex 1.949975 0.000000 -2.573825
endloop
endfacet
facet normal -0.288833 -0.610110 -0.737795
outer loop
vertex 1.203252 1.792791 -3.764021
vertex 3.343275 1.792791 -4.601800
vertex 1.949975 0.000000 -2.573825
endloop
endfacet
facet normal 0.312021 -0.795223 -0.519868
outer loop
vertex 5.038868 1.792791 -3.050499
vertex 5.094914 0.000000 -0.274491
vertex 3.417828 0.000000 -1.281067
endloop
endfacet
facet normal 0.404000 -0.801120 -0.441577
outer loop
vertex 3.343275 1.792791 -4.601800
vertex 5.038868 1.792791 -3.050499
vertex 3.417828 0.000000 -1.281067
endloop
endfacet
facet normal 0.549770 -0.696602 -0.460976
outer loop
vertex 5.038868 1.792791 -3.050499
vertex 6.515471 1.792791 -1.289473
vertex 5.094914 0.000000 -0.274491
endloop
endfacet
facet normal -0.041277 -0.811073 -0.583487
outer loop
vertex 19.051455 1.792791 -2.657295
vertex 18.763873 0.000000 -0.144891
vertex 16.812780 0.000000 -0.006867
endloop
endfacet
facet normal -0.731485 -0.086490 -0.676349
outer loop
vertex 17.491244 1.792791 -0.969896
vertex 19.051455 1.792791 -2.657295
vertex 16.812780 0.000000 -0.006867
endloop
endfacet
facet normal -0.233376 -0.847463 -0.476804
outer loop
vertex 20.686414 1.792791 -4.272374
vertex 20.520690 0.000000 -1.004780
vertex 18.763873 0.000000 -0.144891
endloop
endfacet
facet normal -0.526468 -0.662419 -0.532948
outer loop
vertex 19.051455 1.792791 -2.657295
vertex 20.686414 1.792791 -4.272374
vertex 18.763873 0.000000 -0.144891
endloop
endfacet
facet normal -0.584999 -0.345125 -0.733938
outer loop
vertex 22.928288 1.792791 -3.766835
vertex 22.050230 0.000000 -2.223928
vertex 20.520690 0.000000 -1.004780
endloop
endfacet
facet normal 0.106905 -0.873965 -0.474086
outer loop
vertex 20.686414 1.792791 -4.272374
vertex 22.928288 1.792791 -3.766835
vertex 20.520690 0.000000 -1.004780
endloop
endfacet
facet normal 0.020687 0.196690 -0.980247
outer loop
vertex 24.149356 1.792791 -1.819898
vertex 24.005764 0.000000 -2.182659
vertex 22.050230 0.000000 -2.223928
endloop
endfacet
facet normal 0.638450 -0.657302 -0.400419
outer loop
vertex 22.928288 1.792791 -3.766835
vertex 24.149356 1.792791 -1.819898
vertex 22.050230 0.000000 -2.223928
endloop
endfacet
facet normal -0.810561 0.308014 -0.498115
outer loop
vertex 1.180716 3.585582 -2.618761
vertex 1.203252 1.792791 -3.764021
vertex 0.000000 1.792791 -1.806024
endloop
endfacet
facet normal -0.825965 0.340200 -0.449495
outer loop
vertex 0.000000 3.585582 -0.449149
vertex 1.180716 3.585582 -2.618761
vertex 0.000000 1.792791 -1.806024
endloop
endfacet
facet normal -0.363412 -0.078663 -0.928301
outer loop
vertex 2.753967 3.585582 -4.523015
vertex 3.343275 1.792791 -4.601800
vertex 1.203252 1.792791 -3.764021
endloop
endfacet
facet normal -0.716482 0.369134 -0.591941
outer loop
vertex 1.180716 3.585582 -2.618761
vertex 2.753967 3.585582 -4.523015
vertex 1.203252 1.792791 -3.764021
endloop
endfacet
facet normal 0.553523 -0.572344 -0.605008
outer loop
vertex 5.223444 3.585582 -4.577629
vertex 5.038868 1.792791 -3.050499
vertex 3.343275 1.792791 -4.601800
endloop
endfacet
facet normal -0.022095 0.036642 -0.999084
outer loop
vertex 2.753967 3.585582 -4.523015
vertex 5.223444 3.585582 -4.577629
vertex 3.343275 1.792791 -4.601800
endloop
endfacet
facet normal 0.633684 -0.562250 -0.531337
outer loop
vertex 6.883070 3.585582 -2.748162
vertex 6.515471 1.792791 -1.289473
vertex 5.038868 1.792791 -3.050499
endloop
endfacet
facet normal 0.621396 -0.544151 -0.563708
outer loop
vertex 5.223444 3.585582 -4.577629
vertex 6.883070 3.585582 -2.748162
vertex 5.038868 1.792791 -3.050499
endloop
endfacet
facet normal 0.622585 -0.566728 -0.539637
outer loop
vertex 6.883070 3.585582 -2.748162
vertex 8.500911 3.585582 -0.881643
vertex 6.515471 1.792791 -1.289473
endloop
endfacet
facet normal -0.303928 -0.623185 -0.720603
outer loop
vertex 17.322801 3.585582 -2.449276
vertex 17.491244 1.792791 -0.969896
vertex 15.373716 1.792791 -0.076788
endloop
endfacet
facet normal -0.726849 -0.107463 -0.678338
outer loop
vertex 15.637491 3.585582 -0.643443
vertex 17.322801 3.585582 -2.449276
vertex 15.373716 1.792791 -0.076788
endloop
endfacet
facet normal -0.605358 -0.565903 -0.559729
outer loop
vertex 18.923004 3.585582 -4.330939
vertex 19.051455 1.792791 -2.657295
vertex 17.491244 1.792791 -0.969896
endloop
endfacet
facet normal -0.651447 -0.518361 -0.554003
outer loop
vertex 17.322801 3.585582 -2.449276
vertex 18.923004 3.585582 -4.330939
vertex 17.491244 1.792791 -0.969896
endloop
endfacet
facet normal -0.692881 0.167156 -0.701409
outer loop
vertex 21.384652 3.585582 -4.534875
vertex 20.686414 1.792791 -4.272374
vertex 19.051455 1.792791 -2.657295
endloop
endfacet
facet normal -0.060269 -0.683463 -0.727493
outer loop
vertex 18.923004 3.585582 -4.330939
vertex 21.384652 3.585582 -4.534875
vertex 19.051455 1.792791 -2.657295
endloop
endfacet
facet normal 0.191278 0.493851 -0.848248
outer loop
vertex 23.036755 3.585582 -2.698612
vertex 22.928288 1.792791 -3.766835
vertex 20.686414 1.792791 -4.272374
endloop
endfacet
facet normal 0.693186 -0.361293 -0.623667
outer loop
vertex 21.384652 3.585582 -4.534875
vertex 23.036755 3.585582 -2.698612
vertex 20.686414 1.792791 -4.272374
endloop
endfacet
facet normal 0.800221 0.328277 -0.501877
outer loop
vertex 24.221971 3.585582 -0.531456
vertex 24.149356 1.792791 -1.819898
vertex 22.928288 1.792791 -3.766835
endloop
endfacet
facet normal 0.854508 0.226756 -0.467330
outer loop
vertex 23.036755 3.585582 -2.698612
vertex 24.221971 3.585582 -0.531456
vertex 22.928288 1.792791 -3.766835
endloop
endfacet
facet normal -0.832139 0.320105 -0.452855
outer loop
vertex 1.595915 5.378372 -2.114453
vertex 1.180716 3.585582 -2.618761
vertex 0.000000 3.585582 -0.449149
endloop
endfacet
facet normal -0.788929 0.148399 -0.596296
outer loop
vertex 0.000000 5.378372 -0.002981
vertex 1.595915 5.378372 -2.114453
vertex 0.000000 3.585582 -0.449149
endloop
endfacet
facet normal -0.755504 0.199033 -0.624180
outer loop
vertex 3.058727 5.378372 -4.320227
vertex 2.753967 3.585582 -4.523015
vertex 1.180716 3.585582 -2.618761
endloop
endfacet
facet normal -0.786976 0.329069 -0.521902
outer loop
vertex 1.595915 5.378372 -2.114453
vertex 3.058727 5.378372 -4.320227
vertex 1.180716 3.585582 -2.618761
endloop
endfacet
facet normal -0.018177 -0.569295 -0.821932
outer loop
vertex 5.239725 5.378372 -5.819729
vertex 5.223444 3.585582 -4.577629
vertex 2.753967 3.585582 -4.523015
endloop
endfacet
facet normal -0.556638 0.186203 -0.809619
outer loop
vertex 3.058727 5.378372 -4.320227
vertex 5.239725 5.378372 -5.819729
vertex 2.753967 3.585582 -4.523015
endloop
endfacet
facet normal 0.606630 -0.573721 -0.550313
outer loop
vertex 7.299730 5.378372 -4.157911
vertex 6.883070 3.585582 -2.748162
vertex 5.223444 3.585582 -4.577629
endloop
endfacet
facet normal 0.551325 -0.478506 -0.683427
outer loop
vertex 5.239725 5.378372 -5.819729
vertex 7.299730 5.378372 -4.157911
vertex 5.223444 3.585582 -4.577629
endloop
endfacet
facet normal 0.676375 -0.445887 -0.586261
outer loop
vertex 8.757687 5.378372 -1.948925
vertex 8.500911 3.585582 -0.881643
vertex 6.883070 3.585582 -2.748162
endloop
endfacet
facet normal 0.707067 -0.531294 -0.466673
outer loop
vertex 7.299730 5.378372 -4.157911
vertex 8.757687 5.378372 -1.948925
vertex 6.883070 3.585582 -2.748162
endloop
endfacet
facet normal 0.586041 -0.474816 -0.656587
outer loop
vertex 8.757687 5.378372 -1.948925
vertex 10.732289 5.378372 -0.186482
vertex 8.500911 3.585582 -0.881643
endloop
endfacet
facet normal -0.563413 -0.637251 -0.525810
outer loop
vertex 16.846716 5.378372 -4.111901
vertex 17.322801 3.585582 -2.449276
vertex 15.637491 3.585582 -0.643443
endloop
endfacet
facet normal -0.747105 -0.447313 -0.491676
outer loop
vertex 15.391693 5.378372 -1.900981
vertex 16.846716 5.378372 -4.111901
vertex 15.637491 3.585582 -0.643443
endloop
endfacet
facet normal -0.667587 -0.481676 -0.567729
outer loop
vertex 18.882055 5.378372 -5.803838
vertex 18.923004 3.585582 -4.330939
vertex 17.322801 3.585582 -2.449276
endloop
endfacet
facet normal -0.479200 -0.661861 -0.576461
outer loop
vertex 16.846716 5.378372 -4.111901
vertex 18.882055 5.378372 -5.803838
vertex 17.322801 3.585582 -2.449276
endloop
endfacet
facet normal -0.082359 0.070117 -0.994133
outer loop
vertex 21.117173 5.378372 -4.386268
vertex 21.384652 3.585582 -4.534875
vertex 18.923004 3.585582 -4.330939
endloop
endfacet
facet normal 0.442572 -0.563193 -0.697814
outer loop
vertex 18.882055 5.378372 -5.803838
vertex 21.117173 5.378372 -4.386268
vertex 18.923004 3.585582 -4.330939
endloop
endfacet
facet normal 0.697360 0.346455 -0.627422
outer loop
vertex 22.600110 5.378372 -2.193973
vertex 23.036755 3.585582 -2.698612
vertex 21.384652 3.585582 -4.534875
endloop
endfacet
facet normal 0.816580 0.167617 -0.552360
outer loop
vertex 21.117173 5.378372 -4.386268
vertex 22.600110 5.378372 -2.193973
vertex 21.384652 3.585582 -4.534875
endloop
endfacet
facet normal 0.861238 0.190838 -0.471010
outer loop
vertex 24.105900 5.378372 -0.017312
vertex 24.221971 3.585582 -0.531456
vertex 23.036755 3.585582 -2.698612
endloop
endfacet
facet normal 0.773670 0.339086 -0.535216
outer loop
vertex 22.600110 5.378372 -2.193973
vertex 24.105900 5.378372 -0.017312
vertex 23.036755 3.585582 -2.698612
endloop
endfacet
facet normal -0.753083 0.329959 -0.569203
outer loop
vertex 1.996993 7.171163 -1.605842
vertex 1.595915 5.378372 -2.114453
vertex 0.000000 5.378372 -0.002981
endloop
endfacet
facet normal -0.626655 0.001296 -0.779296
outer loop
vertex 0.000000 7.171163 0.000000
vertex 1.996993 7.171163 -1.605842
vertex 0.000000 5.378372 -0.002981
endloop
endfacet
facet normal -0.803432 0.265718 -0.532815
outer loop
vertex 3.310672 7.171163 -3.806059
vertex 3.058727 5.378372 -4.320227
vertex 1.595915 5.378372 -2.114453
endloop
endfacet
facet normal -0.813514 0.319795 -0.485723
outer loop
vertex 1.996993 7.171163 -1.605842
vertex 3.310672 7.171163 -3.806059
vertex 1.595915 5.378372 -2.114453
endloop
endfacet
facet normal -0.555017 0.200706 -0.807263
outer loop
vertex 5.303096 7.171163 -5.417566
vertex 5.239725 5.378372 -5.819729
vertex 3.058727 5.378372 -4.320227
endloop
endfacet
facet normal -0.600434 0.297287 -0.742361
outer loop
vertex 3.310672 7.171163 -3.806059
vertex 5.303096 7.171163 -5.417566
vertex 3.058727 5.378372 -4.320227
endloop
endfacet
facet normal 0.551697 -0.477416 -0.683889
outer loop
vertex 7.828516 7.171163 -4.982867
vertex 7.299730 5.378372 -4.157911
vertex 5.239725 5.378372 -5.819729
endloop
endfacet
facet normal 0.165842 0.210267 -0.963475
outer loop
vertex 5.303096 7.171163 -5.417566
vertex 7.828516 7.171163 -4.982867
vertex 5.239725 5.378372 -5.819729
endloop
endfacet
facet normal 0.683869 -0.573232 -0.451362
outer loop
vertex 9.525385 7.171163 -3.062621
vertex 8.757687 5.378372 -1.948925
vertex 7.299730 5.378372 -4.157911
endloop
endfacet
facet normal 0.663273 -0.465335 -0.586116
outer loop
vertex 7.828516 7.171163 -4.982867
vertex 9.525385 7.171163 -3.062621
vertex 7.299730 5.378372 -4.157911
endloop
endfacet
facet normal 0.624949 -0.345238 -0.700178
outer loop
vertex 10.913581 7.171163 -0.908644
vertex 10.732289 5.378372 -0.186482
vertex 8.757687 5.378372 -1.948925
endloop
endfacet
facet normal 0.689756 -0.571511 -0.444534
outer loop
vertex 9.525385 7.171163 -3.062621
vertex 10.913581 7.171163 -0.908644
vertex 8.757687 5.378372 -1.948925
endloop
endfacet
facet normal -0.523493 -0.591788 -0.612977
outer loop
vertex 14.887704 7.171163 -3.201385
vertex 15.391693 5.378372 -1.900981
vertex 13.379030 5.378372 -0.182131
endloop
endfacet
facet normal -0.812238 -0.223735 -0.538713
outer loop
vertex 13.471313 7.171163 -1.065842
vertex 14.887704 7.171163 -3.201385
vertex 13.379030 5.378372 -0.182131
endloop
endfacet
facet normal -0.762560 -0.408230 -0.501847
outer loop
vertex 16.563559 7.171163 -5.139998
vertex 16.846716 5.378372 -4.111901
vertex 15.391693 5.378372 -1.900981
endloop
endfacet
facet normal -0.623535 -0.566268 -0.539022
outer loop
vertex 14.887704 7.171163 -3.201385
vertex 16.563559 7.171163 -5.139998
vertex 15.391693 5.378372 -1.900981
endloop
endfacet
facet normal -0.634363 0.123441 -0.763116
outer loop
vertex 19.070590 7.171163 -5.670564
vertex 18.882055 5.378372 -5.803838
vertex 16.846716 5.378372 -4.111901
endloop
endfacet
facet normal -0.178030 -0.510530 -0.841228
outer loop
vertex 16.563559 7.171163 -5.139998
vertex 19.070590 7.171163 -5.670564
vertex 16.846716 5.378372 -4.111901
endloop
endfacet
facet normal 0.517516 0.257595 -0.815979
outer loop
vertex 20.948689 7.171163 -3.927162
vertex 21.117173 5.378372 -4.386268
vertex 18.882055 5.378372 -5.803838
endloop
endfacet
facet normal 0.680238 -0.017061 -0.732793
outer loop
vertex 19.070590 7.171163 -5.670564
vertex 20.948689 7.171163 -3.927162
vertex 18.882055 5.378372 -5.803838
endloop
endfacet
facet normal 0.794460 0.282910 -0.537397
outer loop
vertex 22.273203 7.171163 -1.733450
vertex 22.600110 5.378372 -2.193973
vertex 21.117173 5.378372 -4.386268
endloop
endfacet
facet normal 0.837312 0.208153 -0.505550
outer loop
vertex 20.948689 7.171163 -3.927162
vertex 22.273203 7.171163 -1.733450
vertex 21.117173 5.378372 -4.386268
endloop
endfacet
facet normal 0.821405 -0.048983 -0.568239
outer loop
vertex 24.196828 7.171163 -0.040413
vertex 24.105900 5.378372 -0.017312
vertex 22.600110 5.378372 -2.193973
endloop
endfacet
facet normal 0.630464 0.298970 -0.716332
outer loop
vertex 22.273203 7.171163 -1.733450
vertex 24.196828 7.171163 -0.040413
vertex 22.600110 5.378372 -2.193973
endloop
endfacet
facet normal -0.551533 0.474750 -0.685875
outer loop
vertex 2.201299 8.963954 -0.529193
vertex 1.996993 7.171163 -1.605842
vertex 0.000000 7.171163 0.000000
endloop
endfacet
facet normal -0.678609 0.612636 -0.405176
outer loop
vertex 3.879805 8.963954 -2.048528
vertex 3.310672 7.171163 -3.806059
vertex 1.996993 7.171163 -1.605842
endloop
endfacet
facet normal -0.594977 0.462546 -0.657308
outer loop
vertex 2.201299 8.963954 -0.529193
vertex 3.879805 8.963954 -2.048528
vertex 1.996993 7.171163 -1.605842
endloop
endfacet
facet normal -0.419161 0.745474 -0.518240
outer loop
vertex 5.803049 8.963954 -3.243055
vertex 5.303096 7.171163 -5.417566
vertex 3.310672 7.171163 -3.806059
endloop
endfacet
facet normal -0.373029 0.707203 -0.600594
outer loop
vertex 3.879805 8.963954 -2.048528
vertex 5.803049 8.963954 -3.243055
vertex 3.310672 7.171163 -3.806059
endloop
endfacet
facet normal 0.169620 -0.013321 -0.985420
outer loop
vertex 7.032594 8.963954 -5.144103
vertex 7.828516 7.171163 -4.982867
vertex 5.303096 7.171163 -5.417566
endloop
endfacet
facet normal -0.626343 0.666023 -0.405102
outer loop
vertex 5.803049 8.963954 -3.243055
vertex 7.032594 8.963954 -5.144103
vertex 5.303096 7.171163 -5.417566
endloop
endfacet
facet normal 0.646138 -0.506452 -0.570975
outer loop
vertex 9.285871 8.963954 -4.923862
vertex 9.525385 7.171163 -3.062621
vertex 7.828516 7.171163 -4.982867
endloop
endfacet
facet normal 0.097175 -0.046272 -0.994191
outer loop
vertex 7.032594 8.963954 -5.144103
vertex 9.285871 8.963954 -4.923862
vertex 7.828516 7.171163 -4.982867
endloop
endfacet
facet normal 0.650004 -0.634039 -0.418914
outer loop
vertex 11.015848 8.963954 -3.463403
vertex 10.913581 7.171163 -0.908644
vertex 9.525385 7.171163 -3.062621
endloop
endfacet
facet normal 0.526700 -0.577354 -0.623899
outer loop
vertex 9.285871 8.963954 -4.923862
vertex 11.015848 8.963954 -3.463403
vertex 9.525385 7.171163 -3.062621
endloop
endfacet
facet normal -0.036165 -0.807737 -0.588432
outer loop
vertex 13.279275 8.963954 -3.514993
vertex 13.471313 7.171163 -1.065842
vertex 10.913581 7.171163 -0.908644
endloop
endfacet
facet normal -0.013099 -0.818243 -0.574723
outer loop
vertex 11.015848 8.963954 -3.463403
vertex 13.279275 8.963954 -3.514993
vertex 10.913581 7.171163 -0.908644
endloop
endfacet
facet normal -0.767526 -0.389569 -0.509058
outer loop
vertex 15.088478 8.963954 -4.876075
vertex 14.887704 7.171163 -3.201385
vertex 13.471313 7.171163 -1.065842
endloop
endfacet
facet normal -0.393298 -0.756314 -0.522787
outer loop
vertex 13.279275 8.963954 -3.514993
vertex 15.088478 8.963954 -4.876075
vertex 13.471313 7.171163 -1.065842
endloop
endfacet
facet normal -0.753152 0.094175 -0.651071
outer loop
vertex 17.219790 8.963954 -5.639798
vertex 16.563559 7.171163 -5.139998
vertex 14.887704 7.171163 -3.201385
endloop
endfacet
facet normal -0.258093 -0.643907 -0.720258
outer loop
vertex 15.088478 8.963954 -4.876075
vertex 17.219790 8.963954 -5.639798
vertex 14.887704 7.171163 -3.201385
endloop
endfacet
facet normal -0.158475 0.643545 -0.748823
outer loop
vertex 18.867177 8.963954 -4.086776
vertex 19.070590 7.171163 -5.670564
vertex 16.563559 7.171163 -5.139998
endloop
endfacet
facet normal 0.624616 -0.413347 -0.662570
outer loop
vertex 17.219790 8.963954 -5.639798
vertex 18.867177 8.963954 -4.086776
vertex 16.563559 7.171163 -5.139998
endloop
endfacet
facet normal 0.550072 0.588456 -0.592571
outer loop
vertex 20.522615 8.963954 -2.542338
vertex 20.948689 7.171163 -3.927162
vertex 19.070590 7.171163 -5.670564
endloop
endfacet
facet normal 0.552722 0.586093 -0.592447
outer loop
vertex 18.867177 8.963954 -4.086776
vertex 20.522615 8.963954 -2.542338
vertex 19.070590 7.171163 -5.670564
endloop
endfacet
facet normal 0.794597 0.372083 -0.479760
outer loop
vertex 21.987547 8.963954 -0.816147
vertex 22.273203 7.171163 -1.733450
vertex 20.948689 7.171163 -3.927162
endloop
endfacet
facet normal 0.630191 0.562881 -0.534812
outer loop
vertex 20.522615 8.963954 -2.542338
vertex 21.987547 8.963954 -0.816147
vertex 20.948689 7.171163 -3.927162
endloop
endfacet
facet normal 0.660682 -0.000980 -0.750665
outer loop
vertex 24.134511 8.963954 -0.097600
vertex 24.196828 7.171163 -0.040413
vertex 22.273203 7.171163 -1.733450
endloop
endfacet
facet normal 0.279754 0.472265 -0.835885
outer loop
vertex 21.987547 8.963954 -0.816147
vertex 24.134511 8.963954 -0.097600
vertex 22.273203 7.171163 -1.733450
endloop
endfacet
facet normal -0.659647 0.183806 -0.728753
outer loop
vertex 4.090813 10.756745 -1.787350
vertex 3.879805 8.963954 -2.048528
vertex 2.201299 8.963954 -0.529193
endloop
endfacet
facet normal -0.505914 -0.283842 -0.814546
outer loop
vertex 5.466710 10.756745 -3.658883
vertex 5.803049 8.963954 -3.243055
vertex 3.879805 8.963954 -2.048528
endloop
endfacet
facet normal -0.792799 0.178221 -0.582843
outer loop
vertex 4.090813 10.756745 -1.787350
vertex 5.466710 10.756745 -3.658883
vertex 3.879805 8.963954 -2.048528
endloop
endfacet
facet normal -0.838880 0.043643 -0.542564
outer loop
vertex 7.179861 10.756745 -5.227589
vertex 7.032594 8.963954 -5.144103
vertex 5.803049 8.963954 -3.243055
endloop
endfacet
facet normal -0.647248 -0.285377 -0.706846
outer loop
vertex 5.466710 10.756745 -3.658883
vertex 7.179861 10.756745 -5.227589
vertex 5.803049 8.963954 -3.243055
endloop
endfacet
facet normal 0.093564 -0.273720 -0.957248
outer loop
vertex 9.495073 10.756745 -5.416053
vertex 9.285871 8.963954 -4.923862
vertex 7.032594 8.963954 -5.144103
endloop
endfacet
facet normal -0.081070 -0.039718 -0.995917
outer loop
vertex 7.179861 10.756745 -5.227589
vertex 9.495073 10.756745 -5.416053
vertex 7.032594 8.963954 -5.144103
endloop
endfacet
facet normal 0.623459 -0.256699 -0.738515
outer loop
vertex 11.247322 10.756745 -3.891143
vertex 11.015848 8.963954 -3.463403
vertex 9.285871 8.963954 -4.923862
endloop
endfacet
facet normal 0.631552 -0.272931 -0.725707
outer loop
vertex 9.495073 10.756745 -5.416053
vertex 11.247322 10.756745 -3.891143
vertex 9.285871 8.963954 -4.923862
endloop
endfacet
facet normal -0.022505 0.156599 -0.987406
outer loop
vertex 13.475636 10.756745 -3.235138
vertex 13.279275 8.963954 -3.514993
vertex 11.015848 8.963954 -3.463403
endloop
endfacet
facet normal 0.272966 -0.256465 -0.927208
outer loop
vertex 11.247322 10.756745 -3.891143
vertex 13.475636 10.756745 -3.235138
vertex 11.015848 8.963954 -3.463403
endloop
endfacet
facet normal -0.589931 -0.192551 -0.784159
outer loop
vertex 14.830320 10.756745 -5.122082
vertex 15.088478 8.963954 -4.876075
vertex 13.279275 8.963954 -3.514993
endloop
endfacet
facet normal -0.799483 0.177163 -0.573969
outer loop
vertex 13.475636 10.756745 -3.235138
vertex 14.830320 10.756745 -5.122082
vertex 13.279275 8.963954 -3.514993
endloop
endfacet
facet normal -0.335396 0.106958 -0.935986
outer loop
vertex 17.135912 10.756745 -5.404874
vertex 17.219790 8.963954 -5.639798
vertex 15.088478 8.963954 -4.876075
endloop
endfacet
facet normal -0.120329 -0.151945 -0.981037
outer loop
vertex 14.830320 10.756745 -5.122082
vertex 17.135912 10.756745 -5.404874
vertex 15.088478 8.963954 -4.876075
endloop
endfacet
facet normal 0.680610 0.124645 -0.721965
outer loop
vertex 18.828358 10.756745 -3.813851
vertex 18.867177 8.963954 -4.086776
vertex 17.219790 8.963954 -5.639798
endloop
endfacet
facet normal 0.679436 0.126495 -0.722748
outer loop
vertex 17.135912 10.756745 -5.404874
vertex 18.828358 10.756745 -3.813851
vertex 17.219790 8.963954 -5.639798
endloop
endfacet
facet normal 0.651680 0.295612 -0.698517
outer loop
vertex 20.285494 10.756745 -2.004852
vertex 20.522615 8.963954 -2.542338
vertex 18.867177 8.963954 -4.086776
endloop
endfacet
facet normal 0.773908 0.111657 -0.623377
outer loop
vertex 18.828358 10.756745 -3.813851
vertex 20.285494 10.756745 -2.004852
vertex 18.867177 8.963954 -4.086776
endloop
endfacet
facet normal 0.744683 0.214605 -0.631975
outer loop
vertex 21.888647 10.756745 -0.323892
vertex 21.987547 8.963954 -0.816147
vertex 20.522615 8.963954 -2.542338
endloop
endfacet
facet normal 0.692635 0.289653 -0.660574
outer loop
vertex 20.285494 10.756745 -2.004852
vertex 21.888647 10.756745 -0.323892
vertex 20.522615 8.963954 -2.542338
endloop
endfacet
facet normal -0.560810 -0.477729 -0.676216
outer loop
vertex 3.707760 12.549535 -2.736230
vertex 4.090813 10.756745 -1.787350
vertex 2.302825 10.756745 -0.304507
endloop
endfacet
facet normal -0.840037 -0.071213 -0.537836
outer loop
vertex 2.377520 12.549535 -0.658550
vertex 3.707760 12.549535 -2.736230
vertex 2.302825 10.756745 -0.304507
endloop
endfacet
facet normal -0.750106 -0.365015 -0.551456
outer loop
vertex 5.300847 12.549535 -4.619940
vertex 5.466710 10.756745 -3.658883
vertex 4.090813 10.756745 -1.787350
endloop
endfacet
facet normal -0.681594 -0.450724 -0.576435
outer loop
vertex 3.707760 12.549535 -2.736230
vertex 5.300847 12.549535 -4.619940
vertex 4.090813 10.756745 -1.787350
endloop
endfacet
facet normal -0.631850 0.353022 -0.690030
outer loop
vertex 7.758067 12.549535 -4.839845
vertex 7.179861 10.756745 -5.227589
vertex 5.466710 10.756745 -3.658883
endloop
endfacet
facet normal -0.078361 -0.476633 -0.875603
outer loop
vertex 5.300847 12.549535 -4.619940
vertex 7.758067 12.549535 -4.839845
vertex 5.466710 10.756745 -3.658883
endloop
endfacet
facet normal -0.054208 0.744042 -0.665931
outer loop
vertex 9.787265 12.549535 -3.436760
vertex 9.495073 10.756745 -5.416053
vertex 7.179861 10.756745 -5.227589
endloop
endfacet
facet normal 0.568723 -0.005531 -0.822510
outer loop
vertex 7.758067 12.549535 -4.839845
vertex 9.787265 12.549535 -3.436760
vertex 7.179861 10.756745 -5.227589
endloop
endfacet
facet normal 0.420260 0.768229 -0.482914
outer loop
vertex 10.976178 12.549535 -1.275099
vertex 11.247322 10.756745 -3.891143
vertex 9.495073 10.756745 -5.416053
endloop
endfacet
facet normal 0.816539 0.362735 -0.449096
outer loop
vertex 9.787265 12.549535 -3.436760
vertex 10.976178 12.549535 -1.275099
vertex 9.495073 10.756745 -5.416053
endloop
endfacet
facet normal 0.180160 0.770092 -0.611965
outer loop
vertex 13.427083 12.549535 -0.993400
vertex 13.475636 10.756745 -3.235138
vertex 11.247322 10.756745 -3.891143
endloop
endfacet
facet normal 0.064317 0.826274 -0.559584
outer loop
vertex 10.976178 12.549535 -1.275099
vertex 13.427083 12.549535 -0.993400
vertex 11.247322 10.756745 -3.891143
endloop
endfacet
facet normal -0.713594 0.477835 -0.512307
outer loop
vertex 14.617885 12.549535 -3.154021
vertex 14.830320 10.756745 -5.122082
vertex 13.475636 10.756745 -3.235138
endloop
endfacet
facet normal -0.757643 0.501613 -0.417566
outer loop
vertex 13.427083 12.549535 -0.993400
vertex 14.617885 12.549535 -3.154021
vertex 13.475636 10.756745 -3.235138
endloop
endfacet
facet normal -0.114070 0.349391 -0.930007
outer loop
vertex 16.570406 12.549535 -4.661984
vertex 17.135912 10.756745 -5.404874
vertex 14.830320 10.756745 -5.122082
endloop
endfacet
facet normal -0.478142 0.622971 -0.619102
outer loop
vertex 14.617885 12.549535 -3.154021
vertex 16.570406 12.549535 -4.661984
vertex 14.830320 10.756745 -5.122082
endloop
endfacet
facet normal 0.639447 -0.358360 -0.680210
outer loop
vertex 19.035486 12.549535 -4.563644
vertex 18.828358 10.756745 -3.813851
vertex 17.135912 10.756745 -5.404874
endloop
endfacet
facet normal 0.036664 0.392403 -0.919062
outer loop
vertex 16.570406 12.549535 -4.661984
vertex 19.035486 12.549535 -4.563644
vertex 17.135912 10.756745 -5.404874
endloop
endfacet
facet normal 0.690834 -0.461625 -0.556462
outer loop
vertex 20.806121 12.549535 -2.845755
vertex 20.285494 10.756745 -2.004852
vertex 18.828358 10.756745 -3.813851
endloop
endfacet
facet normal 0.650790 -0.355723 -0.670771
outer loop
vertex 19.035486 12.549535 -4.563644
vertex 20.806121 12.549535 -2.845755
vertex 18.828358 10.756745 -3.813851
endloop
endfacet
facet normal 0.716184 -0.143338 -0.683033
outer loop
vertex 21.934597 12.549535 -0.651938
vertex 21.888647 10.756745 -0.323892
vertex 20.285494 10.756745 -2.004852
endloop
endfacet
facet normal 0.803927 -0.427426 -0.413532
outer loop
vertex 20.806121 12.549535 -2.845755
vertex 21.934597 12.549535 -0.651938
vertex 20.285494 10.756745 -2.004852
endloop
endfacet
facet normal -0.813086 0.260554 -0.520580
outer loop
vertex 4.109866 14.342326 -2.466970
vertex 3.707760 12.549535 -2.736230
vertex 2.377520 12.549535 -0.658550
endloop
endfacet
facet normal -0.757943 0.079257 -0.647488
outer loop
vertex 2.468112 14.342326 -0.545146
vertex 4.109866 14.342326 -2.466970
vertex 2.377520 12.549535 -0.658550
endloop
endfacet
facet normal -0.762952 -0.039593 -0.645242
outer loop
vertex 5.281235 14.342326 -4.706759
vertex 5.300847 12.549535 -4.619940
vertex 3.707760 12.549535 -2.736230
endloop
endfacet
facet normal -0.855852 0.259184 -0.447595
outer loop
vertex 4.109866 14.342326 -2.466970
vertex 5.281235 14.342326 -4.706759
vertex 3.707760 12.549535 -2.736230
endloop
endfacet
facet normal -0.087731 0.176898 -0.980311
outer loop
vertex 7.801945 14.342326 -4.520261
vertex 7.758067 12.549535 -4.839845
vertex 5.300847 12.549535 -4.619940
endloop
endfacet
facet normal 0.073702 -0.047434 -0.996152
outer loop
vertex 5.281235 14.342326 -4.706759
vertex 7.801945 14.342326 -4.520261
vertex 5.300847 12.549535 -4.619940
endloop
endfacet
facet normal 0.504567 0.461426 -0.729725
outer loop
vertex 9.405927 14.342326 -2.566802
vertex 9.787265 12.549535 -3.436760
vertex 7.758067 12.549535 -4.839845
endloop
endfacet
facet normal 0.769445 0.093792 -0.631790
outer loop
vertex 7.801945 14.342326 -4.520261
vertex 9.405927 14.342326 -2.566802
vertex 7.758067 12.549535 -4.839845
endloop
endfacet
facet normal 0.842806 0.273506 -0.463543
outer loop
vertex 10.831805 14.342326 -0.479787
vertex 10.976178 12.549535 -1.275099
vertex 9.787265 12.549535 -3.436760
endloop
endfacet
facet normal 0.753142 0.409889 -0.514557
outer loop
vertex 9.405927 14.342326 -2.566802
vertex 10.831805 14.342326 -0.479787
vertex 9.787265 12.549535 -3.436760
endloop
endfacet
facet normal 0.110507 0.251755 -0.961461
outer loop
vertex 13.358870 14.342326 -0.531805
vertex 13.427083 12.549535 -0.993400
vertex 10.976178 12.549535 -1.275099
endloop
endfacet
facet normal -0.018824 0.404168 -0.914491
outer loop
vertex 10.831805 14.342326 -0.479787
vertex 13.358870 14.342326 -0.531805
vertex 10.976178 12.549535 -1.275099
endloop
endfacet
facet normal -0.774115 0.467676 -0.426645
outer loop
vertex 15.206437 14.342326 -2.256699
vertex 14.617885 12.549535 -3.154021
vertex 13.427083 12.549535 -0.993400
endloop
endfacet
facet normal -0.673616 0.160143 -0.721523
outer loop
vertex 13.358870 14.342326 -0.531805
vertex 15.206437 14.342326 -2.256699
vertex 13.427083 12.549535 -0.993400
endloop
endfacet
facet normal -0.603871 0.154851 -0.781896
outer loop
vertex 16.624723 14.342326 -4.348881
vertex 16.570406 12.549535 -4.661984
vertex 14.617885 12.549535 -3.154021
endloop
endfacet
facet normal -0.724482 0.483655 -0.491125
outer loop
vertex 15.206437 14.342326 -2.256699
vertex 16.624723 14.342326 -4.348881
vertex 14.617885 12.549535 -3.154021
endloop
endfacet
facet normal 0.038935 -0.214420 -0.975965
outer loop
vertex 19.078373 14.342326 -4.955810
vertex 19.035486 12.549535 -4.563644
vertex 16.570406 12.549535 -4.661984
endloop
endfacet
facet normal -0.236453 0.174111 -0.955916
outer loop
vertex 16.624723 14.342326 -4.348881
vertex 19.078373 14.342326 -4.955810
vertex 16.570406 12.549535 -4.661984
endloop
endfacet
facet normal 0.689561 0.139154 -0.710733
outer loop
vertex 20.454643 14.342326 -2.835753
vertex 20.806121 12.549535 -2.845755
vertex 19.035486 12.549535 -4.563644
endloop
endfacet
facet normal 0.830756 -0.137843 -0.539299
outer loop
vertex 19.078373 14.342326 -4.955810
vertex 20.454643 14.342326 -2.835753
vertex 19.035486 12.549535 -4.563644
endloop
endfacet
facet normal 0.889029 -0.022301 -0.457307
outer loop
vertex 21.916790 14.342326 -0.773984
vertex 21.934597 12.549535 -0.651938
vertex 20.806121 12.549535 -2.845755
endloop
endfacet
facet normal 0.805058 0.161018 -0.570924
outer loop
vertex 20.454643 14.342326 -2.835753
vertex 21.916790 14.342326 -0.773984
vertex 20.806121 12.549535 -2.845755
endloop
endfacet
facet normal -0.740002 0.229717 -0.632161
outer loop
vertex 4.272857 16.135117 -2.006293
vertex 4.109866 14.342326 -2.466970
vertex 2.468112 14.342326 -0.545146
endloop
endfacet
facet normal -0.875636 0.153464 -0.457941
outer loop
vertex 5.359134 16.135117 -4.254915
vertex 5.281235 14.342326 -4.706759
vertex 4.109866 14.342326 -2.466970
endloop
endfacet
facet normal -0.884016 0.190106 -0.427055
outer loop
vertex 4.272857 16.135117 -2.006293
vertex 5.359134 16.135117 -4.254915
vertex 4.109866 14.342326 -2.466970
endloop
endfacet
facet normal 0.071801 0.230313 -0.970464
outer loop
vertex 7.851018 16.135117 -4.091161
vertex 7.801945 14.342326 -4.520261
vertex 5.281235 14.342326 -4.706759
endloop
endfacet
facet normal 0.063636 0.241295 -0.968363
outer loop
vertex 5.359134 16.135117 -4.254915
vertex 7.851018 16.135117 -4.091161
vertex 5.281235 14.342326 -4.706759
endloop
endfacet
facet normal 0.726164 0.342299 -0.596252
outer loop
vertex 9.089675 16.135117 -1.922744
vertex 9.405927 14.342326 -2.566802
vertex 7.801945 14.342326 -4.520261
endloop
endfacet
facet normal 0.864431 0.094525 -0.493786
outer loop
vertex 7.851018 16.135117 -4.091161
vertex 9.089675 16.135117 -1.922744
vertex 7.801945 14.342326 -4.520261
endloop
endfacet
facet normal 0.825411 0.026008 -0.563933
outer loop
vertex 10.937303 16.135117 -0.242692
vertex 10.831805 14.342326 -0.479787
vertex 9.405927 14.342326 -2.566802
endloop
endfacet
facet normal 0.627947 0.358861 -0.690581
outer loop
vertex 9.089675 16.135117 -1.922744
vertex 10.937303 16.135117 -0.242692
vertex 9.405927 14.342326 -2.566802
endloop
endfacet
facet normal -0.640016 0.347019 -0.685534
outer loop
vertex 15.482458 16.135117 -1.606878
vertex 15.206437 14.342326 -2.256699
vertex 13.358870 14.342326 -0.531805
endloop
endfacet
facet normal -0.810825 0.201101 -0.549656
outer loop
vertex 16.691737 16.135117 -3.791814
vertex 16.624723 14.342326 -4.348881
vertex 15.206437 14.342326 -2.256699
endloop
endfacet
facet normal -0.835646 0.296296 -0.462498
outer loop
vertex 15.482458 16.135117 -1.606878
vertex 16.691737 16.135117 -3.791814
vertex 15.206437 14.342326 -2.256699
endloop
endfacet
facet normal -0.240076 0.019251 -0.970563
outer loop
vertex 18.936886 16.135117 -4.885252
vertex 19.078373 14.342326 -4.955810
vertex 16.624723 14.342326 -4.348881
endloop
endfacet
facet normal -0.419880 0.283583 -0.862138
outer loop
vertex 16.691737 16.135117 -3.791814
vertex 18.936886 16.135117 -4.885252
vertex 16.624723 14.342326 -4.348881
endloop
endfacet
facet normal 0.823040 0.192715 -0.534290
outer loop
vertex 20.128921 16.135117 -2.690860
vertex 20.454643 14.342326 -2.835753
vertex 19.078373 14.342326 -4.955810
endloop
endfacet
facet normal 0.875327 0.087795 -0.475494
outer loop
vertex 18.936886 16.135117 -4.885252
vertex 20.128921 16.135117 -2.690860
vertex 19.078373 14.342326 -4.955810
endloop
endfacet
facet normal 0.814774 0.047683 -0.577814
outer loop
vertex 21.780711 16.135117 -0.817923
vertex 21.916790 14.342326 -0.773984
vertex 20.454643 14.342326 -2.835753
endloop
endfacet
facet normal 0.736853 0.186395 -0.649849
outer loop
vertex 20.128921 16.135117 -2.690860
vertex 21.780711 16.135117 -0.817923
vertex 20.454643 14.342326 -2.835753
endloop
endfacet
facet normal -0.772477 0.513830 -0.373173
outer loop
vertex 5.529281 17.927908 -2.138590
vertex 5.359134 16.135117 -4.254915
vertex 4.272857 16.135117 -2.006293
endloop
endfacet
facet normal -0.528432 0.312073 -0.789538
outer loop
vertex 3.842094 17.927908 -1.009367
vertex 5.529281 17.927908 -2.138590
vertex 4.272857 16.135117 -2.006293
endloop
endfacet
facet normal 0.040924 0.781346 -0.622755
outer loop
vertex 7.540589 17.927908 -1.862215
vertex 7.851018 16.135117 -4.091161
vertex 5.359134 16.135117 -4.254915
endloop
endfacet
facet normal 0.089037 0.756449 -0.647964
outer loop
vertex 5.529281 17.927908 -2.138590
vertex 7.540589 17.927908 -1.862215
vertex 5.359134 16.135117 -4.254915
endloop
endfacet
facet normal 0.769361 0.463619 -0.439479
outer loop
vertex 8.903469 17.927908 -0.357455
vertex 9.089675 16.135117 -1.922744
vertex 7.851018 16.135117 -4.091161
endloop
endfacet
facet normal 0.533893 0.693639 -0.483553
outer loop
vertex 7.540589 17.927908 -1.862215
vertex 8.903469 17.927908 -0.357455
vertex 7.851018 16.135117 -4.091161
endloop
endfacet
facet normal 0.667604 0.123555 -0.734193
outer loop
vertex 10.897709 17.927908 0.023008
vertex 10.937303 16.135117 -0.242692
vertex 9.089675 16.135117 -1.922744
endloop
endfacet
facet normal 0.140887 0.659397 -0.738475
outer loop
vertex 8.903469 17.927908 -0.357455
vertex 10.897709 17.927908 0.023008
vertex 9.089675 16.135117 -1.922744
endloop
endfacet
facet normal -0.689479 0.615630 -0.381600
outer loop
vertex 16.747670 17.927908 -1.000595
vertex 16.691737 16.135117 -3.791814
vertex 15.482458 16.135117 -1.606878
endloop
endfacet
facet normal -0.276695 0.775023 -0.568137
outer loop
vertex 18.401106 17.927908 -2.178684
vertex 18.936886 16.135117 -4.885252
vertex 16.691737 16.135117 -3.791814
endloop
endfacet
facet normal -0.356194 0.789437 -0.499915
outer loop
vertex 16.747670 17.927908 -1.000595
vertex 18.401106 17.927908 -2.178684
vertex 16.691737 16.135117 -3.791814
endloop
endfacet
facet normal 0.817834 0.365756 -0.444263
outer loop
vertex 20.158013 17.927908 -1.161323
vertex 20.128921 16.135117 -2.690860
vertex 18.936886 16.135117 -4.885252
endloop
endfacet
facet normal 0.283672 0.824347 -0.489881
outer loop
vertex 18.401106 17.927908 -2.178684
vertex 20.158013 17.927908 -1.161323
vertex 18.936886 16.135117 -4.885252
endloop
endfacet
facet normal 0.748670 0.059467 -0.660270
outer loop
vertex 22.029494 17.927908 -0.374365
vertex 21.780711 16.135117 -0.817923
vertex 20.128921 16.135117 -2.690860
endloop
endfacet
facet normal 0.305618 0.615114 -0.726796
outer loop
vertex 20.158013 17.927908 -1.161323
vertex 22.029494 17.927908 -0.374365
vertex 20.128921 16.135117 -2.690860
endloop
endfacet
facet normal -0.407364 0.680884 -0.608648
outer loop
vertex 5.365724 19.720698 -0.023559
vertex 5.529281 17.927908 -2.138590
vertex 3.842094 17.927908 -1.009367
endloop
endfacet
facet normal 0.093962 0.723590 -0.683805
outer loop
vertex 7.271761 19.720698 -0.002057
vertex 7.540589 17.927908 -1.862215
vertex 5.529281 17.927908 -2.138590
endloop
endfacet
facet normal 0.007290 0.763084 -0.646259
outer loop
vertex 5.365724 19.720698 -0.023559
vertex 7.271761 19.720698 -0.002057
vertex 5.529281 17.927908 -2.138590
endloop
endfacet
facet normal 0.740933 0.026094 -0.671072
outer loop
vertex 9.177840 19.720698 0.015190
vertex 8.903469 17.927908 -0.357455
vertex 7.540589 17.927908 -1.862215
endloop
endfacet
facet normal 0.006275 0.720464 -0.693464
outer loop
vertex 7.271761 19.720698 -0.002057
vertex 9.177840 19.720698 0.015190
vertex 7.540589 17.927908 -1.862215
endloop
endfacet
facet normal -0.391066 0.738798 -0.548858
outer loop
vertex 18.708627 19.720698 0.015415
vertex 18.401106 17.927908 -2.178684
vertex 16.747670 17.927908 -1.000595
endloop
endfacet
facet normal 0.474009 0.324412 -0.818579
outer loop
vertex 20.603364 19.720698 -0.192933
vertex 20.158013 17.927908 -1.161323
vertex 18.401106 17.927908 -2.178684
endloop
endfacet
facet normal -0.068774 0.777237 -0.625438
outer loop
vertex 18.708627 19.720698 0.015415
vertex 20.603364 19.720698 -0.192933
vertex 18.401106 17.927908 -2.178684
endloop
endfacet
facet normal 0.362440 -0.354569 -0.861927
outer loop
vertex 22.338582 19.720698 -0.981891
vertex 22.029494 17.927908 -0.374365
vertex 20.158013 17.927908 -1.161323
endloop
endfacet
facet normal -0.355771 0.511038 -0.782475
outer loop
vertex 20.603364 19.720698 -0.192933
vertex 22.338582 19.720698 -0.981891
vertex 20.158013 17.927908 -1.161323
endloop
endfacet
facet normal 0.461859 -0.355057 -0.812786
outer loop
vertex 22.338582 19.720698 -0.981891
vertex 23.995860 19.720698 -0.040156
vertex 22.029494 17.927908 -0.374365
endloop
endfacet
facet normal 0.000000 -1.000000 0.000000
outer loop
vertex 1.949975 0.000000 2.573825
vertex 0.000000 0.000000 2.420813
vertex 0.000000 0.000000 -2.420813
endloop
endfacet
facet normal 0.000000 -1.000000 -0.000000
outer loop
vertex 1.949975 0.000000 2.573825
vertex 0.000000 0.000000 -2.420813
vertex 1.949975 0.000000 -2.573825
endloop
endfacet
facet normal -1.000000 0.000000 0.000000
outer loop
vertex 0.000000 0.000000 2.420813
vertex 0.000000 1.792791 1.806024
vertex 0.000000 1.792791 -1.806024
endloop
endfacet
facet normal -1.000000 0.000000 0.000000
outer loop
vertex 0.000000 0.000000 2.420813
vertex 0.000000 1.792791 -1.806024
vertex 0.000000 0.000000 -2.420813
endloop
endfacet
facet normal -0.000000 -1.000000 0.000000
outer loop
vertex 3.417828 0.000000 1.281067
vertex 1.949975 0.000000 2.573825
vertex 1.949975 0.000000 -2.573825
endloop
endfacet
facet normal 0.000000 -1.000000 -0.000000
outer loop
vertex 3.417828 0.000000 1.281067
vertex 1.949975 0.000000 -2.573825
vertex 3.417828 0.000000 -1.281067
endloop
endfacet
facet normal -0.000000 -1.000000 0.000000
outer loop
vertex 5.094914 0.000000 0.274491
vertex 3.417828 0.000000 1.281067
vertex 3.417828 0.000000 -1.281067
endloop
endfacet
facet normal 0.000000 -1.000000 -0.000000
outer loop
vertex 5.094914 0.000000 0.274491
vertex 3.417828 0.000000 -1.281067
vertex 5.094914 0.000000 -0.274491
endloop
endfacet
facet normal 0.783777 -0.621043 0.000000
outer loop
vertex 6.515471 1.792791 1.289473
vertex 5.094914 0.000000 0.274491
vertex 5.094914 0.000000 -0.274491
endloop
endfacet
facet normal 0.783777 -0.621043 0.000000
outer loop
vertex 6.515471 1.792791 1.289473
vertex 5.094914 0.000000 -0.274491
vertex 6.515471 1.792791 -1.289473
endloop
endfacet
facet normal 0.000000 -1.000000 0.000000
outer loop
vertex 18.763873 0.000000 0.144891
vertex 16.812780 0.000000 0.006867
vertex 16.812780 0.000000 -0.006867
endloop
endfacet
facet normal 0.000000 -1.000000 -0.000000
outer loop
vertex 18.763873 0.000000 0.144891
vertex 16.812780 0.000000 -0.006867
vertex 18.763873 0.000000 -0.144891
endloop
endfacet
facet normal -0.935267 0.353943 0.000000
outer loop
vertex 16.812780 0.000000 0.006867
vertex 17.491244 1.792791 0.969896
vertex 17.491244 1.792791 -0.969896
endloop
endfacet
facet normal -0.935267 0.353943 0.000000
outer loop
vertex 16.812780 0.000000 0.006867
vertex 17.491244 1.792791 -0.969896
vertex 16.812780 0.000000 -0.006867
endloop
endfacet
facet normal 0.000000 -1.000000 0.000000
outer loop
vertex 20.520690 0.000000 1.004780
vertex 18.763873 0.000000 0.144891
vertex 18.763873 0.000000 -0.144891
endloop
endfacet
facet normal 0.000000 -1.000000 -0.000000
outer loop
vertex 20.520690 0.000000 1.004780
vertex 18.763873 0.000000 -0.144891
vertex 20.520690 0.000000 -1.004780
endloop
endfacet
facet normal 0.000000 -1.000000 0.000000
outer loop
vertex 22.050230 0.000000 2.223928
vertex 20.520690 0.000000 1.004780
vertex 20.520690 0.000000 -1.004780
endloop
endfacet
facet normal 0.000000 -1.000000 -0.000000
outer loop
vertex 22.050230 0.000000 2.223928
vertex 20.520690 0.000000 -1.004780
vertex 22.050230 0.000000 -2.223928
endloop
endfacet
facet normal -0.000000 -1.000000 0.000000
outer loop
vertex 24.005764 0.000000 2.182659
vertex 22.050230 0.000000 2.223928
vertex 22.050230 0.000000 -2.223928
endloop
endfacet
facet normal 0.000000 -1.000000 -0.000000
outer loop
vertex 24.005764 0.000000 2.182659
vertex 22.050230 0.000000 -2.223928
vertex 24.005764 0.000000 -2.182659
endloop
endfacet
facet normal 0.996808 -0.079838 0.000000
outer loop
vertex 24.149356 1.792791 1.819898
vertex 24.005764 0.000000 2.182659
vertex 24.005764 0.000000 -2.182659
endloop
endfacet
facet normal 0.996808 -0.079838 0.000000
outer loop
vertex 24.149356 1.792791 1.819898
vertex 24.005764 0.000000 -2.182659
vertex 24.149356 1.792791 -1.819898
endloop
endfacet
facet normal -1.000000 0.000000 0.000000
outer loop
vertex 0.000000 1.792791 1.806024
vertex 0.000000 3.585582 0.449149
vertex 0.000000 3.585582 -0.449149
endloop
endfacet
facet normal -1.000000 0.000000 0.000000
outer loop
vertex 0.000000 1.792791 1.806024
vertex 0.000000 3.585582 -0.449149
vertex 0.000000 1.792791 -1.806024
endloop
endfacet
facet normal 0.670181 -0.742197 0.000000
outer loop
vertex 8.500911 3.585582 0.881643
vertex 6.515471 1.792791 1.289473
vertex 6.515471 1.792791 -1.289473
endloop
endfacet
facet normal 0.670181 -0.742197 0.000000
outer loop
vertex 8.500911 3.585582 0.881643
vertex 6.515471 1.792791 -1.289473
vertex 8.500911 3.585582 -0.881643
endloop
endfacet
facet normal 0.000000 -1.000000 0.000000
outer loop
vertex 17.491244 1.792791 0.969896
vertex 15.373716 1.792791 0.076788
vertex 15.373716 1.792791 -0.076788
endloop
endfacet
facet normal 0.000000 -1.000000 -0.000000
outer loop
vertex 17.491244 1.792791 0.969896
vertex 15.373716 1.792791 -0.076788
vertex 17.491244 1.792791 -0.969896
endloop
endfacet
facet normal -0.989349 0.145564 0.000000
outer loop
vertex 15.373716 1.792791 0.076788
vertex 15.637491 3.585582 0.643443
vertex 15.637491 3.585582 -0.643443
endloop
endfacet
facet normal -0.989349 0.145564 0.000000
outer loop
vertex 15.373716 1.792791 0.076788
vertex 15.637491 3.585582 -0.643443
vertex 15.373716 1.792791 -0.076788
endloop
endfacet
facet normal 0.999181 -0.040471 0.000000
outer loop
vertex 24.221971 3.585582 0.531456
vertex 24.149356 1.792791 1.819898
vertex 24.149356 1.792791 -1.819898
endloop
endfacet
facet normal 0.999181 -0.040471 0.000000
outer loop
vertex 24.221971 3.585582 0.531456
vertex 24.149356 1.792791 -1.819898
vertex 24.221971 3.585582 -0.531456
endloop
endfacet
facet normal -1.000000 0.000000 0.000000
outer loop
vertex 0.000000 3.585582 0.449149
vertex 0.000000 5.378372 0.002981
vertex 0.000000 5.378372 -0.002981
endloop
endfacet
facet normal -1.000000 0.000000 0.000000
outer loop
vertex 0.000000 3.585582 0.449149
vertex 0.000000 5.378372 -0.002981
vertex 0.000000 3.585582 -0.449149
endloop
endfacet
facet normal 0.626331 -0.779557 0.000000
outer loop
vertex 10.732289 5.378372 0.186482
vertex 8.500911 3.585582 0.881643
vertex 8.500911 3.585582 -0.881643
endloop
endfacet
facet normal 0.626331 -0.779557 0.000000
outer loop
vertex 10.732289 5.378372 0.186482
vertex 8.500911 3.585582 -0.881643
vertex 10.732289 5.378372 -0.186482
endloop
endfacet
facet normal -0.990732 -0.135833 0.000000
outer loop
vertex 15.637491 3.585582 0.643443
vertex 15.391693 5.378372 1.900981
vertex 15.391693 5.378372 -1.900981
endloop
endfacet
facet normal -0.990732 -0.135833 -0.000000
outer loop
vertex 15.637491 3.585582 0.643443
vertex 15.391693 5.378372 -1.900981
vertex 15.637491 3.585582 -0.643443
endloop
endfacet
facet normal 0.997911 0.064608 0.000000
outer loop
vertex 24.105900 5.378372 0.017312
vertex 24.221971 3.585582 0.531456
vertex 24.221971 3.585582 -0.531456
endloop
endfacet
facet normal 0.997911 0.064608 0.000000
outer loop
vertex 24.105900 5.378372 0.017312
vertex 24.221971 3.585582 -0.531456
vertex 24.105900 5.378372 -0.017312
endloop
endfacet
facet normal -1.000000 0.000000 0.000000
outer loop
vertex 0.000000 5.378372 0.002981
vertex 0.000000 7.171163 0.000000
vertex 0.000000 5.378372 -0.002981
endloop
endfacet
facet normal 0.994926 -0.100610 0.000000
outer loop
vertex 10.913581 7.171163 0.908644
vertex 10.732289 5.378372 0.186482
vertex 10.732289 5.378372 -0.186482
endloop
endfacet
facet normal 0.994926 -0.100610 0.000000
outer loop
vertex 10.913581 7.171163 0.908644
vertex 10.732289 5.378372 -0.186482
vertex 10.913581 7.171163 -0.908644
endloop
endfacet
facet normal 0.000000 -1.000000 0.000000
outer loop
vertex 15.391693 5.378372 1.900981
vertex 13.379030 5.378372 0.182131
vertex 13.379030 5.378372 -0.182131
endloop
endfacet
facet normal 0.000000 -1.000000 -0.000000
outer loop
vertex 15.391693 5.378372 1.900981
vertex 13.379030 5.378372 -0.182131
vertex 15.391693 5.378372 -1.900981
endloop
endfacet
facet normal -0.998678 0.051407 0.000000
outer loop
vertex 13.379030 5.378372 0.182131
vertex 13.471313 7.171163 1.065842
vertex 13.471313 7.171163 -1.065842
endloop
endfacet
facet normal -0.998678 0.051407 0.000000
outer loop
vertex 13.379030 5.378372 0.182131
vertex 13.471313 7.171163 -1.065842
vertex 13.379030 5.378372 -0.182131
endloop
endfacet
facet normal 0.998716 -0.050653 0.000000
outer loop
vertex 24.196828 7.171163 0.040413
vertex 24.105900 5.378372 0.017312
vertex 24.105900 5.378372 -0.017312
endloop
endfacet
facet normal 0.998716 -0.050653 0.000000
outer loop
vertex 24.196828 7.171163 0.040413
vertex 24.105900 5.378372 -0.017312
vertex 24.196828 7.171163 -0.040413
endloop
endfacet
facet normal -0.631491 0.775383 0.000000
outer loop
vertex 0.000000 7.171163 0.000000
vertex 2.201299 8.963954 0.529193
vertex 2.201299 8.963954 -0.529193
endloop
endfacet
facet normal 0.000000 -1.000000 0.000000
outer loop
vertex 13.471313 7.171163 1.065842
vertex 10.913581 7.171163 0.908644
vertex 10.913581 7.171163 -0.908644
endloop
endfacet
facet normal 0.000000 -1.000000 -0.000000
outer loop
vertex 13.471313 7.171163 1.065842
vertex 10.913581 7.171163 -0.908644
vertex 13.471313 7.171163 -1.065842
endloop
endfacet
facet normal 0.999396 0.034739 0.000000
outer loop
vertex 24.134511 8.963954 0.097600
vertex 24.196828 7.171163 0.040413
vertex 24.196828 7.171163 -0.040413
endloop
endfacet
facet normal 0.999396 0.034739 0.000000
outer loop
vertex 24.134511 8.963954 0.097600
vertex 24.196828 7.171163 -0.040413
vertex 24.134511 8.963954 -0.097600
endloop
endfacet
facet normal 0.000000 1.000000 0.000000
outer loop
vertex 21.987547 8.963954 0.816147
vertex 24.134511 8.963954 0.097600
vertex 24.134511 8.963954 -0.097600
endloop
endfacet
facet normal 0.000000 1.000000 0.000000
outer loop
vertex 21.987547 8.963954 0.816147
vertex 24.134511 8.963954 -0.097600
vertex 21.987547 8.963954 -0.816147
endloop
endfacet
facet normal -0.688296 0.725430 0.000000
outer loop
vertex 2.201299 8.963954 0.529193
vertex 4.090813 10.756745 1.787350
vertex 4.090813 10.756745 -1.787350
endloop
endfacet
facet normal -0.688296 0.725430 0.000000
outer loop
vertex 2.201299 8.963954 0.529193
vertex 4.090813 10.756745 -1.787350
vertex 2.201299 8.963954 -0.529193
endloop
endfacet
facet normal 0.998482 0.055082 0.000000
outer loop
vertex 21.888647 10.756745 0.323892
vertex 21.987547 8.963954 0.816147
vertex 21.987547 8.963954 -0.816147
endloop
endfacet
facet normal 0.998482 0.055082 0.000000
outer loop
vertex 21.888647 10.756745 0.323892
vertex 21.987547 8.963954 -0.816147
vertex 21.888647 10.756745 -0.323892
endloop
endfacet
facet normal 0.000000 -1.000000 0.000000
outer loop
vertex 4.090813 10.756745 1.787350
vertex 2.302825 10.756745 0.304507
vertex 2.302825 10.756745 -0.304507
endloop
endfacet
facet normal 0.000000 -1.000000 -0.000000
outer loop
vertex 4.090813 10.756745 1.787350
vertex 2.302825 10.756745 -0.304507
vertex 4.090813 10.756745 -1.787350
endloop
endfacet
facet normal -0.999133 0.041628 0.000000
outer loop
vertex 2.302825 10.756745 0.304507
vertex 2.377520 12.549535 0.658550
vertex 2.377520 12.549535 -0.658550
endloop
endfacet
facet normal -0.999133 0.041628 0.000000
outer loop
vertex 2.302825 10.756745 0.304507
vertex 2.377520 12.549535 -0.658550
vertex 2.302825 10.756745 -0.304507
endloop
endfacet
facet normal 0.999672 -0.025622 0.000000
outer loop
vertex 21.934597 12.549535 0.651938
vertex 21.888647 10.756745 0.323892
vertex 21.888647 10.756745 -0.323892
endloop
endfacet
facet normal 0.999672 -0.025622 0.000000
outer loop
vertex 21.934597 12.549535 0.651938
vertex 21.888647 10.756745 -0.323892
vertex 21.934597 12.549535 -0.651938
endloop
endfacet
facet normal -0.998726 0.050467 0.000000
outer loop
vertex 2.377520 12.549535 0.658550
vertex 2.468112 14.342326 0.545146
vertex 2.468112 14.342326 -0.545146
endloop
endfacet
facet normal -0.998726 0.050467 0.000000
outer loop
vertex 2.377520 12.549535 0.658550
vertex 2.468112 14.342326 -0.545146
vertex 2.377520 12.549535 -0.658550
endloop
endfacet
facet normal -0.000000 1.000000 0.000000
outer loop
vertex 10.831805 14.342326 0.479787
vertex 13.358870 14.342326 0.531805
vertex 13.358870 14.342326 -0.531805
endloop
endfacet
facet normal 0.000000 1.000000 0.000000
outer loop
vertex 10.831805 14.342326 0.479787
vertex 13.358870 14.342326 -0.531805
vertex 10.831805 14.342326 -0.479787
endloop
endfacet
facet normal 0.999951 0.009932 0.000000
outer loop
vertex 21.916790 14.342326 0.773984
vertex 21.934597 12.549535 0.651938
vertex 21.934597 12.549535 -0.651938
endloop
endfacet
facet normal 0.999951 0.009932 0.000000
outer loop
vertex 21.916790 14.342326 0.773984
vertex 21.934597 12.549535 -0.651938
vertex 21.916790 14.342326 -0.773984
endloop
endfacet
facet normal -0.704753 0.709452 0.000000
outer loop
vertex 2.468112 14.342326 0.545146
vertex 4.272857 16.135117 2.006293
vertex 4.272857 16.135117 -2.006293
endloop
endfacet
facet normal -0.704753 0.709452 0.000000
outer loop
vertex 2.468112 14.342326 0.545146
vertex 4.272857 16.135117 -2.006293
vertex 2.468112 14.342326 -0.545146
endloop
endfacet
facet normal 0.998273 -0.058744 0.000000
outer loop
vertex 10.937303 16.135117 0.242692
vertex 10.831805 14.342326 0.479787
vertex 10.831805 14.342326 -0.479787
endloop
endfacet
facet normal 0.998273 -0.058744 0.000000
outer loop
vertex 10.937303 16.135117 0.242692
vertex 10.831805 14.342326 -0.479787
vertex 10.937303 16.135117 -0.242692
endloop
endfacet
facet normal -0.645084 0.764112 0.000000
outer loop
vertex 13.358870 14.342326 0.531805
vertex 15.482458 16.135117 1.606878
vertex 15.482458 16.135117 -1.606878
endloop
endfacet
facet normal -0.645084 0.764112 0.000000
outer loop
vertex 13.358870 14.342326 0.531805
vertex 15.482458 16.135117 -1.606878
vertex 13.358870 14.342326 -0.531805
endloop
endfacet
facet normal 0.997132 0.075686 0.000000
outer loop
vertex 21.780711 16.135117 0.817923
vertex 21.916790 14.342326 0.773984
vertex 21.916790 14.342326 -0.773984
endloop
endfacet
facet normal 0.997132 0.075686 0.000000
outer loop
vertex 21.780711 16.135117 0.817923
vertex 21.916790 14.342326 -0.773984
vertex 21.780711 16.135117 -0.817923
endloop
endfacet
facet normal -0.972327 -0.233626 0.000000
outer loop
vertex 4.272857 16.135117 2.006293
vertex 3.842094 17.927908 1.009367
vertex 3.842094 17.927908 -1.009367
endloop
endfacet
facet normal -0.972327 -0.233626 -0.000000
outer loop
vertex 4.272857 16.135117 2.006293
vertex 3.842094 17.927908 -1.009367
vertex 4.272857 16.135117 -2.006293
endloop
endfacet
facet normal 0.999756 0.022080 0.000000
outer loop
vertex 10.897709 17.927908 -0.023008
vertex 10.937303 16.135117 0.242692
vertex 10.937303 16.135117 -0.242692
endloop
endfacet
facet normal -0.999756 -0.022080 0.000000
outer loop
vertex 10.897709 17.927908 -0.023008
vertex 10.937303 16.135117 -0.242692
vertex 10.897709 17.927908 0.023008
endloop
endfacet
facet normal 0.000000 -1.000000 0.000000
outer loop
vertex 8.903469 17.927908 0.357455
vertex 10.897709 17.927908 -0.023008
vertex 10.897709 17.927908 0.023008
endloop
endfacet
facet normal 0.000000 1.000000 0.000000
outer loop
vertex 8.903469 17.927908 0.357455
vertex 10.897709 17.927908 0.023008
vertex 8.903469 17.927908 -0.357455
endloop
endfacet
facet normal -0.817030 0.576596 0.000000
outer loop
vertex 15.482458 16.135117 1.606878
vertex 16.747670 17.927908 1.000595
vertex 16.747670 17.927908 -1.000595
endloop
endfacet
facet normal -0.817030 0.576596 0.000000
outer loop
vertex 15.482458 16.135117 1.606878
vertex 16.747670 17.927908 -1.000595
vertex 15.482458 16.135117 -1.606878
endloop
endfacet
facet normal 0.990508 -0.137452 0.000000
outer loop
vertex 22.029494 17.927908 0.374365
vertex 21.780711 16.135117 0.817923
vertex 21.780711 16.135117 -0.817923
endloop
endfacet
facet normal 0.990508 -0.137452 0.000000
outer loop
vertex 22.029494 17.927908 0.374365
vertex 21.780711 16.135117 -0.817923
vertex 22.029494 17.927908 -0.374365
endloop
endfacet
facet normal -0.761990 0.647589 0.000000
outer loop
vertex 3.842094 17.927908 1.009367
vertex 5.365724 19.720698 0.023559
vertex 5.365724 19.720698 -0.023559
endloop
endfacet
facet normal -0.761990 0.647589 0.000000
outer loop
vertex 3.842094 17.927908 1.009367
vertex 5.365724 19.720698 -0.023559
vertex 3.842094 17.927908 -1.009367
endloop
endfacet
facet normal 0.000000 1.000000 0.000000
outer loop
vertex 5.365724 19.720698 0.023559
vertex 7.271761 19.720698 0.002057
vertex 7.271761 19.720698 -0.002057
endloop
endfacet
facet normal 0.000000 1.000000 0.000000
outer loop
vertex 5.365724 19.720698 0.023559
vertex 7.271761 19.720698 -0.002057
vertex 5.365724 19.720698 -0.023559
endloop
endfacet
facet normal 0.988491 -0.151280 0.000000
outer loop
vertex 9.177840 19.720698 -0.015190
vertex 8.903469 17.927908 0.357455
vertex 8.903469 17.927908 -0.357455
endloop
endfacet
facet normal -0.988491 0.151280 0.000000
outer loop
vertex 9.177840 19.720698 -0.015190
vertex 8.903469 17.927908 -0.357455
vertex 9.177840 19.720698 0.015190
endloop
endfacet
facet normal 0.000000 -1.000000 0.000000
outer loop
vertex 7.271761 19.720698 0.002057
vertex 9.177840 19.720698 -0.015190
vertex 9.177840 19.720698 0.015190
endloop
endfacet
facet normal -0.000000 1.000000 0.000000
outer loop
vertex 7.271761 19.720698 0.002057
vertex 9.177840 19.720698 0.015190
vertex 7.271761 19.720698 -0.002057
endloop
endfacet
facet normal 0.674752 -0.738045 0.000000
outer loop
vertex 16.747670 17.927908 1.000595
vertex 18.708627 19.720698 -0.015415
vertex 18.708627 19.720698 0.015415
endloop
endfacet
facet normal -0.674752 0.738045 0.000000
outer loop
vertex 16.747670 17.927908 1.000595
vertex 18.708627 19.720698 0.015415
vertex 16.747670 17.927908 -1.000595
endloop
endfacet
facet normal -0.000000 1.000000 0.000000
outer loop
vertex 18.708627 19.720698 -0.015415
vertex 20.603364 19.720698 0.192933
vertex 20.603364 19.720698 -0.192933
endloop
endfacet
facet normal 0.000000 -1.000000 0.000000
outer loop
vertex 18.708627 19.720698 -0.015415
vertex 20.603364 19.720698 -0.192933
vertex 18.708627 19.720698 0.015415
endloop
endfacet
facet normal -0.000000 1.000000 0.000000
outer loop
vertex 20.603364 19.720698 0.192933
vertex 22.338582 19.720698 0.981891
vertex 22.338582 19.720698 -0.981891
endloop
endfacet
facet normal 0.000000 1.000000 0.000000
outer loop
vertex 20.603364 19.720698 0.192933
vertex 22.338582 19.720698 -0.981891
vertex 20.603364 19.720698 -0.192933
endloop
endfacet
facet normal 0.673739 -0.738969 0.000000
outer loop
vertex 23.995860 19.720698 0.040156
vertex 22.029494 17.927908 0.374365
vertex 22.029494 17.927908 -0.374365
endloop
endfacet
facet normal 0.673739 -0.738969 0.000000
outer loop
vertex 23.995860 19.720698 0.040156
vertex 22.029494 17.927908 -0.374365
vertex 23.995860 19.720698 -0.040156
endloop
endfacet
facet normal 0.000000 1.000000 0.000000
outer loop
vertex 22.338582 19.720698 0.981891
vertex 23.995860 19.720698 0.040156
vertex 23.995860 19.720698 -0.040156
endloop
endfacet
facet normal 0.000000 1.000000 0.000000
outer loop
vertex 22.338582 19.720698 0.981891
vertex 23.995860 19.720698 -0.040156
vertex 22.338582 19.720698 -0.981891
endloop
endfacet
endsolid foldforge
