solid foldforge
facet normal -0.096892 -0.492149 0.865102
outer loop
vertex 16.393484 0.000000 0.000000
vertex 19.108754 0.000000 0.304113
vertex 19.051157 2.559796 1.753907
endloop
endfacet
facet normal -0.488366 -0.087834 0.868207
outer loop
vertex 16.393484 0.000000 0.000000
vertex 19.051157 2.559796 1.753907
vertex 16.631210 2.559796 0.392687
endloop
endfacet
facet normal -0.351977 -0.478884 0.804227
outer loop
vertex 19.108754 0.000000 0.304113
vertex 21.611776 0.000000 1.399582
vertex 21.576311 2.559796 2.908315
endloop
endfacet
facet normal -0.368209 -0.464453 0.805422
outer loop
vertex 19.108754 0.000000 0.304113
vertex 21.576311 2.559796 2.908315
vertex 19.051157 2.559796 1.753907
endloop
endfacet
facet normal 0.437288 -0.452138 0.777400
outer loop
vertex 21.611776 0.000000 1.399582
vertex 23.993136 0.000000 0.060067
vertex 23.996258 2.559796 1.547094
endloop
endfacet
facet normal 0.437288 -0.452138 0.777400
outer loop
vertex 21.611776 0.000000 1.399582
vertex 23.996258 2.559796 1.547094
vertex 21.576311 2.559796 2.908315
endloop
endfacet
facet normal 0.000000 -0.491238 0.871025
outer loop
vertex 0.000000 2.559796 0.000000
vertex 2.776520 2.559796 0.000000
vertex 2.566515 5.119593 1.443665
endloop
endfacet
facet normal -0.490261 0.000000 0.871576
outer loop
vertex 0.000000 2.559796 0.000000
vertex 2.566515 5.119593 1.443665
vertex 0.000000 5.119593 0.000000
endloop
endfacet
facet normal 0.000000 -0.494296 0.869294
outer loop
vertex 2.776520 2.559796 0.000000
vertex 5.553040 2.559796 0.000000
vertex 5.511176 5.119593 1.455544
endloop
endfacet
facet normal -0.003513 -0.491453 0.870897
outer loop
vertex 2.776520 2.559796 0.000000
vertex 5.511176 5.119593 1.455544
vertex 2.566515 5.119593 1.443665
endloop
endfacet
facet normal 0.000000 -0.397600 0.917559
outer loop
vertex 5.553040 2.559796 0.000000
vertex 8.329560 2.559796 0.000000
vertex 8.435425 5.119593 1.109221
endloop
endfacet
facet normal 0.102495 -0.490425 0.865435
outer loop
vertex 5.553040 2.559796 0.000000
vertex 8.435425 5.119593 1.109221
vertex 5.511176 5.119593 1.455544
endloop
endfacet
facet normal 0.358545 -0.383609 0.851052
outer loop
vertex 8.329560 2.559796 0.000000
vertex 11.149114 5.119593 -0.034045
vertex 8.435425 5.119593 1.109221
endloop
endfacet
facet normal -0.121596 -0.510711 0.851110
outer loop
vertex 13.882599 2.559796 0.000000
vertex 16.631210 2.559796 0.392687
vertex 16.614626 5.119593 1.926330
endloop
endfacet
facet normal -0.486005 -0.131490 0.864008
outer loop
vertex 13.882599 2.559796 0.000000
vertex 16.614626 5.119593 1.926330
vertex 14.048110 5.119593 0.482665
endloop
endfacet
facet normal -0.434012 -0.465084 0.771577
outer loop
vertex 16.631210 2.559796 0.392687
vertex 19.051157 2.559796 1.753907
vertex 19.181141 5.119593 3.369995
endloop
endfacet
facet normal -0.434012 -0.465084 0.771577
outer loop
vertex 16.631210 2.559796 0.392687
vertex 19.181141 5.119593 3.369995
vertex 16.614626 5.119593 1.926330
endloop
endfacet
facet normal -0.408072 -0.191602 0.892618
outer loop
vertex 19.051157 2.559796 1.753907
vertex 21.576311 2.559796 2.908315
vertex 22.107220 5.119593 3.700491
endloop
endfacet
facet normal -0.095318 -0.527949 0.843910
outer loop
vertex 19.051157 2.559796 1.753907
vertex 22.107220 5.119593 3.700491
vertex 19.181141 5.119593 3.369995
endloop
endfacet
facet normal 0.490259 0.003279 0.871571
outer loop
vertex 21.576311 2.559796 2.908315
vertex 23.996258 2.559796 1.547094
vertex 24.063563 5.119593 1.499606
endloop
endfacet
facet normal 0.703090 -0.339231 0.624969
outer loop
vertex 21.576311 2.559796 2.908315
vertex 24.063563 5.119593 1.499606
vertex 22.107220 5.119593 3.700491
endloop
endfacet
facet normal -0.366478 -0.664245 0.651516
outer loop
vertex 0.000000 5.119593 0.000000
vertex 2.566515 5.119593 1.443665
vertex 1.972989 7.679389 3.719612
endloop
endfacet
facet normal -0.696491 -0.362784 0.619103
outer loop
vertex 0.000000 5.119593 0.000000
vertex 1.972989 7.679389 3.719612
vertex 0.000000 7.679389 1.500000
endloop
endfacet
facet normal -0.002584 -0.768007 0.640436
outer loop
vertex 2.566515 5.119593 1.443665
vertex 5.511176 5.119593 1.455544
vertex 4.832139 7.679389 4.522499
endloop
endfacet
facet normal -0.199093 -0.676533 0.708988
outer loop
vertex 2.566515 5.119593 1.443665
vertex 4.832139 7.679389 4.522499
vertex 1.972989 7.679389 3.719612
endloop
endfacet
facet normal 0.071880 -0.791499 0.606929
outer loop
vertex 5.511176 5.119593 1.455544
vertex 8.435425 5.119593 1.109221
vertex 7.801880 7.679389 4.522499
endloop
endfacet
facet normal 0.000000 -0.767728 0.640775
outer loop
vertex 5.511176 5.119593 1.455544
vertex 7.801880 7.679389 4.522499
vertex 4.832139 7.679389 4.522499
endloop
endfacet
facet normal 0.207338 -0.845461 0.492144
outer loop
vertex 8.435425 5.119593 1.109221
vertex 11.149114 5.119593 -0.034045
vertex 10.771622 7.679389 4.522499
endloop
endfacet
facet normal 0.000000 -0.800018 0.599976
outer loop
vertex 8.435425 5.119593 1.109221
vertex 10.771622 7.679389 4.522499
vertex 7.801880 7.679389 4.522499
endloop
endfacet
facet normal -0.094066 -0.844171 0.527757
outer loop
vertex 11.149114 5.119593 -0.034045
vertex 14.048110 5.119593 0.482665
vertex 13.741363 7.679389 4.522499
endloop
endfacet
facet normal 0.000000 -0.871842 0.489787
outer loop
vertex 11.149114 5.119593 -0.034045
vertex 13.741363 7.679389 4.522499
vertex 10.771622 7.679389 4.522499
endloop
endfacet
facet normal -0.370702 -0.654419 0.659026
outer loop
vertex 14.048110 5.119593 0.482665
vertex 16.614626 5.119593 1.926330
vertex 16.711105 7.679389 4.522499
endloop
endfacet
facet normal 0.000000 -0.844702 0.535236
outer loop
vertex 14.048110 5.119593 0.482665
vertex 16.711105 7.679389 4.522499
vertex 13.741363 7.679389 4.522499
endloop
endfacet
facet normal -0.486369 -0.125754 0.864657
outer loop
vertex 16.614626 5.119593 1.926330
vertex 19.181141 5.119593 3.369995
vertex 19.633984 7.679389 3.997010
endloop
endfacet
facet normal 0.124816 -0.708824 0.694255
outer loop
vertex 16.614626 5.119593 1.926330
vertex 19.633984 7.679389 3.997010
vertex 16.711105 7.679389 4.522499
endloop
endfacet
facet normal -0.098154 0.484950 0.869016
outer loop
vertex 19.181141 5.119593 3.369995
vertex 22.107220 5.119593 3.700491
vertex 22.046454 7.679389 2.265146
endloop
endfacet
facet normal 0.558244 -0.289235 0.777629
outer loop
vertex 19.181141 5.119593 3.369995
vertex 22.046454 7.679389 2.265146
vertex 19.633984 7.679389 3.997010
endloop
endfacet
facet normal 0.696264 0.363563 0.618901
outer loop
vertex 22.107220 5.119593 3.700491
vertex 24.063563 5.119593 1.499606
vertex 24.019443 7.679389 0.045533
endloop
endfacet
facet normal 0.696264 0.363563 0.618901
outer loop
vertex 22.107220 5.119593 3.700491
vertex 24.019443 7.679389 0.045533
vertex 22.046454 7.679389 2.265146
endloop
endfacet
facet normal -0.747409 0.000000 0.664364
outer loop
vertex 0.000000 7.679389 1.500000
vertex 1.972989 7.679389 3.719612
vertex 2.047770 10.239186 3.803741
endloop
endfacet
facet normal -0.747409 0.000000 0.664364
outer loop
vertex 0.000000 7.679389 1.500000
vertex 2.047770 10.239186 3.803741
vertex 0.000000 10.239186 1.500000
endloop
endfacet
facet normal -0.270112 0.042410 0.961894
outer loop
vertex 1.972989 7.679389 3.719612
vertex 4.832139 7.679389 4.522499
vertex 5.056609 10.239186 4.472672
endloop
endfacet
facet normal -0.216951 -0.025733 0.975843
outer loop
vertex 1.972989 7.679389 3.719612
vertex 5.056609 10.239186 4.472672
vertex 2.047770 10.239186 3.803741
endloop
endfacet
facet normal 0.000000 -0.454480 0.890757
outer loop
vertex 4.832139 7.679389 4.522499
vertex 7.801880 7.679389 4.522499
vertex 7.824672 10.239186 5.828552
endloop
endfacet
facet normal -0.439203 0.055967 0.896643
outer loop
vertex 4.832139 7.679389 4.522499
vertex 7.824672 10.239186 5.828552
vertex 5.056609 10.239186 4.472672
endloop
endfacet
facet normal 0.000000 -0.488370 0.872637
outer loop
vertex 7.801880 7.679389 4.522499
vertex 10.771622 7.679389 4.522499
vertex 10.904376 10.239186 5.955085
endloop
endfacet
facet normal -0.036579 -0.453917 0.890293
outer loop
vertex 7.801880 7.679389 4.522499
vertex 10.904376 10.239186 5.955085
vertex 7.824672 10.239186 5.828552
endloop
endfacet
facet normal 0.000000 -0.488370 0.872637
outer loop
vertex 10.771622 7.679389 4.522499
vertex 13.741363 7.679389 4.522499
vertex 13.986677 10.239186 5.955085
endloop
endfacet
facet normal 0.000000 -0.488370 0.872637
outer loop
vertex 10.771622 7.679389 4.522499
vertex 13.986677 10.239186 5.955085
vertex 10.904376 10.239186 5.955085
endloop
endfacet
facet normal 0.000000 -0.178947 0.983859
outer loop
vertex 13.741363 7.679389 4.522499
vertex 16.711105 7.679389 4.522499
vertex 16.913363 10.239186 4.988081
endloop
endfacet
facet normal 0.273559 -0.489571 0.827940
outer loop
vertex 13.741363 7.679389 4.522499
vertex 16.913363 10.239186 4.988081
vertex 13.986677 10.239186 5.955085
endloop
endfacet
facet normal 0.154964 0.482740 0.861944
outer loop
vertex 16.711105 7.679389 4.522499
vertex 19.633984 7.679389 3.997010
vertex 18.961133 10.239186 2.684340
endloop
endfacet
facet normal 0.735602 -0.177049 0.653868
outer loop
vertex 16.711105 7.679389 4.522499
vertex 18.961133 10.239186 2.684340
vertex 16.913363 10.239186 4.988081
endloop
endfacet
facet normal 0.447761 0.640683 0.623727
outer loop
vertex 19.633984 7.679389 3.997010
vertex 22.046454 7.679389 2.265146
vertex 21.008902 10.239186 0.380599
endloop
endfacet
facet normal 0.658433 0.473202 0.585274
outer loop
vertex 19.633984 7.679389 3.997010
vertex 21.008902 10.239186 0.380599
vertex 18.961133 10.239186 2.684340
endloop
endfacet
facet normal 0.747405 -0.003522 0.664360
outer loop
vertex 22.046454 7.679389 2.265146
vertex 24.019443 7.679389 0.045533
vertex 24.068149 10.239186 0.004308
endloop
endfacet
facet normal 0.096252 0.615123 0.782534
outer loop
vertex 22.046454 7.679389 2.265146
vertex 24.068149 10.239186 0.004308
vertex 21.008902 10.239186 0.380599
endloop
endfacet
facet normal -0.696491 0.362784 0.619103
outer loop
vertex 0.000000 10.239186 1.500000
vertex 2.047770 10.239186 3.803741
vertex 1.986106 12.798982 2.234369
endloop
endfacet
facet normal -0.696491 0.362784 0.619103
outer loop
vertex 0.000000 10.239186 1.500000
vertex 1.986106 12.798982 2.234369
vertex 0.000000 12.798982 0.000000
endloop
endfacet
facet normal -0.190276 0.480935 0.855860
outer loop
vertex 2.047770 10.239186 3.803741
vertex 5.056609 10.239186 4.472672
vertex 4.877366 12.798982 2.994391
endloop
endfacet
facet normal -0.219267 0.506111 0.834131
outer loop
vertex 2.047770 10.239186 3.803741
vertex 4.877366 12.798982 2.994391
vertex 1.986106 12.798982 2.234369
endloop
endfacet
facet normal -0.388471 0.469177 0.793072
outer loop
vertex 5.056609 10.239186 4.472672
vertex 7.824672 10.239186 5.828552
vertex 7.609152 12.798982 4.208623
endloop
endfacet
facet normal -0.363393 0.446696 0.817562
outer loop
vertex 5.056609 10.239186 4.472672
vertex 7.609152 12.798982 4.208623
vertex 4.877366 12.798982 2.994391
endloop
endfacet
facet normal -0.035731 0.492363 0.869656
outer loop
vertex 7.824672 10.239186 5.828552
vertex 10.904376 10.239186 5.955085
vertex 10.585108 12.798982 4.492717
endloop
endfacet
facet normal -0.080696 0.528147 0.845310
outer loop
vertex 7.824672 10.239186 5.828552
vertex 10.585108 12.798982 4.492717
vertex 7.609152 12.798982 4.208623
endloop
endfacet
facet normal -0.000000 0.496043 0.868298
outer loop
vertex 10.904376 10.239186 5.955085
vertex 13.986677 10.239186 5.955085
vertex 13.574592 12.798982 4.492717
endloop
endfacet
facet normal 0.000000 0.496043 0.868298
outer loop
vertex 10.904376 10.239186 5.955085
vertex 13.574592 12.798982 4.492717
vertex 10.585108 12.798982 4.492717
endloop
endfacet
facet normal 0.291593 0.368957 0.882521
outer loop
vertex 13.986677 10.239186 5.955085
vertex 16.913363 10.239186 4.988081
vertex 16.530282 12.798982 4.044476
endloop
endfacet
facet normal 0.129197 0.507485 0.851919
outer loop
vertex 13.986677 10.239186 5.955085
vertex 16.530282 12.798982 4.044476
vertex 13.574592 12.798982 4.492717
endloop
endfacet
facet normal 0.703954 0.336011 0.625737
outer loop
vertex 16.913363 10.239186 4.988081
vertex 18.961133 10.239186 2.684340
vertex 18.516387 12.798982 1.810108
endloop
endfacet
facet normal 0.703954 0.336011 0.625737
outer loop
vertex 16.913363 10.239186 4.988081
vertex 18.516387 12.798982 1.810108
vertex 16.530282 12.798982 4.044476
endloop
endfacet
facet normal 0.747232 0.021761 0.664207
outer loop
vertex 18.961133 10.239186 2.684340
vertex 21.008902 10.239186 0.380599
vertex 21.059937 12.798982 0.239320
endloop
endfacet
facet normal 0.490865 0.356744 0.794849
outer loop
vertex 18.961133 10.239186 2.684340
vertex 21.059937 12.798982 0.239320
vertex 18.516387 12.798982 1.810108
endloop
endfacet
facet normal -0.697796 0.358264 0.620264
outer loop
vertex 0.000000 12.798982 0.000000
vertex 1.986106 12.798982 2.234369
vertex 2.596939 15.358779 1.443018
endloop
endfacet
facet normal -0.485713 0.000000 0.874118
outer loop
vertex 0.000000 12.798982 0.000000
vertex 2.596939 15.358779 1.443018
vertex 0.000000 15.358779 0.000000
endloop
endfacet
facet normal -0.165822 0.758005 0.630818
outer loop
vertex 1.986106 12.798982 2.234369
vertex 4.877366 12.798982 2.994391
vertex 5.194972 15.358779 0.001973
endloop
endfacet
facet normal 0.479355 0.152784 0.864220
outer loop
vertex 1.986106 12.798982 2.234369
vertex 5.194972 15.358779 0.001973
vertex 2.596939 15.358779 1.443018
endloop
endfacet
facet normal -0.224091 0.834030 0.504160
outer loop
vertex 4.877366 12.798982 2.994391
vertex 7.609152 12.798982 4.208623
vertex 8.158037 15.358779 0.217937
endloop
endfacet
facet normal -0.047115 0.761521 0.646425
outer loop
vertex 4.877366 12.798982 2.994391
vertex 8.158037 15.358779 0.217937
vertex 5.194972 15.358779 0.001973
endloop
endfacet
facet normal -0.059256 0.781786 0.620725
outer loop
vertex 7.609152 12.798982 4.208623
vertex 10.585108 12.798982 4.492717
vertex 10.924462 15.358779 1.301117
endloop
endfacet
facet normal -0.199483 0.837042 0.509477
outer loop
vertex 7.609152 12.798982 4.208623
vertex 10.924462 15.358779 1.301117
vertex 8.158037 15.358779 0.217937
endloop
endfacet
facet normal 0.000000 0.852586 0.522587
outer loop
vertex 10.585108 12.798982 4.492717
vertex 13.574592 12.798982 4.492717
vertex 13.727476 15.358779 0.316482
endloop
endfacet
facet normal 0.219377 0.749571 0.624513
outer loop
vertex 10.585108 12.798982 4.492717
vertex 13.727476 15.358779 0.316482
vertex 10.924462 15.358779 1.301117
endloop
endfacet
facet normal 0.126816 0.533531 0.836219
outer loop
vertex 13.574592 12.798982 4.492717
vertex 16.530282 12.798982 4.044476
vertex 15.701250 15.358779 2.536979
endloop
endfacet
facet normal -0.495682 0.748442 0.440607
outer loop
vertex 13.574592 12.798982 4.492717
vertex 15.701250 15.358779 2.536979
vertex 13.727476 15.358779 0.316482
endloop
endfacet
facet normal 0.744684 0.085317 0.661941
outer loop
vertex 16.530282 12.798982 4.044476
vertex 18.516387 12.798982 1.810108
vertex 18.489277 15.358779 1.510677
endloop
endfacet
facet normal 0.287713 0.553472 0.781595
outer loop
vertex 16.530282 12.798982 4.044476
vertex 18.489277 15.358779 1.510677
vertex 15.701250 15.358779 2.536979
endloop
endfacet
facet normal 0.524565 0.057608 0.849419
outer loop
vertex 18.516387 12.798982 1.810108
vertex 21.059937 12.798982 0.239320
vertex 21.078662 15.358779 0.054148
endloop
endfacet
facet normal 0.487471 0.106534 0.866615
outer loop
vertex 18.516387 12.798982 1.810108
vertex 21.078662 15.358779 0.054148
vertex 18.489277 15.358779 1.510677
endloop
endfacet
facet normal -0.485705 -0.005725 0.874104
outer loop
vertex 0.000000 15.358779 0.000000
vertex 2.596939 15.358779 1.443018
vertex 2.451456 17.918575 1.378944
endloop
endfacet
facet normal 0.484964 -0.018732 0.874333
outer loop
vertex 2.596939 15.358779 1.443018
vertex 5.194972 15.358779 0.001973
vertex 4.991028 17.918575 0.169935
endloop
endfacet
facet normal 0.429369 0.046978 0.901907
outer loop
vertex 2.596939 15.358779 1.443018
vertex 4.991028 17.918575 0.169935
vertex 2.451456 17.918575 1.378944
endloop
endfacet
facet normal -0.705190 0.331335 0.626836
outer loop
vertex 13.727476 15.358779 0.316482
vertex 15.701250 15.358779 2.536979
vertex 15.871911 17.918575 1.375905
endloop
endfacet
facet normal -0.489650 0.049928 0.870489
outer loop
vertex 13.727476 15.358779 0.316482
vertex 15.871911 17.918575 1.375905
vertex 13.420455 17.918575 -0.003039
endloop
endfacet
facet normal 0.304784 0.470715 0.827970
outer loop
vertex 15.701250 15.358779 2.536979
vertex 18.489277 15.358779 1.510677
vertex 18.376890 17.918575 0.096761
endloop
endfacet
facet normal 0.426013 0.350007 0.834271
outer loop
vertex 15.701250 15.358779 2.536979
vertex 18.376890 17.918575 0.096761
vertex 15.871911 17.918575 1.375905
endloop
endfacet
facet normal -0.442934 0.428663 0.787438
outer loop
vertex 13.420455 17.918575 -0.003039
vertex 15.871911 17.918575 1.375905
vertex 15.796394 20.478372 -0.060067
endloop
endfacet
facet normal 0.454606 0.027593 0.890265
outer loop
vertex 15.871911 17.918575 1.375905
vertex 18.376890 17.918575 0.096761
vertex 18.528641 20.478372 -0.060067
endloop
endfacet
facet normal 0.000000 0.489248 0.872145
outer loop
vertex 15.871911 17.918575 1.375905
vertex 18.528641 20.478372 -0.060067
vertex 15.796394 20.478372 -0.060067
endloop
endfacet
facet normal -0.490261 0.000000 0.871576
outer loop
vertex 0.000000 20.478372 0.000000
vertex 2.381360 20.478372 1.339515
vertex 2.381360 23.038168 1.339515
endloop
endfacet
facet normal -0.490261 0.000000 0.871576
outer loop
vertex 0.000000 20.478372 0.000000
vertex 2.381360 23.038168 1.339515
vertex 0.000000 23.038168 0.000000
endloop
endfacet
facet normal 0.400941 -0.000000 0.916104
outer loop
vertex 2.381360 20.478372 1.339515
vertex 4.884382 23.038168 0.244045
vertex 2.381360 23.038168 1.339515
endloop
endfacet
facet normal -0.096892 -0.492149 -0.865102
outer loop
vertex 19.051157 2.559796 -1.753907
vertex 19.108754 0.000000 -0.304113
vertex 16.393484 0.000000 0.000000
endloop
endfacet
facet normal -0.488366 -0.087834 -0.868207
outer loop
vertex 16.631210 2.559796 -0.392687
vertex 19.051157 2.559796 -1.753907
vertex 16.393484 0.000000 0.000000
endloop
endfacet
facet normal -0.351977 -0.478884 -0.804227
outer loop
vertex 21.576311 2.559796 -2.908315
vertex 21.611776 0.000000 -1.399582
vertex 19.108754 0.000000 -0.304113
endloop
endfacet
facet normal -0.368209 -0.464453 -0.805422
outer loop
vertex 19.051157 2.559796 -1.753907
vertex 21.576311 2.559796 -2.908315
vertex 19.108754 0.000000 -0.304113
endloop
endfacet
facet normal 0.437288 -0.452138 -0.777400
outer loop
vertex 23.996258 2.559796 -1.547094
vertex 23.993136 0.000000 -0.060067
vertex 21.611776 0.000000 -1.399582
endloop
endfacet
facet normal 0.437288 -0.452138 -0.777400
outer loop
vertex 21.576311 2.559796 -2.908315
vertex 23.996258 2.559796 -1.547094
vertex 21.611776 0.000000 -1.399582
endloop
endfacet
facet normal 0.000000 -0.491238 -0.871025
outer loop
vertex 2.566515 5.119593 -1.443665
vertex 2.776520 2.559796 0.000000
vertex 0.000000 2.559796 0.000000
endloop
endfacet
facet normal -0.490261 -0.000000 -0.871576
outer loop
vertex 0.000000 5.119593 0.000000
vertex 2.566515 5.119593 -1.443665
vertex 0.000000 2.559796 0.000000
endloop
endfacet
facet normal 0.000000 -0.494296 -0.869294
outer loop
vertex 5.511176 5.119593 -1.455544
vertex 5.553040 2.559796 0.000000
vertex 2.776520 2.559796 0.000000
endloop
endfacet
facet normal -0.003513 -0.491453 -0.870897
outer loop
vertex 2.566515 5.119593 -1.443665
vertex 5.511176 5.119593 -1.455544
vertex 2.776520 2.559796 0.000000
endloop
endfacet
facet normal 0.000000 -0.397600 -0.917559
outer loop
vertex 8.435425 5.119593 -1.109221
vertex 8.329560 2.559796 0.000000
vertex 5.553040 2.559796 0.000000
endloop
endfacet
facet normal 0.102495 -0.490425 -0.865435
outer loop
vertex 5.511176 5.119593 -1.455544
vertex 8.435425 5.119593 -1.109221
vertex 5.553040 2.559796 0.000000
endloop
endfacet
facet normal 0.358545 -0.383609 -0.851052
outer loop
vertex 8.435425 5.119593 -1.109221
vertex 11.149114 5.119593 0.034045
vertex 8.329560 2.559796 0.000000
endloop
endfacet
facet normal -0.121596 -0.510711 -0.851110
outer loop
vertex 16.614626 5.119593 -1.926330
vertex 16.631210 2.559796 -0.392687
vertex 13.882599 2.559796 0.000000
endloop
endfacet
facet normal -0.486005 -0.131490 -0.864008
outer loop
vertex 14.048110 5.119593 -0.482665
vertex 16.614626 5.119593 -1.926330
vertex 13.882599 2.559796 0.000000
endloop
endfacet
facet normal -0.434012 -0.465084 -0.771577
outer loop
vertex 19.181141 5.119593 -3.369995
vertex 19.051157 2.559796 -1.753907
vertex 16.631210 2.559796 -0.392687
endloop
endfacet
facet normal -0.434012 -0.465084 -0.771577
outer loop
vertex 16.614626 5.119593 -1.926330
vertex 19.181141 5.119593 -3.369995
vertex 16.631210 2.559796 -0.392687
endloop
endfacet
facet normal -0.408072 -0.191602 -0.892618
outer loop
vertex 22.107220 5.119593 -3.700491
vertex 21.576311 2.559796 -2.908315
vertex 19.051157 2.559796 -1.753907
endloop
endfacet
facet normal -0.095318 -0.527949 -0.843910
outer loop
vertex 19.181141 5.119593 -3.369995
vertex 22.107220 5.119593 -3.700491
vertex 19.051157 2.559796 -1.753907
endloop
endfacet
facet normal 0.490259 0.003279 -0.871571
outer loop
vertex 24.063563 5.119593 -1.499606
vertex 23.996258 2.559796 -1.547094
vertex 21.576311 2.559796 -2.908315
endloop
endfacet
facet normal 0.703090 -0.339231 -0.624969
outer loop
vertex 22.107220 5.119593 -3.700491
vertex 24.063563 5.119593 -1.499606
vertex 21.576311 2.559796 -2.908315
endloop
endfacet
facet normal -0.366478 -0.664245 -0.651516
outer loop
vertex 1.972989 7.679389 -3.719612
vertex 2.566515 5.119593 -1.443665
vertex 0.000000 5.119593 0.000000
endloop
endfacet
facet normal -0.696491 -0.362784 -0.619103
outer loop
vertex 0.000000 7.679389 -1.500000
vertex 1.972989 7.679389 -3.719612
vertex 0.000000 5.119593 0.000000
endloop
endfacet
facet normal -0.002584 -0.768007 -0.640436
outer loop
vertex 4.832139 7.679389 -4.522499
vertex 5.511176 5.119593 -1.455544
vertex 2.566515 5.119593 -1.443665
endloop
endfacet
facet normal -0.199093 -0.676533 -0.708988
outer loop
vertex 1.972989 7.679389 -3.719612
vertex 4.832139 7.679389 -4.522499
vertex 2.566515 5.119593 -1.443665
endloop
endfacet
facet normal 0.071880 -0.791499 -0.606929
outer loop
vertex 7.801880 7.679389 -4.522499
vertex 8.435425 5.119593 -1.109221
vertex 5.511176 5.119593 -1.455544
endloop
endfacet
facet normal 0.000000 -0.767728 -0.640775
outer loop
vertex 4.832139 7.679389 -4.522499
vertex 7.801880 7.679389 -4.522499
vertex 5.511176 5.119593 -1.455544
endloop
endfacet
facet normal 0.207338 -0.845461 -0.492144
outer loop
vertex 10.771622 7.679389 -4.522499
vertex 11.149114 5.119593 0.034045
vertex 8.435425 5.119593 -1.109221
endloop
endfacet
facet normal 0.000000 -0.800018 -0.599976
outer loop
vertex 7.801880 7.679389 -4.522499
vertex 10.771622 7.679389 -4.522499
vertex 8.435425 5.119593 -1.109221
endloop
endfacet
facet normal -0.094066 -0.844171 -0.527757
outer loop
vertex 13.741363 7.679389 -4.522499
vertex 14.048110 5.119593 -0.482665
vertex 11.149114 5.119593 0.034045
endloop
endfacet
facet normal 0.000000 -0.871842 -0.489787
outer loop
vertex 10.771622 7.679389 -4.522499
vertex 13.741363 7.679389 -4.522499
vertex 11.149114 5.119593 0.034045
endloop
endfacet
facet normal -0.370702 -0.654419 -0.659026
outer loop
vertex 16.711105 7.679389 -4.522499
vertex 16.614626 5.119593 -1.926330
vertex 14.048110 5.119593 -0.482665
endloop
endfacet
facet normal 0.000000 -0.844702 -0.535236
outer loop
vertex 13.741363 7.679389 -4.522499
vertex 16.711105 7.679389 -4.522499
vertex 14.048110 5.119593 -0.482665
endloop
endfacet
facet normal -0.486369 -0.125754 -0.864657
outer loop
vertex 19.633984 7.679389 -3.997010
vertex 19.181141 5.119593 -3.369995
vertex 16.614626 5.119593 -1.926330
endloop
endfacet
facet normal 0.124816 -0.708824 -0.694255
outer loop
vertex 16.711105 7.679389 -4.522499
vertex 19.633984 7.679389 -3.997010
vertex 16.614626 5.119593 -1.926330
endloop
endfacet
facet normal -0.098154 0.484950 -0.869016
outer loop
vertex 22.046454 7.679389 -2.265146
vertex 22.107220 5.119593 -3.700491
vertex 19.181141 5.119593 -3.369995
endloop
endfacet
facet normal 0.558244 -0.289235 -0.777629
outer loop
vertex 19.633984 7.679389 -3.997010
vertex 22.046454 7.679389 -2.265146
vertex 19.181141 5.119593 -3.369995
endloop
endfacet
facet normal 0.696264 0.363563 -0.618901
outer loop
vertex 24.019443 7.679389 -0.045533
vertex 24.063563 5.119593 -1.499606
vertex 22.107220 5.119593 -3.700491
endloop
endfacet
facet normal 0.696264 0.363563 -0.618901
outer loop
vertex 22.046454 7.679389 -2.265146
vertex 24.019443 7.679389 -0.045533
vertex 22.107220 5.119593 -3.700491
endloop
endfacet
facet normal -0.747409 -0.000000 -0.664364
outer loop
vertex 2.047770 10.239186 -3.803741
vertex 1.972989 7.679389 -3.719612
vertex 0.000000 7.679389 -1.500000
endloop
endfacet
facet normal -0.747409 -0.000000 -0.664364
outer loop
vertex 0.000000 10.239186 -1.500000
vertex 2.047770 10.239186 -3.803741
vertex 0.000000 7.679389 -1.500000
endloop
endfacet
facet normal -0.270112 0.042410 -0.961894
outer loop
vertex 5.056609 10.239186 -4.472672
vertex 4.832139 7.679389 -4.522499
vertex 1.972989 7.679389 -3.719612
endloop
endfacet
facet normal -0.216951 -0.025733 -0.975843
outer loop
vertex 2.047770 10.239186 -3.803741
vertex 5.056609 10.239186 -4.472672
vertex 1.972989 7.679389 -3.719612
endloop
endfacet
facet normal 0.000000 -0.454480 -0.890757
outer loop
vertex 7.824672 10.239186 -5.828552
vertex 7.801880 7.679389 -4.522499
vertex 4.832139 7.679389 -4.522499
endloop
endfacet
facet normal -0.439203 0.055967 -0.896643
outer loop
vertex 5.056609 10.239186 -4.472672
vertex 7.824672 10.239186 -5.828552
vertex 4.832139 7.679389 -4.522499
endloop
endfacet
facet normal 0.000000 -0.488370 -0.872637
outer loop
vertex 10.904376 10.239186 -5.955085
vertex 10.771622 7.679389 -4.522499
vertex 7.801880 7.679389 -4.522499
endloop
endfacet
facet normal -0.036579 -0.453917 -0.890293
outer loop
vertex 7.824672 10.239186 -5.828552
vertex 10.904376 10.239186 -5.955085
vertex 7.801880 7.679389 -4.522499
endloop
endfacet
facet normal 0.000000 -0.488370 -0.872637
outer loop
vertex 13.986677 10.239186 -5.955085
vertex 13.741363 7.679389 -4.522499
vertex 10.771622 7.679389 -4.522499
endloop
endfacet
facet normal 0.000000 -0.488370 -0.872637
outer loop
vertex 10.904376 10.239186 -5.955085
vertex 13.986677 10.239186 -5.955085
vertex 10.771622 7.679389 -4.522499
endloop
endfacet
facet normal 0.000000 -0.178947 -0.983859
outer loop
vertex 16.913363 10.239186 -4.988081
vertex 16.711105 7.679389 -4.522499
vertex 13.741363 7.679389 -4.522499
endloop
endfacet
facet normal 0.273559 -0.489571 -0.827940
outer loop
vertex 13.986677 10.239186 -5.955085
vertex 16.913363 10.239186 -4.988081
vertex 13.741363 7.679389 -4.522499
endloop
endfacet
facet normal 0.154964 0.482740 -0.861944
outer loop
vertex 18.961133 10.239186 -2.684340
vertex 19.633984 7.679389 -3.997010
vertex 16.711105 7.679389 -4.522499
endloop
endfacet
facet normal 0.735602 -0.177049 -0.653868
outer loop
vertex 16.913363 10.239186 -4.988081
vertex 18.961133 10.239186 -2.684340
vertex 16.711105 7.679389 -4.522499
endloop
endfacet
facet normal 0.447761 0.640683 -0.623727
outer loop
vertex 21.008902 10.239186 -0.380599
vertex 22.046454 7.679389 -2.265146
vertex 19.633984 7.679389 -3.997010
endloop
endfacet
facet normal 0.658433 0.473202 -0.585274
outer loop
vertex 18.961133 10.239186 -2.684340
vertex 21.008902 10.239186 -0.380599
vertex 19.633984 7.679389 -3.997010
endloop
endfacet
facet normal 0.747405 -0.003522 -0.664360
outer loop
vertex 24.068149 10.239186 -0.004308
vertex 24.019443 7.679389 -0.045533
vertex 22.046454 7.679389 -2.265146
endloop
endfacet
facet normal 0.096252 0.615123 -0.782534
outer loop
vertex 21.008902 10.239186 -0.380599
vertex 24.068149 10.239186 -0.004308
vertex 22.046454 7.679389 -2.265146
endloop
endfacet
facet normal -0.696491 0.362784 -0.619103
outer loop
vertex 1.986106 12.798982 -2.234369
vertex 2.047770 10.239186 -3.803741
vertex 0.000000 10.239186 -1.500000
endloop
endfacet
facet normal -0.696491 0.362784 -0.619103
outer loop
vertex 0.000000 12.798982 0.000000
vertex 1.986106 12.798982 -2.234369
vertex 0.000000 10.239186 -1.500000
endloop
endfacet
facet normal -0.190276 0.480935 -0.855860
outer loop
vertex 4.877366 12.798982 -2.994391
vertex 5.056609 10.239186 -4.472672
vertex 2.047770 10.239186 -3.803741
endloop
endfacet
facet normal -0.219267 0.506111 -0.834131
outer loop
vertex 1.986106 12.798982 -2.234369
vertex 4.877366 12.798982 -2.994391
vertex 2.047770 10.239186 -3.803741
endloop
endfacet
facet normal -0.388471 0.469177 -0.793072
outer loop
vertex 7.609152 12.798982 -4.208623
vertex 7.824672 10.239186 -5.828552
vertex 5.056609 10.239186 -4.472672
endloop
endfacet
facet normal -0.363393 0.446696 -0.817562
outer loop
vertex 4.877366 12.798982 -2.994391
vertex 7.609152 12.798982 -4.208623
vertex 5.056609 10.239186 -4.472672
endloop
endfacet
facet normal -0.035731 0.492363 -0.869656
outer loop
vertex 10.585108 12.798982 -4.492717
vertex 10.904376 10.239186 -5.955085
vertex 7.824672 10.239186 -5.828552
endloop
endfacet
facet normal -0.080696 0.528147 -0.845310
outer loop
vertex 7.609152 12.798982 -4.208623
vertex 10.585108 12.798982 -4.492717
vertex 7.824672 10.239186 -5.828552
endloop
endfacet
facet normal 0.000000 0.496043 -0.868298
outer loop
vertex 13.574592 12.798982 -4.492717
vertex 13.986677 10.239186 -5.955085
vertex 10.904376 10.239186 -5.955085
endloop
endfacet
facet normal 0.000000 0.496043 -0.868298
outer loop
vertex 10.585108 12.798982 -4.492717
vertex 13.574592 12.798982 -4.492717
vertex 10.904376 10.239186 -5.955085
endloop
endfacet
facet normal 0.291593 0.368957 -0.882521
outer loop
vertex 16.530282 12.798982 -4.044476
vertex 16.913363 10.239186 -4.988081
vertex 13.986677 10.239186 -5.955085
endloop
endfacet
facet normal 0.129197 0.507485 -0.851919
outer loop
vertex 13.574592 12.798982 -4.492717
vertex 16.530282 12.798982 -4.044476
vertex 13.986677 10.239186 -5.955085
endloop
endfacet
facet normal 0.703954 0.336011 -0.625737
outer loop
vertex 18.516387 12.798982 -1.810108
vertex 18.961133 10.239186 -2.684340
vertex 16.913363 10.239186 -4.988081
endloop
endfacet
facet normal 0.703954 0.336011 -0.625737
outer loop
vertex 16.530282 12.798982 -4.044476
vertex 18.516387 12.798982 -1.810108
vertex 16.913363 10.239186 -4.988081
endloop
endfacet
facet normal 0.747232 0.021761 -0.664207
outer loop
vertex 21.059937 12.798982 -0.239320
vertex 21.008902 10.239186 -0.380599
vertex 18.961133 10.239186 -2.684340
endloop
endfacet
facet normal 0.490865 0.356744 -0.794849
outer loop
vertex 18.516387 12.798982 -1.810108
vertex 21.059937 12.798982 -0.239320
vertex 18.961133 10.239186 -2.684340
endloop
endfacet
facet normal -0.697796 0.358264 -0.620264
outer loop
vertex 2.596939 15.358779 -1.443018
vertex 1.986106 12.798982 -2.234369
vertex 0.000000 12.798982 0.000000
endloop
endfacet
facet normal -0.485713 -0.000000 -0.874118
outer loop
vertex 0.000000 15.358779 0.000000
vertex 2.596939 15.358779 -1.443018
vertex 0.000000 12.798982 0.000000
endloop
endfacet
facet normal -0.165822 0.758005 -0.630818
outer loop
vertex 5.194972 15.358779 -0.001973
vertex 4.877366 12.798982 -2.994391
vertex 1.986106 12.798982 -2.234369
endloop
endfacet
facet normal 0.479355 0.152784 -0.864220
outer loop
vertex 2.596939 15.358779 -1.443018
vertex 5.194972 15.358779 -0.001973
vertex 1.986106 12.798982 -2.234369
endloop
endfacet
facet normal -0.224091 0.834030 -0.504160
outer loop
vertex 8.158037 15.358779 -0.217937
vertex 7.609152 12.798982 -4.208623
vertex 4.877366 12.798982 -2.994391
endloop
endfacet
facet normal -0.047115 0.761521 -0.646425
outer loop
vertex 5.194972 15.358779 -0.001973
vertex 8.158037 15.358779 -0.217937
vertex 4.877366 12.798982 -2.994391
endloop
endfacet
facet normal -0.059256 0.781786 -0.620725
outer loop
vertex 10.924462 15.358779 -1.301117
vertex 10.585108 12.798982 -4.492717
vertex 7.609152 12.798982 -4.208623
endloop
endfacet
facet normal -0.199483 0.837042 -0.509477
outer loop
vertex 8.158037 15.358779 -0.217937
vertex 10.924462 15.358779 -1.301117
vertex 7.609152 12.798982 -4.208623
endloop
endfacet
facet normal 0.000000 0.852586 -0.522587
outer loop
vertex 13.727476 15.358779 -0.316482
vertex 13.574592 12.798982 -4.492717
vertex 10.585108 12.798982 -4.492717
endloop
endfacet
facet normal 0.219377 0.749571 -0.624513
outer loop
vertex 10.924462 15.358779 -1.301117
vertex 13.727476 15.358779 -0.316482
vertex 10.585108 12.798982 -4.492717
endloop
endfacet
facet normal 0.126816 0.533531 -0.836219
outer loop
vertex 15.701250 15.358779 -2.536979
vertex 16.530282 12.798982 -4.044476
vertex 13.574592 12.798982 -4.492717
endloop
endfacet
facet normal -0.495682 0.748442 -0.440607
outer loop
vertex 13.727476 15.358779 -0.316482
vertex 15.701250 15.358779 -2.536979
vertex 13.574592 12.798982 -4.492717
endloop
endfacet
facet normal 0.744684 0.085317 -0.661941
outer loop
vertex 18.489277 15.358779 -1.510677
vertex 18.516387 12.798982 -1.810108
vertex 16.530282 12.798982 -4.044476
endloop
endfacet
facet normal 0.287713 0.553472 -0.781595
outer loop
vertex 15.701250 15.358779 -2.536979
vertex 18.489277 15.358779 -1.510677
vertex 16.530282 12.798982 -4.044476
endloop
endfacet
facet normal 0.524565 0.057608 -0.849419
outer loop
vertex 21.078662 15.358779 -0.054148
vertex 21.059937 12.798982 -0.239320
vertex 18.516387 12.798982 -1.810108
endloop
endfacet
facet normal 0.487471 0.106534 -0.866615
outer loop
vertex 18.489277 15.358779 -1.510677
vertex 21.078662 15.358779 -0.054148
vertex 18.516387 12.798982 -1.810108
endloop
endfacet
facet normal -0.485705 -0.005725 -0.874104
outer loop
vertex 2.451456 17.918575 -1.378944
vertex 2.596939 15.358779 -1.443018
vertex 0.000000 15.358779 0.000000
endloop
endfacet
facet normal 0.484964 -0.018732 -0.874333
outer loop
vertex 4.991028 17.918575 -0.169935
vertex 5.194972 15.358779 -0.001973
vertex 2.596939 15.358779 -1.443018
endloop
endfacet
facet normal 0.429369 0.046978 -0.901907
outer loop
vertex 2.451456 17.918575 -1.378944
vertex 4.991028 17.918575 -0.169935
vertex 2.596939 15.358779 -1.443018
endloop
endfacet
facet normal -0.705190 0.331335 -0.626836
outer loop
vertex 15.871911 17.918575 -1.375905
vertex 15.701250 15.358779 -2.536979
vertex 13.727476 15.358779 -0.316482
endloop
endfacet
facet normal -0.489650 0.049928 -0.870489
outer loop
vertex 13.420455 17.918575 0.003039
vertex 15.871911 17.918575 -1.375905
vertex 13.727476 15.358779 -0.316482
endloop
endfacet
facet normal 0.304784 0.470715 -0.827970
outer loop
vertex 18.376890 17.918575 -0.096761
vertex 18.489277 15.358779 -1.510677
vertex 15.701250 15.358779 -2.536979
endloop
endfacet
facet normal 0.426013 0.350007 -0.834271
outer loop
vertex 15.871911 17.918575 -1.375905
vertex 18.376890 17.918575 -0.096761
vertex 15.701250 15.358779 -2.536979
endloop
endfacet
facet normal -0.442934 0.428663 -0.787438
outer loop
vertex 15.796394 20.478372 0.060067
vertex 15.871911 17.918575 -1.375905
vertex 13.420455 17.918575 0.003039
endloop
endfacet
facet normal 0.454606 0.027593 -0.890265
outer loop
vertex 18.528641 20.478372 0.060067
vertex 18.376890 17.918575 -0.096761
vertex 15.871911 17.918575 -1.375905
endloop
endfacet
facet normal 0.000000 0.489248 -0.872145
outer loop
vertex 15.796394 20.478372 0.060067
vertex 18.528641 20.478372 0.060067
vertex 15.871911 17.918575 -1.375905
endloop
endfacet
facet normal -0.490261 -0.000000 -0.871576
outer loop
vertex 2.381360 23.038168 -1.339515
vertex 2.381360 20.478372 -1.339515
vertex 0.000000 20.478372 0.000000
endloop
endfacet
facet normal -0.490261 -0.000000 -0.871576
outer loop
vertex 0.000000 23.038168 0.000000
vertex 2.381360 23.038168 -1.339515
vertex 0.000000 20.478372 0.000000
endloop
endfacet
facet normal 0.400941 0.000000 -0.916104
outer loop
vertex 2.381360 23.038168 -1.339515
vertex 4.884382 23.038168 -0.244045
vertex 2.381360 20.478372 -1.339515
endloop
endfacet
facet normal 0.000000 -1.000000 -0.000000
outer loop
vertex 19.108754 0.000000 0.304113
vertex 16.393484 0.000000 0.000000
vertex 19.108754 0.000000 -0.304113
endloop
endfacet
facet normal -0.995715 0.092471 0.000000
outer loop
vertex 16.393484 0.000000 0.000000
vertex 16.631210 2.559796 0.392687
vertex 16.631210 2.559796 -0.392687
endloop
endfacet
facet normal 0.000000 -1.000000 0.000000
outer loop
vertex 21.611776 0.000000 1.399582
vertex 19.108754 0.000000 0.304113
vertex 19.108754 0.000000 -0.304113
endloop
endfacet
facet normal 0.000000 -1.000000 -0.000000
outer loop
vertex 21.611776 0.000000 1.399582
vertex 19.108754 0.000000 -0.304113
vertex 21.611776 0.000000 -1.399582
endloop
endfacet
facet normal -0.000000 -1.000000 0.000000
outer loop
vertex 23.993136 0.000000 0.060067
vertex 21.611776 0.000000 1.399582
vertex 21.611776 0.000000 -1.399582
endloop
endfacet
facet normal 0.000000 -1.000000 -0.000000
outer loop
vertex 23.993136 0.000000 0.060067
vertex 21.611776 0.000000 -1.399582
vertex 23.993136 0.000000 -0.060067
endloop
endfacet
facet normal 0.999999 -0.001220 0.000000
outer loop
vertex 23.996258 2.559796 1.547094
vertex 23.993136 0.000000 0.060067
vertex 23.993136 0.000000 -0.060067
endloop
endfacet
facet normal 0.999999 -0.001220 0.000000
outer loop
vertex 23.996258 2.559796 1.547094
vertex 23.993136 0.000000 -0.060067
vertex 23.996258 2.559796 -1.547094
endloop
endfacet
facet normal -0.672179 0.740389 0.000000
outer loop
vertex 11.149114 5.119593 -0.034045
vertex 8.329560 2.559796 0.000000
vertex 11.149114 5.119593 0.034045
endloop
endfacet
facet normal 0.000000 -1.000000 -0.000000
outer loop
vertex 16.631210 2.559796 0.392687
vertex 13.882599 2.559796 0.000000
vertex 16.631210 2.559796 -0.392687
endloop
endfacet
facet normal -0.997916 0.064523 0.000000
outer loop
vertex 13.882599 2.559796 0.000000
vertex 14.048110 5.119593 0.482665
vertex 14.048110 5.119593 -0.482665
endloop
endfacet
facet normal 0.999655 -0.026284 0.000000
outer loop
vertex 24.063563 5.119593 1.499606
vertex 23.996258 2.559796 1.547094
vertex 23.996258 2.559796 -1.547094
endloop
endfacet
facet normal 0.999655 -0.026284 0.000000
outer loop
vertex 24.063563 5.119593 1.499606
vertex 23.996258 2.559796 -1.547094
vertex 24.063563 5.119593 -1.499606
endloop
endfacet
facet normal -1.000000 0.000000 0.000000
outer loop
vertex 0.000000 5.119593 0.000000
vertex 0.000000 7.679389 1.500000
vertex 0.000000 7.679389 -1.500000
endloop
endfacet
facet normal 0.000000 1.000000 0.000000
outer loop
vertex 14.048110 5.119593 0.482665
vertex 11.149114 5.119593 -0.034045
vertex 11.149114 5.119593 0.034045
endloop
endfacet
facet normal 0.000000 -1.000000 -0.000000
outer loop
vertex 14.048110 5.119593 0.482665
vertex 11.149114 5.119593 0.034045
vertex 14.048110 5.119593 -0.482665
endloop
endfacet
facet normal 0.999852 0.017233 0.000000
outer loop
vertex 24.019443 7.679389 0.045533
vertex 24.063563 5.119593 1.499606
vertex 24.063563 5.119593 -1.499606
endloop
endfacet
facet normal 0.999852 0.017233 0.000000
outer loop
vertex 24.019443 7.679389 0.045533
vertex 24.063563 5.119593 -1.499606
vertex 24.019443 7.679389 -0.045533
endloop
endfacet
facet normal -1.000000 0.000000 0.000000
outer loop
vertex 0.000000 7.679389 1.500000
vertex 0.000000 10.239186 1.500000
vertex 0.000000 10.239186 -1.500000
endloop
endfacet
facet normal -1.000000 0.000000 0.000000
outer loop
vertex 0.000000 7.679389 1.500000
vertex 0.000000 10.239186 -1.500000
vertex 0.000000 7.679389 -1.500000
endloop
endfacet
facet normal 0.999819 -0.019024 0.000000
outer loop
vertex 24.068149 10.239186 0.004308
vertex 24.019443 7.679389 0.045533
vertex 24.019443 7.679389 -0.045533
endloop
endfacet
facet normal 0.999819 -0.019024 0.000000
outer loop
vertex 24.068149 10.239186 0.004308
vertex 24.019443 7.679389 -0.045533
vertex 24.068149 10.239186 -0.004308
endloop
endfacet
facet normal 0.000000 1.000000 0.000000
outer loop
vertex 21.008902 10.239186 0.380599
vertex 24.068149 10.239186 0.004308
vertex 24.068149 10.239186 -0.004308
endloop
endfacet
facet normal 0.000000 1.000000 0.000000
outer loop
vertex 21.008902 10.239186 0.380599
vertex 24.068149 10.239186 -0.004308
vertex 21.008902 10.239186 -0.380599
endloop
endfacet
facet normal -1.000000 0.000000 0.000000
outer loop
vertex 0.000000 10.239186 1.500000
vertex 0.000000 12.798982 0.000000
vertex 0.000000 10.239186 -1.500000
endloop
endfacet
facet normal 0.999801 -0.019933 0.000000
outer loop
vertex 21.059937 12.798982 0.239320
vertex 21.008902 10.239186 0.380599
vertex 21.008902 10.239186 -0.380599
endloop
endfacet
facet normal 0.999801 -0.019933 0.000000
outer loop
vertex 21.059937 12.798982 0.239320
vertex 21.008902 10.239186 -0.380599
vertex 21.059937 12.798982 -0.239320
endloop
endfacet
facet normal -0.000000 1.000000 0.000000
outer loop
vertex 5.194972 15.358779 0.001973
vertex 8.158037 15.358779 0.217937
vertex 8.158037 15.358779 -0.217937
endloop
endfacet
facet normal 0.000000 1.000000 0.000000
outer loop
vertex 5.194972 15.358779 0.001973
vertex 8.158037 15.358779 -0.217937
vertex 5.194972 15.358779 -0.001973
endloop
endfacet
facet normal -0.000000 1.000000 0.000000
outer loop
vertex 8.158037 15.358779 0.217937
vertex 10.924462 15.358779 1.301117
vertex 10.924462 15.358779 -1.301117
endloop
endfacet
facet normal 0.000000 1.000000 0.000000
outer loop
vertex 8.158037 15.358779 0.217937
vertex 10.924462 15.358779 -1.301117
vertex 8.158037 15.358779 -0.217937
endloop
endfacet
facet normal 0.000000 1.000000 0.000000
outer loop
vertex 10.924462 15.358779 1.301117
vertex 13.727476 15.358779 0.316482
vertex 13.727476 15.358779 -0.316482
endloop
endfacet
facet normal 0.000000 1.000000 0.000000
outer loop
vertex 10.924462 15.358779 1.301117
vertex 13.727476 15.358779 -0.316482
vertex 10.924462 15.358779 -1.301117
endloop
endfacet
facet normal 0.999973 -0.007315 0.000000
outer loop
vertex 21.078662 15.358779 0.054148
vertex 21.059937 12.798982 0.239320
vertex 21.059937 12.798982 -0.239320
endloop
endfacet
facet normal 0.999973 -0.007315 0.000000
outer loop
vertex 21.078662 15.358779 0.054148
vertex 21.059937 12.798982 -0.239320
vertex 21.078662 15.358779 -0.054148
endloop
endfacet
facet normal 0.000000 1.000000 0.000000
outer loop
vertex 18.489277 15.358779 1.510677
vertex 21.078662 15.358779 0.054148
vertex 21.078662 15.358779 -0.054148
endloop
endfacet
facet normal 0.000000 1.000000 0.000000
outer loop
vertex 18.489277 15.358779 1.510677
vertex 21.078662 15.358779 -0.054148
vertex 18.489277 15.358779 -1.510677
endloop
endfacet
facet normal -0.722225 0.691658 0.000000
outer loop
vertex 0.000000 15.358779 0.000000
vertex 2.451456 17.918575 1.378944
vertex 2.451456 17.918575 -1.378944
endloop
endfacet
facet normal 0.996841 0.079420 0.000000
outer loop
vertex 4.991028 17.918575 0.169935
vertex 5.194972 15.358779 0.001973
vertex 5.194972 15.358779 -0.001973
endloop
endfacet
facet normal 0.996841 0.079420 0.000000
outer loop
vertex 4.991028 17.918575 0.169935
vertex 5.194972 15.358779 -0.001973
vertex 4.991028 17.918575 -0.169935
endloop
endfacet
facet normal 0.000000 1.000000 0.000000
outer loop
vertex 2.451456 17.918575 1.378944
vertex 4.991028 17.918575 0.169935
vertex 4.991028 17.918575 -0.169935
endloop
endfacet
facet normal 0.000000 1.000000 0.000000
outer loop
vertex 2.451456 17.918575 1.378944
vertex 4.991028 17.918575 -0.169935
vertex 2.451456 17.918575 -1.378944
endloop
endfacet
facet normal 0.992884 0.119086 0.000000
outer loop
vertex 13.727476 15.358779 0.316482
vertex 13.420455 17.918575 -0.003039
vertex 13.420455 17.918575 0.003039
endloop
endfacet
facet normal -0.992884 -0.119086 -0.000000
outer loop
vertex 13.727476 15.358779 0.316482
vertex 13.420455 17.918575 0.003039
vertex 13.727476 15.358779 -0.316482
endloop
endfacet
facet normal 0.999038 0.043863 0.000000
outer loop
vertex 18.376890 17.918575 0.096761
vertex 18.489277 15.358779 1.510677
vertex 18.489277 15.358779 -1.510677
endloop
endfacet
facet normal 0.999038 0.043863 0.000000
outer loop
vertex 18.376890 17.918575 0.096761
vertex 18.489277 15.358779 -1.510677
vertex 18.376890 17.918575 -0.096761
endloop
endfacet
facet normal 0.732938 -0.680295 0.000000
outer loop
vertex 13.420455 17.918575 -0.003039
vertex 15.796394 20.478372 -0.060067
vertex 15.796394 20.478372 0.060067
endloop
endfacet
facet normal 0.732938 -0.680295 0.000000
outer loop
vertex 13.420455 17.918575 -0.003039
vertex 15.796394 20.478372 0.060067
vertex 13.420455 17.918575 0.003039
endloop
endfacet
facet normal 0.998247 -0.059179 0.000000
outer loop
vertex 18.528641 20.478372 -0.060067
vertex 18.376890 17.918575 0.096761
vertex 18.376890 17.918575 -0.096761
endloop
endfacet
facet normal -0.998247 0.059179 0.000000
outer loop
vertex 18.528641 20.478372 -0.060067
vertex 18.376890 17.918575 -0.096761
vertex 18.528641 20.478372 0.060067
endloop
endfacet
facet normal 0.000000 -1.000000 0.000000
outer loop
vertex 15.796394 20.478372 -0.060067
vertex 18.528641 20.478372 -0.060067
vertex 18.528641 20.478372 0.060067
endloop
endfacet
facet normal 0.000000 -1.000000 0.000000
outer loop
vertex 15.796394 20.478372 -0.060067
vertex 18.528641 20.478372 0.060067
vertex 15.796394 20.478372 0.060067
endloop
endfacet
facet normal 0.000000 -1.000000 -0.000000
outer loop
vertex 2.381360 20.478372 1.339515
vertex 0.000000 20.478372 0.000000
vertex 2.381360 20.478372 -1.339515
endloop
endfacet
facet normal -0.000000 1.000000 0.000000
outer loop
vertex 0.000000 23.038168 0.000000
vertex 2.381360 23.038168 1.339515
vertex 2.381360 23.038168 -1.339515
endloop
endfacet
facet normal 0.714991 -0.699133 0.000000
outer loop
vertex 4.884382 23.038168 0.244045
vertex 2.381360 20.478372 1.339515
vertex 2.381360 20.478372 -1.339515
endloop
endfacet
facet normal 0.714991 -0.699133 0.000000
outer loop
vertex 4.884382 23.038168 0.244045
vertex 2.381360 20.478372 -1.339515
vertex 4.884382 23.038168 -0.244045
endloop
endfacet
facet normal 0.000000 1.000000 0.000000
outer loop
vertex 2.381360 23.038168 1.339515
vertex 4.884382 23.038168 0.244045
vertex 4.884382 23.038168 -0.244045
endloop
endfacet
facet normal 0.000000 1.000000 0.000000
outer loop
vertex 2.381360 23.038168 1.339515
vertex 4.884382 23.038168 -0.244045
vertex 2.381360 23.038168 -1.339515
endloop
endfacet
endsolid foldforge
